<svg width="3075.6000000000004" height="1258.4" xmlns="http://www.w3.org/2000/svg" xmlns:xlink="http://www.w3.org/1999/xlink"><line x1="206.5" y1="7.0" x2="84.75" y2="31.0" style="stroke:black; stroke-width:1px;" />
<line x1="84.75" y1="38.0" x2="84.75" y2="62.0" style="stroke:black; stroke-width:1px;" />
<line x1="84.75" y1="69.0" x2="17.5" y2="93.0" style="stroke:black; stroke-width:1px;" />
<line x1="84.75" y1="69.0" x2="61.0" y2="93.0" style="stroke:black; stroke-width:1px;" />
<line x1="61.0" y1="100.0" x2="61.0" y2="124.0" style="stroke:black; stroke-width:1px;" />
<line x1="84.75" y1="69.0" x2="114.0" y2="93.0" style="stroke:black; stroke-width:1px;" />
<line x1="114.0" y1="100.0" x2="91.75" y2="124.0" style="stroke:black; stroke-width:1px;" />
<line x1="114.0" y1="100.0" x2="110.75" y2="124.0" style="stroke:black; stroke-width:1px;" />
<line x1="114.0" y1="100.0" x2="136.25" y2="124.0" style="stroke:black; stroke-width:1px;" />
<line x1="136.25" y1="131.0" x2="136.25" y2="155.0" style="stroke:black; stroke-width:1px;" />
<line x1="136.25" y1="162.0" x2="136.25" y2="186.0" style="stroke:black; stroke-width:1px;" />
<line x1="84.75" y1="69.0" x2="152.0" y2="93.0" style="stroke:black; stroke-width:1px;" />
<line x1="206.5" y1="7.0" x2="285.75" y2="31.0" style="stroke:black; stroke-width:1px;" />
<line x1="285.75" y1="38.0" x2="285.75" y2="62.0" style="stroke:black; stroke-width:1px;" />
<line x1="285.75" y1="69.0" x2="180.5" y2="93.0" style="stroke:black; stroke-width:1px;" />
<line x1="285.75" y1="69.0" x2="224.0" y2="93.0" style="stroke:black; stroke-width:1px;" />
<line x1="224.0" y1="100.0" x2="224.0" y2="124.0" style="stroke:black; stroke-width:1px;" />
<line x1="285.75" y1="69.0" x2="277.0" y2="93.0" style="stroke:black; stroke-width:1px;" />
<line x1="277.0" y1="100.0" x2="254.75" y2="124.0" style="stroke:black; stroke-width:1px;" />
<line x1="277.0" y1="100.0" x2="273.75" y2="124.0" style="stroke:black; stroke-width:1px;" />
<line x1="277.0" y1="100.0" x2="299.25" y2="124.0" style="stroke:black; stroke-width:1px;" />
<line x1="299.25" y1="131.0" x2="286.5" y2="155.0" style="stroke:black; stroke-width:1px;" />
<line x1="299.25" y1="131.0" x2="312.0" y2="155.0" style="stroke:black; stroke-width:1px;" />
<line x1="312.0" y1="162.0" x2="312.0" y2="186.0" style="stroke:black; stroke-width:1px;" />
<line x1="312.0" y1="193.0" x2="312.0" y2="217.0" style="stroke:black; stroke-width:1px;" />
<line x1="285.75" y1="69.0" x2="315.0" y2="93.0" style="stroke:black; stroke-width:1px;" />
<line x1="285.75" y1="69.0" x2="353.0" y2="93.0" style="stroke:black; stroke-width:1px;" />
<line x1="353.0" y1="100.0" x2="331.0" y2="124.0" style="stroke:black; stroke-width:1px;" />
<line x1="353.0" y1="100.0" x2="349.5" y2="124.0" style="stroke:black; stroke-width:1px;" />
<line x1="353.0" y1="100.0" x2="375.0" y2="124.0" style="stroke:black; stroke-width:1px;" />
<line x1="375.0" y1="131.0" x2="363.5" y2="155.0" style="stroke:black; stroke-width:1px;" />
<line x1="375.0" y1="131.0" x2="386.5" y2="155.0" style="stroke:black; stroke-width:1px;" />
<line x1="386.5" y1="162.0" x2="386.5" y2="186.0" style="stroke:black; stroke-width:1px;" />
<line x1="386.5" y1="193.0" x2="386.5" y2="217.0" style="stroke:black; stroke-width:1px;" />
<line x1="285.75" y1="69.0" x2="391.0" y2="93.0" style="stroke:black; stroke-width:1px;" />
<line x1="206.5" y1="7.0" x2="328.25" y2="31.0" style="stroke:black; stroke-width:1px;" />
<rect x="42.0" y="93.0" width="38.0" height="14.0" style="fill:orange; stroke:rgb(0,0,0);" rx="1"/>
<text x="44" y="102" style="font-family:sans-serif;font-size:10px;">
bType
</text>
<rect x="148.0" y="93.0" width="8.0" height="14.0" style="fill:orange; stroke:rgb(0,0,0);" rx="1"/>
<text x="150" y="102" style="font-family:sans-serif;font-size:10px;">
;
</text>
<rect x="0.0" y="93.0" width="35.0" height="14.0" style="fill:orange; stroke:rgb(0,0,0);" rx="1"/>
<text x="2" y="102" style="font-family:sans-serif;font-size:10px;">
const
</text>
<rect x="130.75" y="186.0" width="11.0" height="14.0" style="fill:orange; stroke:rgb(0,0,0);" rx="1"/>
<text x="132" y="195" style="font-family:sans-serif;font-size:10px;">
3
</text>
<rect x="371.0" y="217.0" width="31.0" height="14.0" style="fill:orange; stroke:rgb(0,0,0);" rx="1"/>
<text x="373" y="226" style="font-family:sans-serif;font-size:10px;">
0x13
</text>
<rect x="267.25" y="124.0" width="13.0" height="14.0" style="fill:orange; stroke:rgb(0,0,0);" rx="1"/>
<text x="269" y="133" style="font-family:sans-serif;font-size:10px;">
=
</text>
<rect x="306.25" y="31.0" width="44.0" height="14.0" style="fill:orange; stroke:rgb(0,0,0);" rx="1"/>
<text x="308" y="40" style="font-family:sans-serif;font-size:10px;">
&lt;EOF&gt;
</text>
<rect x="343.0" y="124.0" width="13.0" height="14.0" style="fill:orange; stroke:rgb(0,0,0);" rx="1"/>
<text x="345" y="133" style="font-family:sans-serif;font-size:10px;">
=
</text>
<rect x="178.0" y="0.0" width="57.0" height="14.0" style="fill:orange; stroke:rgb(0,0,0);" rx="1"/>
<text x="180" y="9" style="font-family:sans-serif;font-size:10px;">
compUnit
</text>
<rect x="249.25" y="124.0" width="11.0" height="14.0" style="fill:orange; stroke:rgb(0,0,0);" rx="1"/>
<text x="251" y="133" style="font-family:sans-serif;font-size:10px;">
b
</text>
<rect x="256.25" y="62.0" width="59.0" height="14.0" style="fill:orange; stroke:rgb(0,0,0);" rx="1"/>
<text x="258" y="71" style="font-family:sans-serif;font-size:10px;">
constDecl
</text>
<rect x="272.25" y="31.0" width="27.0" height="14.0" style="fill:orange; stroke:rgb(0,0,0);" rx="1"/>
<text x="274" y="40" style="font-family:sans-serif;font-size:10px;">
decl
</text>
<rect x="205.0" y="93.0" width="38.0" height="14.0" style="fill:orange; stroke:rgb(0,0,0);" rx="1"/>
<text x="207" y="102" style="font-family:sans-serif;font-size:10px;">
bType
</text>
<rect x="163.0" y="93.0" width="35.0" height="14.0" style="fill:orange; stroke:rgb(0,0,0);" rx="1"/>
<text x="165" y="102" style="font-family:sans-serif;font-size:10px;">
const
</text>
<rect x="250.0" y="93.0" width="54.0" height="14.0" style="fill:orange; stroke:rgb(0,0,0);" rx="1"/>
<text x="252" y="102" style="font-family:sans-serif;font-size:10px;">
constDef
</text>
<rect x="287.25" y="124.0" width="24.0" height="14.0" style="fill:orange; stroke:rgb(0,0,0);" rx="1"/>
<text x="289" y="133" style="font-family:sans-serif;font-size:10px;">
exp
</text>
<rect x="300.0" y="155.0" width="24.0" height="14.0" style="fill:orange; stroke:rgb(0,0,0);" rx="1"/>
<text x="302" y="164" style="font-family:sans-serif;font-size:10px;">
exp
</text>
<rect x="311.0" y="93.0" width="8.0" height="14.0" style="fill:orange; stroke:rgb(0,0,0);" rx="1"/>
<text x="313" y="102" style="font-family:sans-serif;font-size:10px;">
,
</text>
<rect x="87.0" y="93.0" width="54.0" height="14.0" style="fill:orange; stroke:rgb(0,0,0);" rx="1"/>
<text x="89" y="102" style="font-family:sans-serif;font-size:10px;">
constDef
</text>
<rect x="52.0" y="124.0" width="18.0" height="14.0" style="fill:orange; stroke:rgb(0,0,0);" rx="1"/>
<text x="54" y="133" style="font-family:sans-serif;font-size:10px;">
int
</text>
<rect x="215.0" y="124.0" width="18.0" height="14.0" style="fill:orange; stroke:rgb(0,0,0);" rx="1"/>
<text x="217" y="133" style="font-family:sans-serif;font-size:10px;">
int
</text>
<rect x="280.0" y="155.0" width="13.0" height="14.0" style="fill:orange; stroke:rgb(0,0,0);" rx="1"/>
<text x="282" y="164" style="font-family:sans-serif;font-size:10px;">
+
</text>
<rect x="326.0" y="124.0" width="10.0" height="14.0" style="fill:orange; stroke:rgb(0,0,0);" rx="1"/>
<text x="328" y="133" style="font-family:sans-serif;font-size:10px;">
c
</text>
<rect x="104.25" y="124.0" width="13.0" height="14.0" style="fill:orange; stroke:rgb(0,0,0);" rx="1"/>
<text x="106" y="133" style="font-family:sans-serif;font-size:10px;">
=
</text>
<rect x="112.25" y="155.0" width="48.0" height="14.0" style="fill:orange; stroke:rgb(0,0,0);" rx="1"/>
<text x="114" y="164" style="font-family:sans-serif;font-size:10px;">
number
</text>
<rect x="71.25" y="31.0" width="27.0" height="14.0" style="fill:orange; stroke:rgb(0,0,0);" rx="1"/>
<text x="73" y="40" style="font-family:sans-serif;font-size:10px;">
decl
</text>
<rect x="363.0" y="124.0" width="24.0" height="14.0" style="fill:orange; stroke:rgb(0,0,0);" rx="1"/>
<text x="365" y="133" style="font-family:sans-serif;font-size:10px;">
exp
</text>
<rect x="86.25" y="124.0" width="11.0" height="14.0" style="fill:orange; stroke:rgb(0,0,0);" rx="1"/>
<text x="88" y="133" style="font-family:sans-serif;font-size:10px;">
a
</text>
<rect x="55.25" y="62.0" width="59.0" height="14.0" style="fill:orange; stroke:rgb(0,0,0);" rx="1"/>
<text x="57" y="71" style="font-family:sans-serif;font-size:10px;">
constDecl
</text>
<rect x="359.5" y="155.0" width="8.0" height="14.0" style="fill:orange; stroke:rgb(0,0,0);" rx="1"/>
<text x="361" y="164" style="font-family:sans-serif;font-size:10px;">
-
</text>
<rect x="374.5" y="155.0" width="24.0" height="14.0" style="fill:orange; stroke:rgb(0,0,0);" rx="1"/>
<text x="376" y="164" style="font-family:sans-serif;font-size:10px;">
exp
</text>
<rect x="362.5" y="186.0" width="48.0" height="14.0" style="fill:orange; stroke:rgb(0,0,0);" rx="1"/>
<text x="364" y="195" style="font-family:sans-serif;font-size:10px;">
number
</text>
<rect x="387.0" y="93.0" width="8.0" height="14.0" style="fill:orange; stroke:rgb(0,0,0);" rx="1"/>
<text x="389" y="102" style="font-family:sans-serif;font-size:10px;">
;
</text>
<rect x="288.0" y="186.0" width="48.0" height="14.0" style="fill:orange; stroke:rgb(0,0,0);" rx="1"/>
<text x="290" y="195" style="font-family:sans-serif;font-size:10px;">
number
</text>
<rect x="303.0" y="217.0" width="18.0" height="14.0" style="fill:orange; stroke:rgb(0,0,0);" rx="1"/>
<text x="305" y="226" style="font-family:sans-serif;font-size:10px;">
13
</text>
<rect x="326.0" y="93.0" width="54.0" height="14.0" style="fill:orange; stroke:rgb(0,0,0);" rx="1"/>
<text x="328" y="102" style="font-family:sans-serif;font-size:10px;">
constDef
</text>
<rect x="124.25" y="124.0" width="24.0" height="14.0" style="fill:orange; stroke:rgb(0,0,0);" rx="1"/>
<text x="126" y="133" style="font-family:sans-serif;font-size:10px;">
exp
</text>
</svg>