<svg width="2567.4" height="1433.3000000000002" xmlns="http://www.w3.org/2000/svg" xmlns:xlink="http://www.w3.org/1999/xlink"><line x1="550.59375" y1="7.0" x2="126.875" y2="31.0" style="stroke:black; stroke-width:1px;" />
<line x1="126.875" y1="38.0" x2="126.875" y2="62.0" style="stroke:black; stroke-width:1px;" />
<line x1="126.875" y1="69.0" x2="17.5" y2="93.0" style="stroke:black; stroke-width:1px;" />
<line x1="126.875" y1="69.0" x2="61.0" y2="93.0" style="stroke:black; stroke-width:1px;" />
<line x1="61.0" y1="100.0" x2="61.0" y2="124.0" style="stroke:black; stroke-width:1px;" />
<line x1="126.875" y1="69.0" x2="198.25" y2="93.0" style="stroke:black; stroke-width:1px;" />
<line x1="198.25" y1="100.0" x2="94.0" y2="124.0" style="stroke:black; stroke-width:1px;" />
<line x1="94.0" y1="131.0" x2="94.0" y2="155.0" style="stroke:black; stroke-width:1px;" />
<line x1="94.0" y1="162.0" x2="78.25" y2="186.0" style="stroke:black; stroke-width:1px;" />
<line x1="94.0" y1="162.0" x2="94.75" y2="186.0" style="stroke:black; stroke-width:1px;" />
<line x1="94.0" y1="162.0" x2="109.75" y2="186.0" style="stroke:black; stroke-width:1px;" />
<line x1="198.25" y1="100.0" x2="124.5" y2="124.0" style="stroke:black; stroke-width:1px;" />
<line x1="198.25" y1="100.0" x2="143.5" y2="124.0" style="stroke:black; stroke-width:1px;" />
<line x1="198.25" y1="100.0" x2="168.0" y2="124.0" style="stroke:black; stroke-width:1px;" />
<line x1="168.0" y1="131.0" x2="168.0" y2="155.0" style="stroke:black; stroke-width:1px;" />
<line x1="168.0" y1="162.0" x2="168.0" y2="186.0" style="stroke:black; stroke-width:1px;" />
<line x1="198.25" y1="100.0" x2="195.5" y2="124.0" style="stroke:black; stroke-width:1px;" />
<line x1="198.25" y1="100.0" x2="223.0" y2="124.0" style="stroke:black; stroke-width:1px;" />
<line x1="223.0" y1="131.0" x2="223.0" y2="155.0" style="stroke:black; stroke-width:1px;" />
<line x1="223.0" y1="162.0" x2="223.0" y2="186.0" style="stroke:black; stroke-width:1px;" />
<line x1="198.25" y1="100.0" x2="250.5" y2="124.0" style="stroke:black; stroke-width:1px;" />
<line x1="198.25" y1="100.0" x2="278.0" y2="124.0" style="stroke:black; stroke-width:1px;" />
<line x1="278.0" y1="131.0" x2="278.0" y2="155.0" style="stroke:black; stroke-width:1px;" />
<line x1="278.0" y1="162.0" x2="278.0" y2="186.0" style="stroke:black; stroke-width:1px;" />
<line x1="198.25" y1="100.0" x2="302.5" y2="124.0" style="stroke:black; stroke-width:1px;" />
<line x1="126.875" y1="69.0" x2="236.25" y2="93.0" style="stroke:black; stroke-width:1px;" />
<line x1="550.59375" y1="7.0" x2="375.8125" y2="31.0" style="stroke:black; stroke-width:1px;" />
<line x1="375.8125" y1="38.0" x2="375.8125" y2="62.0" style="stroke:black; stroke-width:1px;" />
<line x1="375.8125" y1="69.0" x2="280.5" y2="93.0" style="stroke:black; stroke-width:1px;" />
<line x1="375.8125" y1="69.0" x2="324.0" y2="93.0" style="stroke:black; stroke-width:1px;" />
<line x1="324.0" y1="100.0" x2="324.0" y2="124.0" style="stroke:black; stroke-width:1px;" />
<line x1="375.8125" y1="69.0" x2="433.125" y2="93.0" style="stroke:black; stroke-width:1px;" />
<line x1="433.125" y1="100.0" x2="357.0" y2="124.0" style="stroke:black; stroke-width:1px;" />
<line x1="357.0" y1="131.0" x2="357.0" y2="155.0" style="stroke:black; stroke-width:1px;" />
<line x1="357.0" y1="162.0" x2="325.75" y2="186.0" style="stroke:black; stroke-width:1px;" />
<line x1="357.0" y1="162.0" x2="342.25" y2="186.0" style="stroke:black; stroke-width:1px;" />
<line x1="357.0" y1="162.0" x2="365.25" y2="186.0" style="stroke:black; stroke-width:1px;" />
<line x1="365.25" y1="193.0" x2="365.25" y2="217.0" style="stroke:black; stroke-width:1px;" />
<line x1="365.25" y1="224.0" x2="365.25" y2="248.0" style="stroke:black; stroke-width:1px;" />
<line x1="357.0" y1="162.0" x2="388.25" y2="186.0" style="stroke:black; stroke-width:1px;" />
<line x1="433.125" y1="100.0" x2="387.5" y2="124.0" style="stroke:black; stroke-width:1px;" />
<line x1="433.125" y1="100.0" x2="406.5" y2="124.0" style="stroke:black; stroke-width:1px;" />
<line x1="433.125" y1="100.0" x2="431.0" y2="124.0" style="stroke:black; stroke-width:1px;" />
<line x1="431.0" y1="131.0" x2="419.5" y2="155.0" style="stroke:black; stroke-width:1px;" />
<line x1="431.0" y1="131.0" x2="442.5" y2="155.0" style="stroke:black; stroke-width:1px;" />
<line x1="442.5" y1="162.0" x2="442.5" y2="186.0" style="stroke:black; stroke-width:1px;" />
<line x1="442.5" y1="193.0" x2="442.5" y2="217.0" style="stroke:black; stroke-width:1px;" />
<line x1="433.125" y1="100.0" x2="457.875" y2="124.0" style="stroke:black; stroke-width:1px;" />
<line x1="433.125" y1="100.0" x2="484.75" y2="124.0" style="stroke:black; stroke-width:1px;" />
<line x1="484.75" y1="131.0" x2="472.0" y2="155.0" style="stroke:black; stroke-width:1px;" />
<line x1="484.75" y1="131.0" x2="497.5" y2="155.0" style="stroke:black; stroke-width:1px;" />
<line x1="497.5" y1="162.0" x2="497.5" y2="186.0" style="stroke:black; stroke-width:1px;" />
<line x1="497.5" y1="193.0" x2="497.5" y2="217.0" style="stroke:black; stroke-width:1px;" />
<line x1="433.125" y1="100.0" x2="509.25" y2="124.0" style="stroke:black; stroke-width:1px;" />
<line x1="375.8125" y1="69.0" x2="471.125" y2="93.0" style="stroke:black; stroke-width:1px;" />
<line x1="550.59375" y1="7.0" x2="620.3125" y2="31.0" style="stroke:black; stroke-width:1px;" />
<line x1="620.3125" y1="38.0" x2="620.3125" y2="62.0" style="stroke:black; stroke-width:1px;" />
<line x1="620.3125" y1="69.0" x2="499.625" y2="93.0" style="stroke:black; stroke-width:1px;" />
<line x1="620.3125" y1="69.0" x2="543.125" y2="93.0" style="stroke:black; stroke-width:1px;" />
<line x1="543.125" y1="100.0" x2="543.125" y2="124.0" style="stroke:black; stroke-width:1px;" />
<line x1="620.3125" y1="69.0" x2="703.0" y2="93.0" style="stroke:black; stroke-width:1px;" />
<line x1="703.0" y1="100.0" x2="576.125" y2="124.0" style="stroke:black; stroke-width:1px;" />
<line x1="576.125" y1="131.0" x2="576.125" y2="155.0" style="stroke:black; stroke-width:1px;" />
<line x1="576.125" y1="162.0" x2="549.625" y2="186.0" style="stroke:black; stroke-width:1px;" />
<line x1="576.125" y1="162.0" x2="602.625" y2="186.0" style="stroke:black; stroke-width:1px;" />
<line x1="602.625" y1="193.0" x2="587.125" y2="217.0" style="stroke:black; stroke-width:1px;" />
<line x1="602.625" y1="193.0" x2="603.125" y2="217.0" style="stroke:black; stroke-width:1px;" />
<line x1="602.625" y1="193.0" x2="618.125" y2="217.0" style="stroke:black; stroke-width:1px;" />
<line x1="703.0" y1="100.0" x2="606.625" y2="124.0" style="stroke:black; stroke-width:1px;" />
<line x1="703.0" y1="100.0" x2="625.625" y2="124.0" style="stroke:black; stroke-width:1px;" />
<line x1="703.0" y1="100.0" x2="650.125" y2="124.0" style="stroke:black; stroke-width:1px;" />
<line x1="650.125" y1="131.0" x2="650.125" y2="155.0" style="stroke:black; stroke-width:1px;" />
<line x1="650.125" y1="162.0" x2="650.125" y2="186.0" style="stroke:black; stroke-width:1px;" />
<line x1="703.0" y1="100.0" x2="677.625" y2="124.0" style="stroke:black; stroke-width:1px;" />
<line x1="703.0" y1="100.0" x2="705.125" y2="124.0" style="stroke:black; stroke-width:1px;" />
<line x1="705.125" y1="131.0" x2="705.125" y2="155.0" style="stroke:black; stroke-width:1px;" />
<line x1="705.125" y1="162.0" x2="705.125" y2="186.0" style="stroke:black; stroke-width:1px;" />
<line x1="703.0" y1="100.0" x2="728.375" y2="124.0" style="stroke:black; stroke-width:1px;" />
<line x1="703.0" y1="100.0" x2="751.625" y2="124.0" style="stroke:black; stroke-width:1px;" />
<line x1="751.625" y1="131.0" x2="740.125" y2="155.0" style="stroke:black; stroke-width:1px;" />
<line x1="751.625" y1="131.0" x2="763.125" y2="155.0" style="stroke:black; stroke-width:1px;" />
<line x1="763.125" y1="162.0" x2="763.125" y2="186.0" style="stroke:black; stroke-width:1px;" />
<line x1="763.125" y1="193.0" x2="763.125" y2="217.0" style="stroke:black; stroke-width:1px;" />
<line x1="703.0" y1="100.0" x2="778.5" y2="124.0" style="stroke:black; stroke-width:1px;" />
<line x1="703.0" y1="100.0" x2="805.375" y2="124.0" style="stroke:black; stroke-width:1px;" />
<line x1="805.375" y1="131.0" x2="792.625" y2="155.0" style="stroke:black; stroke-width:1px;" />
<line x1="805.375" y1="131.0" x2="818.125" y2="155.0" style="stroke:black; stroke-width:1px;" />
<line x1="818.125" y1="162.0" x2="818.125" y2="186.0" style="stroke:black; stroke-width:1px;" />
<line x1="818.125" y1="193.0" x2="818.125" y2="217.0" style="stroke:black; stroke-width:1px;" />
<line x1="703.0" y1="100.0" x2="829.875" y2="124.0" style="stroke:black; stroke-width:1px;" />
<line x1="620.3125" y1="69.0" x2="741.0" y2="93.0" style="stroke:black; stroke-width:1px;" />
<line x1="550.59375" y1="7.0" x2="931.8125" y2="31.0" style="stroke:black; stroke-width:1px;" />
<line x1="931.8125" y1="38.0" x2="931.8125" y2="62.0" style="stroke:black; stroke-width:1px;" />
<line x1="931.8125" y1="69.0" x2="811.125" y2="93.0" style="stroke:black; stroke-width:1px;" />
<line x1="931.8125" y1="69.0" x2="854.625" y2="93.0" style="stroke:black; stroke-width:1px;" />
<line x1="854.625" y1="100.0" x2="854.625" y2="124.0" style="stroke:black; stroke-width:1px;" />
<line x1="931.8125" y1="69.0" x2="1014.5" y2="93.0" style="stroke:black; stroke-width:1px;" />
<line x1="1014.5" y1="100.0" x2="887.625" y2="124.0" style="stroke:black; stroke-width:1px;" />
<line x1="887.625" y1="131.0" x2="887.625" y2="155.0" style="stroke:black; stroke-width:1px;" />
<line x1="887.625" y1="162.0" x2="861.125" y2="186.0" style="stroke:black; stroke-width:1px;" />
<line x1="887.625" y1="162.0" x2="914.125" y2="186.0" style="stroke:black; stroke-width:1px;" />
<line x1="914.125" y1="193.0" x2="882.875" y2="217.0" style="stroke:black; stroke-width:1px;" />
<line x1="914.125" y1="193.0" x2="899.375" y2="217.0" style="stroke:black; stroke-width:1px;" />
<line x1="914.125" y1="193.0" x2="922.375" y2="217.0" style="stroke:black; stroke-width:1px;" />
<line x1="922.375" y1="224.0" x2="909.625" y2="248.0" style="stroke:black; stroke-width:1px;" />
<line x1="922.375" y1="224.0" x2="935.125" y2="248.0" style="stroke:black; stroke-width:1px;" />
<line x1="935.125" y1="255.0" x2="935.125" y2="279.0" style="stroke:black; stroke-width:1px;" />
<line x1="935.125" y1="286.0" x2="935.125" y2="310.0" style="stroke:black; stroke-width:1px;" />
<line x1="914.125" y1="193.0" x2="945.375" y2="217.0" style="stroke:black; stroke-width:1px;" />
<line x1="1014.5" y1="100.0" x2="918.125" y2="124.0" style="stroke:black; stroke-width:1px;" />
<line x1="1014.5" y1="100.0" x2="937.125" y2="124.0" style="stroke:black; stroke-width:1px;" />
<line x1="1014.5" y1="100.0" x2="961.625" y2="124.0" style="stroke:black; stroke-width:1px;" />
<line x1="961.625" y1="131.0" x2="961.625" y2="155.0" style="stroke:black; stroke-width:1px;" />
<line x1="961.625" y1="162.0" x2="961.625" y2="186.0" style="stroke:black; stroke-width:1px;" />
<line x1="1014.5" y1="100.0" x2="989.125" y2="124.0" style="stroke:black; stroke-width:1px;" />
<line x1="1014.5" y1="100.0" x2="1016.625" y2="124.0" style="stroke:black; stroke-width:1px;" />
<line x1="1016.625" y1="131.0" x2="1016.625" y2="155.0" style="stroke:black; stroke-width:1px;" />
<line x1="1016.625" y1="162.0" x2="1016.625" y2="186.0" style="stroke:black; stroke-width:1px;" />
<line x1="1014.5" y1="100.0" x2="1039.875" y2="124.0" style="stroke:black; stroke-width:1px;" />
<line x1="1014.5" y1="100.0" x2="1063.125" y2="124.0" style="stroke:black; stroke-width:1px;" />
<line x1="1063.125" y1="131.0" x2="1051.625" y2="155.0" style="stroke:black; stroke-width:1px;" />
<line x1="1063.125" y1="131.0" x2="1074.625" y2="155.0" style="stroke:black; stroke-width:1px;" />
<line x1="1074.625" y1="162.0" x2="1074.625" y2="186.0" style="stroke:black; stroke-width:1px;" />
<line x1="1074.625" y1="193.0" x2="1074.625" y2="217.0" style="stroke:black; stroke-width:1px;" />
<line x1="1014.5" y1="100.0" x2="1090.0" y2="124.0" style="stroke:black; stroke-width:1px;" />
<line x1="1014.5" y1="100.0" x2="1116.875" y2="124.0" style="stroke:black; stroke-width:1px;" />
<line x1="1116.875" y1="131.0" x2="1104.125" y2="155.0" style="stroke:black; stroke-width:1px;" />
<line x1="1116.875" y1="131.0" x2="1129.625" y2="155.0" style="stroke:black; stroke-width:1px;" />
<line x1="1129.625" y1="162.0" x2="1129.625" y2="186.0" style="stroke:black; stroke-width:1px;" />
<line x1="1129.625" y1="193.0" x2="1129.625" y2="217.0" style="stroke:black; stroke-width:1px;" />
<line x1="1014.5" y1="100.0" x2="1141.375" y2="124.0" style="stroke:black; stroke-width:1px;" />
<line x1="931.8125" y1="69.0" x2="1052.5" y2="93.0" style="stroke:black; stroke-width:1px;" />
<line x1="550.59375" y1="7.0" x2="974.3125" y2="31.0" style="stroke:black; stroke-width:1px;" />
<rect x="362.3125" y="31.0" width="27.0" height="14.0" style="fill:orange; stroke:rgb(0,0,0);" rx="1"/>
<text x="364" y="40" style="font-family:sans-serif;font-size:10px;">
decl
</text>
<rect x="793.375" y="124.0" width="24.0" height="14.0" style="fill:orange; stroke:rgb(0,0,0);" rx="1"/>
<text x="795" y="133" style="font-family:sans-serif;font-size:10px;">
exp
</text>
<rect x="232.25" y="93.0" width="8.0" height="14.0" style="fill:orange; stroke:rgb(0,0,0);" rx="1"/>
<text x="234" y="102" style="font-family:sans-serif;font-size:10px;">
;
</text>
<rect x="786.125" y="155.0" width="13.0" height="14.0" style="fill:orange; stroke:rgb(0,0,0);" rx="1"/>
<text x="788" y="164" style="font-family:sans-serif;font-size:10px;">
+
</text>
<rect x="895.375" y="217.0" width="8.0" height="14.0" style="fill:orange; stroke:rgb(0,0,0);" rx="1"/>
<text x="897" y="226" style="font-family:sans-serif;font-size:10px;">
[
</text>
<rect x="492.0" y="217.0" width="11.0" height="14.0" style="fill:orange; stroke:rgb(0,0,0);" rx="1"/>
<text x="494" y="226" style="font-family:sans-serif;font-size:10px;">
5
</text>
<rect x="956.125" y="186.0" width="11.0" height="14.0" style="fill:orange; stroke:rgb(0,0,0);" rx="1"/>
<text x="958" y="195" style="font-family:sans-serif;font-size:10px;">
0
</text>
<rect x="1117.625" y="155.0" width="24.0" height="14.0" style="fill:orange; stroke:rgb(0,0,0);" rx="1"/>
<text x="1119" y="164" style="font-family:sans-serif;font-size:10px;">
exp
</text>
<rect x="191.5" y="124.0" width="8.0" height="14.0" style="fill:orange; stroke:rgb(0,0,0);" rx="1"/>
<text x="193" y="133" style="font-family:sans-serif;font-size:10px;">
,
</text>
<rect x="739.625" y="124.0" width="24.0" height="14.0" style="fill:orange; stroke:rgb(0,0,0);" rx="1"/>
<text x="741" y="133" style="font-family:sans-serif;font-size:10px;">
exp
</text>
<rect x="793.625" y="93.0" width="35.0" height="14.0" style="fill:orange; stroke:rgb(0,0,0);" rx="1"/>
<text x="795" y="102" style="font-family:sans-serif;font-size:10px;">
const
</text>
<rect x="606.8125" y="31.0" width="27.0" height="14.0" style="fill:orange; stroke:rgb(0,0,0);" rx="1"/>
<text x="608" y="40" style="font-family:sans-serif;font-size:10px;">
decl
</text>
<rect x="737.0" y="93.0" width="8.0" height="14.0" style="fill:orange; stroke:rgb(0,0,0);" rx="1"/>
<text x="739" y="102" style="font-family:sans-serif;font-size:10px;">
;
</text>
<rect x="1051.125" y="124.0" width="24.0" height="14.0" style="fill:orange; stroke:rgb(0,0,0);" rx="1"/>
<text x="1053" y="133" style="font-family:sans-serif;font-size:10px;">
exp
</text>
<rect x="171.25" y="93.0" width="54.0" height="14.0" style="fill:orange; stroke:rgb(0,0,0);" rx="1"/>
<text x="173" y="102" style="font-family:sans-serif;font-size:10px;">
constDef
</text>
<rect x="1048.5" y="93.0" width="8.0" height="14.0" style="fill:orange; stroke:rgb(0,0,0);" rx="1"/>
<text x="1050" y="102" style="font-family:sans-serif;font-size:10px;">
;
</text>
<rect x="699.625" y="186.0" width="11.0" height="14.0" style="fill:orange; stroke:rgb(0,0,0);" rx="1"/>
<text x="701" y="195" style="font-family:sans-serif;font-size:10px;">
1
</text>
<rect x="987.5" y="93.0" width="54.0" height="14.0" style="fill:orange; stroke:rgb(0,0,0);" rx="1"/>
<text x="989" y="102" style="font-family:sans-serif;font-size:10px;">
constDef
</text>
<rect x="985.125" y="124.0" width="8.0" height="14.0" style="fill:orange; stroke:rgb(0,0,0);" rx="1"/>
<text x="987" y="133" style="font-family:sans-serif;font-size:10px;">
,
</text>
<rect x="144.0" y="155.0" width="48.0" height="14.0" style="fill:orange; stroke:rgb(0,0,0);" rx="1"/>
<text x="146" y="164" style="font-family:sans-serif;font-size:10px;">
number
</text>
<rect x="353.25" y="248.0" width="24.0" height="14.0" style="fill:orange; stroke:rgb(0,0,0);" rx="1"/>
<text x="355" y="257" style="font-family:sans-serif;font-size:10px;">
0x6
</text>
<rect x="473.5" y="186.0" width="48.0" height="14.0" style="fill:orange; stroke:rgb(0,0,0);" rx="1"/>
<text x="475" y="195" style="font-family:sans-serif;font-size:10px;">
number
</text>
<rect x="297.0" y="124.0" width="11.0" height="14.0" style="fill:orange; stroke:rgb(0,0,0);" rx="1"/>
<text x="299" y="133" style="font-family:sans-serif;font-size:10px;">
}
</text>
<rect x="739.125" y="186.0" width="48.0" height="14.0" style="fill:orange; stroke:rgb(0,0,0);" rx="1"/>
<text x="741" y="195" style="font-family:sans-serif;font-size:10px;">
number
</text>
<rect x="315.0" y="124.0" width="18.0" height="14.0" style="fill:orange; stroke:rgb(0,0,0);" rx="1"/>
<text x="317" y="133" style="font-family:sans-serif;font-size:10px;">
int
</text>
<rect x="211.0" y="124.0" width="24.0" height="14.0" style="fill:orange; stroke:rgb(0,0,0);" rx="1"/>
<text x="213" y="133" style="font-family:sans-serif;font-size:10px;">
exp
</text>
<rect x="97.375" y="62.0" width="59.0" height="14.0" style="fill:orange; stroke:rgb(0,0,0);" rx="1"/>
<text x="99" y="71" style="font-family:sans-serif;font-size:10px;">
constDecl
</text>
<rect x="52.0" y="124.0" width="18.0" height="14.0" style="fill:orange; stroke:rgb(0,0,0);" rx="1"/>
<text x="54" y="133" style="font-family:sans-serif;font-size:10px;">
int
</text>
<rect x="72.75" y="186.0" width="11.0" height="14.0" style="fill:orange; stroke:rgb(0,0,0);" rx="1"/>
<text x="74" y="195" style="font-family:sans-serif;font-size:10px;">
a
</text>
<rect x="118.0" y="124.0" width="13.0" height="14.0" style="fill:orange; stroke:rgb(0,0,0);" rx="1"/>
<text x="120" y="133" style="font-family:sans-serif;font-size:10px;">
=
</text>
<rect x="923.125" y="248.0" width="24.0" height="14.0" style="fill:orange; stroke:rgb(0,0,0);" rx="1"/>
<text x="925" y="257" style="font-family:sans-serif;font-size:10px;">
exp
</text>
<rect x="1047.625" y="155.0" width="8.0" height="14.0" style="fill:orange; stroke:rgb(0,0,0);" rx="1"/>
<text x="1049" y="164" style="font-family:sans-serif;font-size:10px;">
-
</text>
<rect x="880.125" y="186.0" width="68.0" height="14.0" style="fill:orange; stroke:rgb(0,0,0);" rx="1"/>
<text x="882" y="195" style="font-family:sans-serif;font-size:10px;">
unobcArray
</text>
<rect x="937.625" y="155.0" width="48.0" height="14.0" style="fill:orange; stroke:rgb(0,0,0);" rx="1"/>
<text x="939" y="164" style="font-family:sans-serif;font-size:10px;">
number
</text>
<rect x="217.5" y="186.0" width="11.0" height="14.0" style="fill:orange; stroke:rgb(0,0,0);" rx="1"/>
<text x="219" y="195" style="font-family:sans-serif;font-size:10px;">
2
</text>
<rect x="430.5" y="155.0" width="24.0" height="14.0" style="fill:orange; stroke:rgb(0,0,0);" rx="1"/>
<text x="432" y="164" style="font-family:sans-serif;font-size:10px;">
exp
</text>
<rect x="1104.875" y="124.0" width="24.0" height="14.0" style="fill:orange; stroke:rgb(0,0,0);" rx="1"/>
<text x="1106" y="133" style="font-family:sans-serif;font-size:10px;">
exp
</text>
<rect x="415.5" y="155.0" width="8.0" height="14.0" style="fill:orange; stroke:rgb(0,0,0);" rx="1"/>
<text x="417" y="164" style="font-family:sans-serif;font-size:10px;">
-
</text>
<rect x="1062.625" y="155.0" width="24.0" height="14.0" style="fill:orange; stroke:rgb(0,0,0);" rx="1"/>
<text x="1064" y="164" style="font-family:sans-serif;font-size:10px;">
exp
</text>
<rect x="42.0" y="93.0" width="38.0" height="14.0" style="fill:orange; stroke:rgb(0,0,0);" rx="1"/>
<text x="44" y="102" style="font-family:sans-serif;font-size:10px;">
bType
</text>
<rect x="485.5" y="155.0" width="24.0" height="14.0" style="fill:orange; stroke:rgb(0,0,0);" rx="1"/>
<text x="487" y="164" style="font-family:sans-serif;font-size:10px;">
exp
</text>
<rect x="582.125" y="217.0" width="10.0" height="14.0" style="fill:orange; stroke:rgb(0,0,0);" rx="1"/>
<text x="584" y="226" style="font-family:sans-serif;font-size:10px;">
c
</text>
<rect x="482.125" y="93.0" width="35.0" height="14.0" style="fill:orange; stroke:rgb(0,0,0);" rx="1"/>
<text x="484" y="102" style="font-family:sans-serif;font-size:10px;">
const
</text>
<rect x="1035.875" y="124.0" width="8.0" height="14.0" style="fill:orange; stroke:rgb(0,0,0);" rx="1"/>
<text x="1037" y="133" style="font-family:sans-serif;font-size:10px;">
,
</text>
<rect x="453.875" y="124.0" width="8.0" height="14.0" style="fill:orange; stroke:rgb(0,0,0);" rx="1"/>
<text x="455" y="133" style="font-family:sans-serif;font-size:10px;">
,
</text>
<rect x="465.5" y="155.0" width="13.0" height="14.0" style="fill:orange; stroke:rgb(0,0,0);" rx="1"/>
<text x="467" y="164" style="font-family:sans-serif;font-size:10px;">
+
</text>
<rect x="549.125" y="155.0" width="54.0" height="14.0" style="fill:orange; stroke:rgb(0,0,0);" rx="1"/>
<text x="551" y="164" style="font-family:sans-serif;font-size:10px;">
obcArray
</text>
<rect x="949.625" y="124.0" width="24.0" height="14.0" style="fill:orange; stroke:rgb(0,0,0);" rx="1"/>
<text x="951" y="133" style="font-family:sans-serif;font-size:10px;">
exp
</text>
<rect x="600.125" y="124.0" width="13.0" height="14.0" style="fill:orange; stroke:rgb(0,0,0);" rx="1"/>
<text x="602" y="133" style="font-family:sans-serif;font-size:10px;">
=
</text>
<rect x="537.625" y="186.0" width="24.0" height="14.0" style="fill:orange; stroke:rgb(0,0,0);" rx="1"/>
<text x="539" y="195" style="font-family:sans-serif;font-size:10px;">
obc
</text>
<rect x="824.375" y="124.0" width="11.0" height="14.0" style="fill:orange; stroke:rgb(0,0,0);" rx="1"/>
<text x="826" y="133" style="font-family:sans-serif;font-size:10px;">
}
</text>
<rect x="911.625" y="124.0" width="13.0" height="14.0" style="fill:orange; stroke:rgb(0,0,0);" rx="1"/>
<text x="913" y="133" style="font-family:sans-serif;font-size:10px;">
=
</text>
<rect x="156.0" y="124.0" width="24.0" height="14.0" style="fill:orange; stroke:rgb(0,0,0);" rx="1"/>
<text x="158" y="133" style="font-family:sans-serif;font-size:10px;">
exp
</text>
<rect x="599.125" y="217.0" width="8.0" height="14.0" style="fill:orange; stroke:rgb(0,0,0);" rx="1"/>
<text x="601" y="226" style="font-family:sans-serif;font-size:10px;">
[
</text>
<rect x="806.125" y="155.0" width="24.0" height="14.0" style="fill:orange; stroke:rgb(0,0,0);" rx="1"/>
<text x="808" y="164" style="font-family:sans-serif;font-size:10px;">
exp
</text>
<rect x="918.3125" y="31.0" width="27.0" height="14.0" style="fill:orange; stroke:rgb(0,0,0);" rx="1"/>
<text x="920" y="40" style="font-family:sans-serif;font-size:10px;">
decl
</text>
<rect x="757.625" y="217.0" width="11.0" height="14.0" style="fill:orange; stroke:rgb(0,0,0);" rx="1"/>
<text x="759" y="226" style="font-family:sans-serif;font-size:10px;">
0
</text>
<rect x="340.0" y="124.0" width="34.0" height="14.0" style="fill:orange; stroke:rgb(0,0,0);" rx="1"/>
<text x="342" y="133" style="font-family:sans-serif;font-size:10px;">
array
</text>
<rect x="902.3125" y="62.0" width="59.0" height="14.0" style="fill:orange; stroke:rgb(0,0,0);" rx="1"/>
<text x="904" y="71" style="font-family:sans-serif;font-size:10px;">
constDecl
</text>
<rect x="910.375" y="217.0" width="24.0" height="14.0" style="fill:orange; stroke:rgb(0,0,0);" rx="1"/>
<text x="912" y="226" style="font-family:sans-serif;font-size:10px;">
exp
</text>
<rect x="138.0" y="124.0" width="11.0" height="14.0" style="fill:orange; stroke:rgb(0,0,0);" rx="1"/>
<text x="140" y="133" style="font-family:sans-serif;font-size:10px;">
{
</text>
<rect x="676.0" y="93.0" width="54.0" height="14.0" style="fill:orange; stroke:rgb(0,0,0);" rx="1"/>
<text x="678" y="102" style="font-family:sans-serif;font-size:10px;">
constDef
</text>
<rect x="812.625" y="217.0" width="11.0" height="14.0" style="fill:orange; stroke:rgb(0,0,0);" rx="1"/>
<text x="814" y="226" style="font-family:sans-serif;font-size:10px;">
1
</text>
<rect x="320.25" y="186.0" width="11.0" height="14.0" style="fill:orange; stroke:rgb(0,0,0);" rx="1"/>
<text x="322" y="195" style="font-family:sans-serif;font-size:10px;">
b
</text>
<rect x="638.125" y="124.0" width="24.0" height="14.0" style="fill:orange; stroke:rgb(0,0,0);" rx="1"/>
<text x="640" y="133" style="font-family:sans-serif;font-size:10px;">
exp
</text>
<rect x="1004.625" y="124.0" width="24.0" height="14.0" style="fill:orange; stroke:rgb(0,0,0);" rx="1"/>
<text x="1006" y="133" style="font-family:sans-serif;font-size:10px;">
exp
</text>
<rect x="903.125" y="248.0" width="13.0" height="14.0" style="fill:orange; stroke:rgb(0,0,0);" rx="1"/>
<text x="905" y="257" style="font-family:sans-serif;font-size:10px;">
+
</text>
<rect x="992.625" y="155.0" width="48.0" height="14.0" style="fill:orange; stroke:rgb(0,0,0);" rx="1"/>
<text x="994" y="164" style="font-family:sans-serif;font-size:10px;">
number
</text>
<rect x="1086.0" y="124.0" width="8.0" height="14.0" style="fill:orange; stroke:rgb(0,0,0);" rx="1"/>
<text x="1088" y="133" style="font-family:sans-serif;font-size:10px;">
,
</text>
<rect x="419.0" y="124.0" width="24.0" height="14.0" style="fill:orange; stroke:rgb(0,0,0);" rx="1"/>
<text x="421" y="133" style="font-family:sans-serif;font-size:10px;">
exp
</text>
<rect x="794.125" y="186.0" width="48.0" height="14.0" style="fill:orange; stroke:rgb(0,0,0);" rx="1"/>
<text x="796" y="195" style="font-family:sans-serif;font-size:10px;">
number
</text>
<rect x="60.0" y="155.0" width="68.0" height="14.0" style="fill:orange; stroke:rgb(0,0,0);" rx="1"/>
<text x="62" y="164" style="font-family:sans-serif;font-size:10px;">
unobcArray
</text>
<rect x="931.625" y="124.0" width="11.0" height="14.0" style="fill:orange; stroke:rgb(0,0,0);" rx="1"/>
<text x="933" y="133" style="font-family:sans-serif;font-size:10px;">
{
</text>
<rect x="590.8125" y="62.0" width="59.0" height="14.0" style="fill:orange; stroke:rgb(0,0,0);" rx="1"/>
<text x="592" y="71" style="font-family:sans-serif;font-size:10px;">
constDecl
</text>
<rect x="952.3125" y="31.0" width="44.0" height="14.0" style="fill:orange; stroke:rgb(0,0,0);" rx="1"/>
<text x="954" y="40" style="font-family:sans-serif;font-size:10px;">
&lt;EOF&gt;
</text>
<rect x="693.125" y="124.0" width="24.0" height="14.0" style="fill:orange; stroke:rgb(0,0,0);" rx="1"/>
<text x="695" y="133" style="font-family:sans-serif;font-size:10px;">
exp
</text>
<rect x="437.0" y="217.0" width="11.0" height="14.0" style="fill:orange; stroke:rgb(0,0,0);" rx="1"/>
<text x="439" y="226" style="font-family:sans-serif;font-size:10px;">
3
</text>
<rect x="568.625" y="186.0" width="68.0" height="14.0" style="fill:orange; stroke:rgb(0,0,0);" rx="1"/>
<text x="570" y="195" style="font-family:sans-serif;font-size:10px;">
unobcArray
</text>
<rect x="849.125" y="186.0" width="24.0" height="14.0" style="fill:orange; stroke:rgb(0,0,0);" rx="1"/>
<text x="851" y="195" style="font-family:sans-serif;font-size:10px;">
obc
</text>
<rect x="341.25" y="217.0" width="48.0" height="14.0" style="fill:orange; stroke:rgb(0,0,0);" rx="1"/>
<text x="343" y="226" style="font-family:sans-serif;font-size:10px;">
number
</text>
<rect x="534.125" y="124.0" width="18.0" height="14.0" style="fill:orange; stroke:rgb(0,0,0);" rx="1"/>
<text x="536" y="133" style="font-family:sans-serif;font-size:10px;">
int
</text>
<rect x="941.375" y="217.0" width="8.0" height="14.0" style="fill:orange; stroke:rgb(0,0,0);" rx="1"/>
<text x="943" y="226" style="font-family:sans-serif;font-size:10px;">
]
</text>
<rect x="353.25" y="186.0" width="24.0" height="14.0" style="fill:orange; stroke:rgb(0,0,0);" rx="1"/>
<text x="355" y="195" style="font-family:sans-serif;font-size:10px;">
exp
</text>
<rect x="845.625" y="124.0" width="18.0" height="14.0" style="fill:orange; stroke:rgb(0,0,0);" rx="1"/>
<text x="847" y="133" style="font-family:sans-serif;font-size:10px;">
int
</text>
<rect x="681.125" y="155.0" width="48.0" height="14.0" style="fill:orange; stroke:rgb(0,0,0);" rx="1"/>
<text x="683" y="164" style="font-family:sans-serif;font-size:10px;">
number
</text>
<rect x="860.625" y="155.0" width="54.0" height="14.0" style="fill:orange; stroke:rgb(0,0,0);" rx="1"/>
<text x="862" y="164" style="font-family:sans-serif;font-size:10px;">
obcArray
</text>
<rect x="338.25" y="186.0" width="8.0" height="14.0" style="fill:orange; stroke:rgb(0,0,0);" rx="1"/>
<text x="340" y="195" style="font-family:sans-serif;font-size:10px;">
[
</text>
<rect x="620.125" y="124.0" width="11.0" height="14.0" style="fill:orange; stroke:rgb(0,0,0);" rx="1"/>
<text x="622" y="133" style="font-family:sans-serif;font-size:10px;">
{
</text>
<rect x="467.125" y="93.0" width="8.0" height="14.0" style="fill:orange; stroke:rgb(0,0,0);" rx="1"/>
<text x="469" y="102" style="font-family:sans-serif;font-size:10px;">
;
</text>
<rect x="877.375" y="217.0" width="11.0" height="14.0" style="fill:orange; stroke:rgb(0,0,0);" rx="1"/>
<text x="879" y="226" style="font-family:sans-serif;font-size:10px;">
d
</text>
<rect x="1069.125" y="217.0" width="11.0" height="14.0" style="fill:orange; stroke:rgb(0,0,0);" rx="1"/>
<text x="1071" y="226" style="font-family:sans-serif;font-size:10px;">
0
</text>
<rect x="1011.125" y="186.0" width="11.0" height="14.0" style="fill:orange; stroke:rgb(0,0,0);" rx="1"/>
<text x="1013" y="195" style="font-family:sans-serif;font-size:10px;">
1
</text>
<rect x="1097.625" y="155.0" width="13.0" height="14.0" style="fill:orange; stroke:rgb(0,0,0);" rx="1"/>
<text x="1099" y="164" style="font-family:sans-serif;font-size:10px;">
+
</text>
<rect x="246.5" y="124.0" width="8.0" height="14.0" style="fill:orange; stroke:rgb(0,0,0);" rx="1"/>
<text x="248" y="133" style="font-family:sans-serif;font-size:10px;">
,
</text>
<rect x="254.0" y="155.0" width="48.0" height="14.0" style="fill:orange; stroke:rgb(0,0,0);" rx="1"/>
<text x="256" y="164" style="font-family:sans-serif;font-size:10px;">
number
</text>
<rect x="105.75" y="186.0" width="8.0" height="14.0" style="fill:orange; stroke:rgb(0,0,0);" rx="1"/>
<text x="107" y="195" style="font-family:sans-serif;font-size:10px;">
]
</text>
<rect x="263.0" y="93.0" width="35.0" height="14.0" style="fill:orange; stroke:rgb(0,0,0);" rx="1"/>
<text x="265" y="102" style="font-family:sans-serif;font-size:10px;">
const
</text>
<rect x="673.625" y="124.0" width="8.0" height="14.0" style="fill:orange; stroke:rgb(0,0,0);" rx="1"/>
<text x="675" y="133" style="font-family:sans-serif;font-size:10px;">
,
</text>
<rect x="724.375" y="124.0" width="8.0" height="14.0" style="fill:orange; stroke:rgb(0,0,0);" rx="1"/>
<text x="726" y="133" style="font-family:sans-serif;font-size:10px;">
,
</text>
<rect x="1124.125" y="217.0" width="11.0" height="14.0" style="fill:orange; stroke:rgb(0,0,0);" rx="1"/>
<text x="1126" y="226" style="font-family:sans-serif;font-size:10px;">
1
</text>
<rect x="0.0" y="93.0" width="35.0" height="14.0" style="fill:orange; stroke:rgb(0,0,0);" rx="1"/>
<text x="2" y="102" style="font-family:sans-serif;font-size:10px;">
const
</text>
<rect x="524.125" y="93.0" width="38.0" height="14.0" style="fill:orange; stroke:rgb(0,0,0);" rx="1"/>
<text x="526" y="102" style="font-family:sans-serif;font-size:10px;">
bType
</text>
<rect x="113.375" y="31.0" width="27.0" height="14.0" style="fill:orange; stroke:rgb(0,0,0);" rx="1"/>
<text x="115" y="40" style="font-family:sans-serif;font-size:10px;">
decl
</text>
<rect x="384.25" y="186.0" width="8.0" height="14.0" style="fill:orange; stroke:rgb(0,0,0);" rx="1"/>
<text x="386" y="195" style="font-family:sans-serif;font-size:10px;">
]
</text>
<rect x="406.125" y="93.0" width="54.0" height="14.0" style="fill:orange; stroke:rgb(0,0,0);" rx="1"/>
<text x="408" y="102" style="font-family:sans-serif;font-size:10px;">
constDef
</text>
<rect x="1050.625" y="186.0" width="48.0" height="14.0" style="fill:orange; stroke:rgb(0,0,0);" rx="1"/>
<text x="1052" y="195" style="font-family:sans-serif;font-size:10px;">
number
</text>
<rect x="199.0" y="155.0" width="48.0" height="14.0" style="fill:orange; stroke:rgb(0,0,0);" rx="1"/>
<text x="201" y="164" style="font-family:sans-serif;font-size:10px;">
number
</text>
<rect x="1105.625" y="186.0" width="48.0" height="14.0" style="fill:orange; stroke:rgb(0,0,0);" rx="1"/>
<text x="1107" y="195" style="font-family:sans-serif;font-size:10px;">
number
</text>
<rect x="614.125" y="217.0" width="8.0" height="14.0" style="fill:orange; stroke:rgb(0,0,0);" rx="1"/>
<text x="616" y="226" style="font-family:sans-serif;font-size:10px;">
]
</text>
<rect x="522.09375" y="0.0" width="57.0" height="14.0" style="fill:orange; stroke:rgb(0,0,0);" rx="1"/>
<text x="524" y="9" style="font-family:sans-serif;font-size:10px;">
compUnit
</text>
<rect x="346.3125" y="62.0" width="59.0" height="14.0" style="fill:orange; stroke:rgb(0,0,0);" rx="1"/>
<text x="348" y="71" style="font-family:sans-serif;font-size:10px;">
constDecl
</text>
<rect x="736.125" y="155.0" width="8.0" height="14.0" style="fill:orange; stroke:rgb(0,0,0);" rx="1"/>
<text x="738" y="164" style="font-family:sans-serif;font-size:10px;">
-
</text>
<rect x="1135.875" y="124.0" width="11.0" height="14.0" style="fill:orange; stroke:rgb(0,0,0);" rx="1"/>
<text x="1137" y="133" style="font-family:sans-serif;font-size:10px;">
}
</text>
<rect x="870.625" y="124.0" width="34.0" height="14.0" style="fill:orange; stroke:rgb(0,0,0);" rx="1"/>
<text x="872" y="133" style="font-family:sans-serif;font-size:10px;">
array
</text>
<rect x="401.0" y="124.0" width="11.0" height="14.0" style="fill:orange; stroke:rgb(0,0,0);" rx="1"/>
<text x="403" y="133" style="font-family:sans-serif;font-size:10px;">
{
</text>
<rect x="919.625" y="310.0" width="31.0" height="14.0" style="fill:orange; stroke:rgb(0,0,0);" rx="1"/>
<text x="921" y="319" style="font-family:sans-serif;font-size:10px;">
0x10
</text>
<rect x="774.5" y="124.0" width="8.0" height="14.0" style="fill:orange; stroke:rgb(0,0,0);" rx="1"/>
<text x="776" y="133" style="font-family:sans-serif;font-size:10px;">
,
</text>
<rect x="559.125" y="124.0" width="34.0" height="14.0" style="fill:orange; stroke:rgb(0,0,0);" rx="1"/>
<text x="561" y="133" style="font-family:sans-serif;font-size:10px;">
array
</text>
<rect x="751.125" y="155.0" width="24.0" height="14.0" style="fill:orange; stroke:rgb(0,0,0);" rx="1"/>
<text x="753" y="164" style="font-family:sans-serif;font-size:10px;">
exp
</text>
<rect x="162.5" y="186.0" width="11.0" height="14.0" style="fill:orange; stroke:rgb(0,0,0);" rx="1"/>
<text x="164" y="195" style="font-family:sans-serif;font-size:10px;">
1
</text>
<rect x="381.0" y="124.0" width="13.0" height="14.0" style="fill:orange; stroke:rgb(0,0,0);" rx="1"/>
<text x="383" y="133" style="font-family:sans-serif;font-size:10px;">
=
</text>
<rect x="266.0" y="124.0" width="24.0" height="14.0" style="fill:orange; stroke:rgb(0,0,0);" rx="1"/>
<text x="268" y="133" style="font-family:sans-serif;font-size:10px;">
exp
</text>
<rect x="272.5" y="186.0" width="11.0" height="14.0" style="fill:orange; stroke:rgb(0,0,0);" rx="1"/>
<text x="274" y="195" style="font-family:sans-serif;font-size:10px;">
3
</text>
<rect x="835.625" y="93.0" width="38.0" height="14.0" style="fill:orange; stroke:rgb(0,0,0);" rx="1"/>
<text x="837" y="102" style="font-family:sans-serif;font-size:10px;">
bType
</text>
<rect x="323.0" y="155.0" width="68.0" height="14.0" style="fill:orange; stroke:rgb(0,0,0);" rx="1"/>
<text x="325" y="164" style="font-family:sans-serif;font-size:10px;">
unobcArray
</text>
<rect x="418.5" y="186.0" width="48.0" height="14.0" style="fill:orange; stroke:rgb(0,0,0);" rx="1"/>
<text x="420" y="195" style="font-family:sans-serif;font-size:10px;">
number
</text>
<rect x="644.625" y="186.0" width="11.0" height="14.0" style="fill:orange; stroke:rgb(0,0,0);" rx="1"/>
<text x="646" y="195" style="font-family:sans-serif;font-size:10px;">
0
</text>
<rect x="911.125" y="279.0" width="48.0" height="14.0" style="fill:orange; stroke:rgb(0,0,0);" rx="1"/>
<text x="913" y="288" style="font-family:sans-serif;font-size:10px;">
number
</text>
<rect x="472.75" y="124.0" width="24.0" height="14.0" style="fill:orange; stroke:rgb(0,0,0);" rx="1"/>
<text x="474" y="133" style="font-family:sans-serif;font-size:10px;">
exp
</text>
<rect x="77.0" y="124.0" width="34.0" height="14.0" style="fill:orange; stroke:rgb(0,0,0);" rx="1"/>
<text x="79" y="133" style="font-family:sans-serif;font-size:10px;">
array
</text>
<rect x="305.0" y="93.0" width="38.0" height="14.0" style="fill:orange; stroke:rgb(0,0,0);" rx="1"/>
<text x="307" y="102" style="font-family:sans-serif;font-size:10px;">
bType
</text>
<rect x="503.75" y="124.0" width="11.0" height="14.0" style="fill:orange; stroke:rgb(0,0,0);" rx="1"/>
<text x="505" y="133" style="font-family:sans-serif;font-size:10px;">
}
</text>
<rect x="90.75" y="186.0" width="8.0" height="14.0" style="fill:orange; stroke:rgb(0,0,0);" rx="1"/>
<text x="92" y="195" style="font-family:sans-serif;font-size:10px;">
[
</text>
<rect x="626.125" y="155.0" width="48.0" height="14.0" style="fill:orange; stroke:rgb(0,0,0);" rx="1"/>
<text x="628" y="164" style="font-family:sans-serif;font-size:10px;">
number
</text>
</svg>