<svg width="2640.0" height="1507.0000000000002" xmlns="http://www.w3.org/2000/svg" xmlns:xlink="http://www.w3.org/1999/xlink"><line x1="250.875" y1="7.0" x2="224.625" y2="31.0" style="stroke:black; stroke-width:1px;" />
<line x1="224.625" y1="38.0" x2="173.625" y2="62.0" style="stroke:black; stroke-width:1px;" />
<line x1="224.625" y1="38.0" x2="208.125" y2="62.0" style="stroke:black; stroke-width:1px;" />
<line x1="224.625" y1="38.0" x2="233.125" y2="62.0" style="stroke:black; stroke-width:1px;" />
<line x1="224.625" y1="38.0" x2="248.125" y2="62.0" style="stroke:black; stroke-width:1px;" />
<line x1="224.625" y1="38.0" x2="275.625" y2="62.0" style="stroke:black; stroke-width:1px;" />
<line x1="275.625" y1="69.0" x2="16.5" y2="93.0" style="stroke:black; stroke-width:1px;" />
<line x1="275.625" y1="69.0" x2="58.0" y2="93.0" style="stroke:black; stroke-width:1px;" />
<line x1="58.0" y1="100.0" x2="58.0" y2="124.0" style="stroke:black; stroke-width:1px;" />
<line x1="58.0" y1="131.0" x2="58.0" y2="155.0" style="stroke:black; stroke-width:1px;" />
<line x1="58.0" y1="162.0" x2="19.0" y2="186.0" style="stroke:black; stroke-width:1px;" />
<line x1="19.0" y1="193.0" x2="19.0" y2="217.0" style="stroke:black; stroke-width:1px;" />
<line x1="58.0" y1="162.0" x2="65.5" y2="186.0" style="stroke:black; stroke-width:1px;" />
<line x1="65.5" y1="193.0" x2="65.5" y2="217.0" style="stroke:black; stroke-width:1px;" />
<line x1="58.0" y1="162.0" x2="97.0" y2="186.0" style="stroke:black; stroke-width:1px;" />
<line x1="275.625" y1="69.0" x2="150.25" y2="93.0" style="stroke:black; stroke-width:1px;" />
<line x1="150.25" y1="100.0" x2="150.25" y2="124.0" style="stroke:black; stroke-width:1px;" />
<line x1="150.25" y1="131.0" x2="113.5" y2="155.0" style="stroke:black; stroke-width:1px;" />
<line x1="113.5" y1="162.0" x2="113.5" y2="186.0" style="stroke:black; stroke-width:1px;" />
<line x1="150.25" y1="131.0" x2="138.5" y2="155.0" style="stroke:black; stroke-width:1px;" />
<line x1="150.25" y1="131.0" x2="164.0" y2="155.0" style="stroke:black; stroke-width:1px;" />
<line x1="164.0" y1="162.0" x2="164.0" y2="186.0" style="stroke:black; stroke-width:1px;" />
<line x1="164.0" y1="193.0" x2="164.0" y2="217.0" style="stroke:black; stroke-width:1px;" />
<line x1="150.25" y1="131.0" x2="187.0" y2="155.0" style="stroke:black; stroke-width:1px;" />
<line x1="275.625" y1="69.0" x2="290.875" y2="93.0" style="stroke:black; stroke-width:1px;" />
<line x1="290.875" y1="100.0" x2="290.875" y2="124.0" style="stroke:black; stroke-width:1px;" />
<line x1="290.875" y1="131.0" x2="214.5" y2="155.0" style="stroke:black; stroke-width:1px;" />
<line x1="290.875" y1="131.0" x2="242.0" y2="155.0" style="stroke:black; stroke-width:1px;" />
<line x1="290.875" y1="131.0" x2="268.5" y2="155.0" style="stroke:black; stroke-width:1px;" />
<line x1="268.5" y1="162.0" x2="243.0" y2="186.0" style="stroke:black; stroke-width:1px;" />
<line x1="243.0" y1="193.0" x2="243.0" y2="217.0" style="stroke:black; stroke-width:1px;" />
<line x1="243.0" y1="224.0" x2="243.0" y2="248.0" style="stroke:black; stroke-width:1px;" />
<line x1="268.5" y1="162.0" x2="268.5" y2="186.0" style="stroke:black; stroke-width:1px;" />
<line x1="268.5" y1="162.0" x2="294.0" y2="186.0" style="stroke:black; stroke-width:1px;" />
<line x1="294.0" y1="193.0" x2="294.0" y2="217.0" style="stroke:black; stroke-width:1px;" />
<line x1="294.0" y1="224.0" x2="294.0" y2="248.0" style="stroke:black; stroke-width:1px;" />
<line x1="290.875" y1="131.0" x2="318.125" y2="155.0" style="stroke:black; stroke-width:1px;" />
<line x1="290.875" y1="131.0" x2="367.25" y2="155.0" style="stroke:black; stroke-width:1px;" />
<line x1="367.25" y1="162.0" x2="330.5" y2="186.0" style="stroke:black; stroke-width:1px;" />
<line x1="330.5" y1="193.0" x2="330.5" y2="217.0" style="stroke:black; stroke-width:1px;" />
<line x1="367.25" y1="162.0" x2="355.5" y2="186.0" style="stroke:black; stroke-width:1px;" />
<line x1="367.25" y1="162.0" x2="381.0" y2="186.0" style="stroke:black; stroke-width:1px;" />
<line x1="381.0" y1="193.0" x2="355.5" y2="217.0" style="stroke:black; stroke-width:1px;" />
<line x1="355.5" y1="224.0" x2="355.5" y2="248.0" style="stroke:black; stroke-width:1px;" />
<line x1="355.5" y1="255.0" x2="355.5" y2="279.0" style="stroke:black; stroke-width:1px;" />
<line x1="381.0" y1="193.0" x2="381.0" y2="217.0" style="stroke:black; stroke-width:1px;" />
<line x1="381.0" y1="193.0" x2="406.5" y2="217.0" style="stroke:black; stroke-width:1px;" />
<line x1="406.5" y1="224.0" x2="406.5" y2="248.0" style="stroke:black; stroke-width:1px;" />
<line x1="406.5" y1="255.0" x2="406.5" y2="279.0" style="stroke:black; stroke-width:1px;" />
<line x1="367.25" y1="162.0" x2="404.0" y2="186.0" style="stroke:black; stroke-width:1px;" />
<line x1="275.625" y1="69.0" x2="493.25" y2="93.0" style="stroke:black; stroke-width:1px;" />
<line x1="493.25" y1="100.0" x2="493.25" y2="124.0" style="stroke:black; stroke-width:1px;" />
<line x1="493.25" y1="131.0" x2="414.5" y2="155.0" style="stroke:black; stroke-width:1px;" />
<line x1="493.25" y1="131.0" x2="442.0" y2="155.0" style="stroke:black; stroke-width:1px;" />
<line x1="493.25" y1="131.0" x2="468.5" y2="155.0" style="stroke:black; stroke-width:1px;" />
<line x1="468.5" y1="162.0" x2="443.0" y2="186.0" style="stroke:black; stroke-width:1px;" />
<line x1="443.0" y1="193.0" x2="443.0" y2="217.0" style="stroke:black; stroke-width:1px;" />
<line x1="443.0" y1="224.0" x2="443.0" y2="248.0" style="stroke:black; stroke-width:1px;" />
<line x1="468.5" y1="162.0" x2="468.5" y2="186.0" style="stroke:black; stroke-width:1px;" />
<line x1="468.5" y1="162.0" x2="494.0" y2="186.0" style="stroke:black; stroke-width:1px;" />
<line x1="494.0" y1="193.0" x2="494.0" y2="217.0" style="stroke:black; stroke-width:1px;" />
<line x1="494.0" y1="224.0" x2="494.0" y2="248.0" style="stroke:black; stroke-width:1px;" />
<line x1="493.25" y1="131.0" x2="520.5" y2="155.0" style="stroke:black; stroke-width:1px;" />
<line x1="493.25" y1="131.0" x2="572.0" y2="155.0" style="stroke:black; stroke-width:1px;" />
<line x1="572.0" y1="162.0" x2="572.0" y2="186.0" style="stroke:black; stroke-width:1px;" />
<line x1="572.0" y1="193.0" x2="530.5" y2="217.0" style="stroke:black; stroke-width:1px;" />
<line x1="572.0" y1="193.0" x2="572.0" y2="217.0" style="stroke:black; stroke-width:1px;" />
<line x1="572.0" y1="224.0" x2="572.0" y2="248.0" style="stroke:black; stroke-width:1px;" />
<line x1="572.0" y1="255.0" x2="535.25" y2="279.0" style="stroke:black; stroke-width:1px;" />
<line x1="535.25" y1="286.0" x2="535.25" y2="310.0" style="stroke:black; stroke-width:1px;" />
<line x1="572.0" y1="255.0" x2="560.25" y2="279.0" style="stroke:black; stroke-width:1px;" />
<line x1="572.0" y1="255.0" x2="585.75" y2="279.0" style="stroke:black; stroke-width:1px;" />
<line x1="585.75" y1="286.0" x2="562.75" y2="310.0" style="stroke:black; stroke-width:1px;" />
<line x1="562.75" y1="317.0" x2="562.75" y2="341.0" style="stroke:black; stroke-width:1px;" />
<line x1="562.75" y1="348.0" x2="562.75" y2="372.0" style="stroke:black; stroke-width:1px;" />
<line x1="585.75" y1="286.0" x2="585.75" y2="310.0" style="stroke:black; stroke-width:1px;" />
<line x1="585.75" y1="286.0" x2="608.75" y2="310.0" style="stroke:black; stroke-width:1px;" />
<line x1="608.75" y1="317.0" x2="608.75" y2="341.0" style="stroke:black; stroke-width:1px;" />
<line x1="608.75" y1="348.0" x2="608.75" y2="372.0" style="stroke:black; stroke-width:1px;" />
<line x1="572.0" y1="255.0" x2="608.75" y2="279.0" style="stroke:black; stroke-width:1px;" />
<line x1="572.0" y1="193.0" x2="613.5" y2="217.0" style="stroke:black; stroke-width:1px;" />
<line x1="275.625" y1="69.0" x2="534.75" y2="93.0" style="stroke:black; stroke-width:1px;" />
<line x1="250.875" y1="7.0" x2="277.125" y2="31.0" style="stroke:black; stroke-width:1px;" />
<rect x="344.0" y="248.0" width="23.0" height="14.0" style="fill:orange; stroke:rgb(0,0,0);" rx="1"/>
<text x="346" y="257" style="font-family:sans-serif;font-size:10px;">
lval
</text>
<rect x="550.75" y="310.0" width="24.0" height="14.0" style="fill:orange; stroke:rgb(0,0,0);" rx="1"/>
<text x="552" y="319" style="font-family:sans-serif;font-size:10px;">
exp
</text>
<rect x="557.0" y="155.0" width="30.0" height="14.0" style="fill:orange; stroke:rgb(0,0,0);" rx="1"/>
<text x="559" y="164" style="font-family:sans-serif;font-size:10px;">
stmt
</text>
<rect x="35.0" y="155.0" width="46.0" height="14.0" style="fill:orange; stroke:rgb(0,0,0);" rx="1"/>
<text x="37" y="164" style="font-family:sans-serif;font-size:10px;">
varDecl
</text>
<rect x="401.0" y="279.0" width="11.0" height="14.0" style="fill:orange; stroke:rgb(0,0,0);" rx="1"/>
<text x="403" y="288" style="font-family:sans-serif;font-size:10px;">
1
</text>
<rect x="222.375" y="0.0" width="57.0" height="14.0" style="fill:orange; stroke:rgb(0,0,0);" rx="1"/>
<text x="224" y="9" style="font-family:sans-serif;font-size:10px;">
compUnit
</text>
<rect x="198.0" y="155.0" width="33.0" height="14.0" style="fill:orange; stroke:rgb(0,0,0);" rx="1"/>
<text x="200" y="164" style="font-family:sans-serif;font-size:10px;">
while
</text>
<rect x="278.5" y="248.0" width="31.0" height="14.0" style="fill:orange; stroke:rgb(0,0,0);" rx="1"/>
<text x="280" y="257" style="font-family:sans-serif;font-size:10px;">
0x30
</text>
<rect x="525.0" y="217.0" width="11.0" height="14.0" style="fill:orange; stroke:rgb(0,0,0);" rx="1"/>
<text x="527" y="226" style="font-family:sans-serif;font-size:10px;">
{
</text>
<rect x="523.75" y="279.0" width="23.0" height="14.0" style="fill:orange; stroke:rgb(0,0,0);" rx="1"/>
<text x="525" y="288" style="font-family:sans-serif;font-size:10px;">
lval
</text>
<rect x="557.25" y="372.0" width="11.0" height="14.0" style="fill:orange; stroke:rgb(0,0,0);" rx="1"/>
<text x="559" y="381" style="font-family:sans-serif;font-size:10px;">
a
</text>
<rect x="438.0" y="155.0" width="8.0" height="14.0" style="fill:orange; stroke:rgb(0,0,0);" rx="1"/>
<text x="440" y="164" style="font-family:sans-serif;font-size:10px;">
(
</text>
<rect x="259.125" y="62.0" width="33.0" height="14.0" style="fill:orange; stroke:rgb(0,0,0);" rx="1"/>
<text x="261" y="71" style="font-family:sans-serif;font-size:10px;">
block
</text>
<rect x="343.5" y="217.0" width="24.0" height="14.0" style="fill:orange; stroke:rgb(0,0,0);" rx="1"/>
<text x="345" y="226" style="font-family:sans-serif;font-size:10px;">
exp
</text>
<rect x="555.5" y="186.0" width="33.0" height="14.0" style="fill:orange; stroke:rgb(0,0,0);" rx="1"/>
<text x="557" y="195" style="font-family:sans-serif;font-size:10px;">
block
</text>
<rect x="152.0" y="155.0" width="24.0" height="14.0" style="fill:orange; stroke:rgb(0,0,0);" rx="1"/>
<text x="154" y="164" style="font-family:sans-serif;font-size:10px;">
exp
</text>
<rect x="382.5" y="248.0" width="48.0" height="14.0" style="fill:orange; stroke:rgb(0,0,0);" rx="1"/>
<text x="384" y="257" style="font-family:sans-serif;font-size:10px;">
number
</text>
<rect x="93.0" y="186.0" width="8.0" height="14.0" style="fill:orange; stroke:rgb(0,0,0);" rx="1"/>
<text x="95" y="195" style="font-family:sans-serif;font-size:10px;">
;
</text>
<rect x="183.0" y="155.0" width="8.0" height="14.0" style="fill:orange; stroke:rgb(0,0,0);" rx="1"/>
<text x="185" y="164" style="font-family:sans-serif;font-size:10px;">
;
</text>
<rect x="478.25" y="124.0" width="30.0" height="14.0" style="fill:orange; stroke:rgb(0,0,0);" rx="1"/>
<text x="480" y="133" style="font-family:sans-serif;font-size:10px;">
stmt
</text>
<rect x="516.5" y="155.0" width="8.0" height="14.0" style="fill:orange; stroke:rgb(0,0,0);" rx="1"/>
<text x="518" y="164" style="font-family:sans-serif;font-size:10px;">
)
</text>
<rect x="529.75" y="310.0" width="11.0" height="14.0" style="fill:orange; stroke:rgb(0,0,0);" rx="1"/>
<text x="531" y="319" style="font-family:sans-serif;font-size:10px;">
a
</text>
<rect x="155.0" y="217.0" width="18.0" height="14.0" style="fill:orange; stroke:rgb(0,0,0);" rx="1"/>
<text x="157" y="226" style="font-family:sans-serif;font-size:10px;">
24
</text>
<rect x="462.0" y="186.0" width="13.0" height="14.0" style="fill:orange; stroke:rgb(0,0,0);" rx="1"/>
<text x="464" y="195" style="font-family:sans-serif;font-size:10px;">
&gt;
</text>
<rect x="244.125" y="62.0" width="8.0" height="14.0" style="fill:orange; stroke:rgb(0,0,0);" rx="1"/>
<text x="246" y="71" style="font-family:sans-serif;font-size:10px;">
)
</text>
<rect x="140.0" y="186.0" width="48.0" height="14.0" style="fill:orange; stroke:rgb(0,0,0);" rx="1"/>
<text x="142" y="195" style="font-family:sans-serif;font-size:10px;">
number
</text>
<rect x="270.0" y="217.0" width="48.0" height="14.0" style="fill:orange; stroke:rgb(0,0,0);" rx="1"/>
<text x="272" y="226" style="font-family:sans-serif;font-size:10px;">
number
</text>
<rect x="0.0" y="186.0" width="38.0" height="14.0" style="fill:orange; stroke:rgb(0,0,0);" rx="1"/>
<text x="2" y="195" style="font-family:sans-serif;font-size:10px;">
bType
</text>
<rect x="349.0" y="186.0" width="13.0" height="14.0" style="fill:orange; stroke:rgb(0,0,0);" rx="1"/>
<text x="351" y="195" style="font-family:sans-serif;font-size:10px;">
=
</text>
<rect x="584.75" y="341.0" width="48.0" height="14.0" style="fill:orange; stroke:rgb(0,0,0);" rx="1"/>
<text x="586" y="350" style="font-family:sans-serif;font-size:10px;">
number
</text>
<rect x="45.0" y="186.0" width="41.0" height="14.0" style="fill:orange; stroke:rgb(0,0,0);" rx="1"/>
<text x="47" y="195" style="font-family:sans-serif;font-size:10px;">
varDef
</text>
<rect x="108.0" y="186.0" width="11.0" height="14.0" style="fill:orange; stroke:rgb(0,0,0);" rx="1"/>
<text x="110" y="195" style="font-family:sans-serif;font-size:10px;">
a
</text>
<rect x="255.125" y="31.0" width="44.0" height="14.0" style="fill:orange; stroke:rgb(0,0,0);" rx="1"/>
<text x="257" y="40" style="font-family:sans-serif;font-size:10px;">
&lt;EOF&gt;
</text>
<rect x="29.0" y="93.0" width="58.0" height="14.0" style="fill:orange; stroke:rgb(0,0,0);" rx="1"/>
<text x="31" y="102" style="font-family:sans-serif;font-size:10px;">
blockItem
</text>
<rect x="453.0" y="155.0" width="31.0" height="14.0" style="fill:orange; stroke:rgb(0,0,0);" rx="1"/>
<text x="455" y="164" style="font-family:sans-serif;font-size:10px;">
cond
</text>
<rect x="553.75" y="279.0" width="13.0" height="14.0" style="fill:orange; stroke:rgb(0,0,0);" rx="1"/>
<text x="555" y="288" style="font-family:sans-serif;font-size:10px;">
=
</text>
<rect x="44.5" y="124.0" width="27.0" height="14.0" style="fill:orange; stroke:rgb(0,0,0);" rx="1"/>
<text x="46" y="133" style="font-family:sans-serif;font-size:10px;">
decl
</text>
<rect x="369.0" y="186.0" width="24.0" height="14.0" style="fill:orange; stroke:rgb(0,0,0);" rx="1"/>
<text x="371" y="195" style="font-family:sans-serif;font-size:10px;">
exp
</text>
<rect x="11.0" y="93.0" width="11.0" height="14.0" style="fill:orange; stroke:rgb(0,0,0);" rx="1"/>
<text x="13" y="102" style="font-family:sans-serif;font-size:10px;">
{
</text>
<rect x="135.25" y="124.0" width="30.0" height="14.0" style="fill:orange; stroke:rgb(0,0,0);" rx="1"/>
<text x="137" y="133" style="font-family:sans-serif;font-size:10px;">
stmt
</text>
<rect x="319.0" y="186.0" width="23.0" height="14.0" style="fill:orange; stroke:rgb(0,0,0);" rx="1"/>
<text x="321" y="195" style="font-family:sans-serif;font-size:10px;">
lval
</text>
<rect x="231.5" y="217.0" width="23.0" height="14.0" style="fill:orange; stroke:rgb(0,0,0);" rx="1"/>
<text x="233" y="226" style="font-family:sans-serif;font-size:10px;">
lval
</text>
<rect x="275.875" y="124.0" width="30.0" height="14.0" style="fill:orange; stroke:rgb(0,0,0);" rx="1"/>
<text x="277" y="133" style="font-family:sans-serif;font-size:10px;">
stmt
</text>
<rect x="237.5" y="248.0" width="11.0" height="14.0" style="fill:orange; stroke:rgb(0,0,0);" rx="1"/>
<text x="239" y="257" style="font-family:sans-serif;font-size:10px;">
a
</text>
<rect x="350.0" y="279.0" width="11.0" height="14.0" style="fill:orange; stroke:rgb(0,0,0);" rx="1"/>
<text x="352" y="288" style="font-family:sans-serif;font-size:10px;">
a
</text>
<rect x="253.0" y="155.0" width="31.0" height="14.0" style="fill:orange; stroke:rgb(0,0,0);" rx="1"/>
<text x="255" y="164" style="font-family:sans-serif;font-size:10px;">
cond
</text>
<rect x="400.0" y="186.0" width="8.0" height="14.0" style="fill:orange; stroke:rgb(0,0,0);" rx="1"/>
<text x="402" y="195" style="font-family:sans-serif;font-size:10px;">
;
</text>
<rect x="394.5" y="217.0" width="24.0" height="14.0" style="fill:orange; stroke:rgb(0,0,0);" rx="1"/>
<text x="396" y="226" style="font-family:sans-serif;font-size:10px;">
exp
</text>
<rect x="596.75" y="310.0" width="24.0" height="14.0" style="fill:orange; stroke:rgb(0,0,0);" rx="1"/>
<text x="598" y="319" style="font-family:sans-serif;font-size:10px;">
exp
</text>
<rect x="262.0" y="186.0" width="13.0" height="14.0" style="fill:orange; stroke:rgb(0,0,0);" rx="1"/>
<text x="264" y="195" style="font-family:sans-serif;font-size:10px;">
&lt;
</text>
<rect x="282.0" y="186.0" width="24.0" height="14.0" style="fill:orange; stroke:rgb(0,0,0);" rx="1"/>
<text x="284" y="195" style="font-family:sans-serif;font-size:10px;">
exp
</text>
<rect x="437.5" y="248.0" width="11.0" height="14.0" style="fill:orange; stroke:rgb(0,0,0);" rx="1"/>
<text x="439" y="257" style="font-family:sans-serif;font-size:10px;">
a
</text>
<rect x="529.25" y="93.0" width="11.0" height="14.0" style="fill:orange; stroke:rgb(0,0,0);" rx="1"/>
<text x="531" y="102" style="font-family:sans-serif;font-size:10px;">
}
</text>
<rect x="431.0" y="186.0" width="24.0" height="14.0" style="fill:orange; stroke:rgb(0,0,0);" rx="1"/>
<text x="433" y="195" style="font-family:sans-serif;font-size:10px;">
exp
</text>
<rect x="398.0" y="155.0" width="33.0" height="14.0" style="fill:orange; stroke:rgb(0,0,0);" rx="1"/>
<text x="400" y="164" style="font-family:sans-serif;font-size:10px;">
while
</text>
<rect x="551.25" y="341.0" width="23.0" height="14.0" style="fill:orange; stroke:rgb(0,0,0);" rx="1"/>
<text x="553" y="350" style="font-family:sans-serif;font-size:10px;">
lval
</text>
<rect x="431.5" y="217.0" width="23.0" height="14.0" style="fill:orange; stroke:rgb(0,0,0);" rx="1"/>
<text x="433" y="226" style="font-family:sans-serif;font-size:10px;">
lval
</text>
<rect x="573.75" y="279.0" width="24.0" height="14.0" style="fill:orange; stroke:rgb(0,0,0);" rx="1"/>
<text x="575" y="288" style="font-family:sans-serif;font-size:10px;">
exp
</text>
<rect x="581.75" y="310.0" width="8.0" height="14.0" style="fill:orange; stroke:rgb(0,0,0);" rx="1"/>
<text x="583" y="319" style="font-family:sans-serif;font-size:10px;">
/
</text>
<rect x="352.25" y="155.0" width="30.0" height="14.0" style="fill:orange; stroke:rgb(0,0,0);" rx="1"/>
<text x="354" y="164" style="font-family:sans-serif;font-size:10px;">
stmt
</text>
<rect x="374.5" y="217.0" width="13.0" height="14.0" style="fill:orange; stroke:rgb(0,0,0);" rx="1"/>
<text x="376" y="226" style="font-family:sans-serif;font-size:10px;">
+
</text>
<rect x="543.0" y="217.0" width="58.0" height="14.0" style="fill:orange; stroke:rgb(0,0,0);" rx="1"/>
<text x="545" y="226" style="font-family:sans-serif;font-size:10px;">
blockItem
</text>
<rect x="603.25" y="372.0" width="11.0" height="14.0" style="fill:orange; stroke:rgb(0,0,0);" rx="1"/>
<text x="605" y="381" style="font-family:sans-serif;font-size:10px;">
2
</text>
<rect x="229.125" y="62.0" width="8.0" height="14.0" style="fill:orange; stroke:rgb(0,0,0);" rx="1"/>
<text x="231" y="71" style="font-family:sans-serif;font-size:10px;">
(
</text>
<rect x="261.875" y="93.0" width="58.0" height="14.0" style="fill:orange; stroke:rgb(0,0,0);" rx="1"/>
<text x="263" y="102" style="font-family:sans-serif;font-size:10px;">
blockItem
</text>
<rect x="464.25" y="93.0" width="58.0" height="14.0" style="fill:orange; stroke:rgb(0,0,0);" rx="1"/>
<text x="466" y="102" style="font-family:sans-serif;font-size:10px;">
blockItem
</text>
<rect x="10.0" y="217.0" width="18.0" height="14.0" style="fill:orange; stroke:rgb(0,0,0);" rx="1"/>
<text x="12" y="226" style="font-family:sans-serif;font-size:10px;">
int
</text>
<rect x="201.125" y="31.0" width="47.0" height="14.0" style="fill:orange; stroke:rgb(0,0,0);" rx="1"/>
<text x="203" y="40" style="font-family:sans-serif;font-size:10px;">
funcDef
</text>
<rect x="60.0" y="217.0" width="11.0" height="14.0" style="fill:orange; stroke:rgb(0,0,0);" rx="1"/>
<text x="62" y="226" style="font-family:sans-serif;font-size:10px;">
a
</text>
<rect x="194.125" y="62.0" width="28.0" height="14.0" style="fill:orange; stroke:rgb(0,0,0);" rx="1"/>
<text x="196" y="71" style="font-family:sans-serif;font-size:10px;">
func
</text>
<rect x="121.25" y="93.0" width="58.0" height="14.0" style="fill:orange; stroke:rgb(0,0,0);" rx="1"/>
<text x="123" y="102" style="font-family:sans-serif;font-size:10px;">
blockItem
</text>
<rect x="238.0" y="155.0" width="8.0" height="14.0" style="fill:orange; stroke:rgb(0,0,0);" rx="1"/>
<text x="240" y="164" style="font-family:sans-serif;font-size:10px;">
(
</text>
<rect x="485.0" y="248.0" width="18.0" height="14.0" style="fill:orange; stroke:rgb(0,0,0);" rx="1"/>
<text x="487" y="257" style="font-family:sans-serif;font-size:10px;">
10
</text>
<rect x="608.0" y="217.0" width="11.0" height="14.0" style="fill:orange; stroke:rgb(0,0,0);" rx="1"/>
<text x="610" y="226" style="font-family:sans-serif;font-size:10px;">
}
</text>
<rect x="314.125" y="155.0" width="8.0" height="14.0" style="fill:orange; stroke:rgb(0,0,0);" rx="1"/>
<text x="316" y="164" style="font-family:sans-serif;font-size:10px;">
)
</text>
<rect x="132.0" y="155.0" width="13.0" height="14.0" style="fill:orange; stroke:rgb(0,0,0);" rx="1"/>
<text x="134" y="164" style="font-family:sans-serif;font-size:10px;">
=
</text>
<rect x="482.0" y="186.0" width="24.0" height="14.0" style="fill:orange; stroke:rgb(0,0,0);" rx="1"/>
<text x="484" y="195" style="font-family:sans-serif;font-size:10px;">
exp
</text>
<rect x="604.75" y="279.0" width="8.0" height="14.0" style="fill:orange; stroke:rgb(0,0,0);" rx="1"/>
<text x="606" y="288" style="font-family:sans-serif;font-size:10px;">
;
</text>
<rect x="231.0" y="186.0" width="24.0" height="14.0" style="fill:orange; stroke:rgb(0,0,0);" rx="1"/>
<text x="233" y="195" style="font-family:sans-serif;font-size:10px;">
exp
</text>
<rect x="102.0" y="155.0" width="23.0" height="14.0" style="fill:orange; stroke:rgb(0,0,0);" rx="1"/>
<text x="104" y="164" style="font-family:sans-serif;font-size:10px;">
lval
</text>
<rect x="325.0" y="217.0" width="11.0" height="14.0" style="fill:orange; stroke:rgb(0,0,0);" rx="1"/>
<text x="327" y="226" style="font-family:sans-serif;font-size:10px;">
a
</text>
<rect x="557.0" y="248.0" width="30.0" height="14.0" style="fill:orange; stroke:rgb(0,0,0);" rx="1"/>
<text x="559" y="257" style="font-family:sans-serif;font-size:10px;">
stmt
</text>
<rect x="160.125" y="62.0" width="27.0" height="14.0" style="fill:orange; stroke:rgb(0,0,0);" rx="1"/>
<text x="162" y="71" style="font-family:sans-serif;font-size:10px;">
void
</text>
<rect x="470.0" y="217.0" width="48.0" height="14.0" style="fill:orange; stroke:rgb(0,0,0);" rx="1"/>
<text x="472" y="226" style="font-family:sans-serif;font-size:10px;">
number
</text>
</svg>