<svg width="2640.0" height="1507.0000000000002" xmlns="http://www.w3.org/2000/svg" xmlns:xlink="http://www.w3.org/1999/xlink"><line x1="178.5" y1="7.0" x2="63.5" y2="31.0" style="stroke:black; stroke-width:1px;" />
<line x1="63.5" y1="38.0" x2="13.5" y2="62.0" style="stroke:black; stroke-width:1px;" />
<line x1="63.5" y1="38.0" x2="47.0" y2="62.0" style="stroke:black; stroke-width:1px;" />
<line x1="63.5" y1="38.0" x2="71.0" y2="62.0" style="stroke:black; stroke-width:1px;" />
<line x1="63.5" y1="38.0" x2="86.0" y2="62.0" style="stroke:black; stroke-width:1px;" />
<line x1="63.5" y1="38.0" x2="113.5" y2="62.0" style="stroke:black; stroke-width:1px;" />
<line x1="113.5" y1="69.0" x2="72.0" y2="93.0" style="stroke:black; stroke-width:1px;" />
<line x1="113.5" y1="69.0" x2="113.5" y2="93.0" style="stroke:black; stroke-width:1px;" />
<line x1="113.5" y1="100.0" x2="113.5" y2="124.0" style="stroke:black; stroke-width:1px;" />
<line x1="113.5" y1="131.0" x2="113.5" y2="155.0" style="stroke:black; stroke-width:1px;" />
<line x1="113.5" y1="162.0" x2="72.0" y2="186.0" style="stroke:black; stroke-width:1px;" />
<line x1="113.5" y1="162.0" x2="113.5" y2="186.0" style="stroke:black; stroke-width:1px;" />
<line x1="113.5" y1="193.0" x2="113.5" y2="217.0" style="stroke:black; stroke-width:1px;" />
<line x1="113.5" y1="224.0" x2="113.5" y2="248.0" style="stroke:black; stroke-width:1px;" />
<line x1="113.5" y1="255.0" x2="104.5" y2="279.0" style="stroke:black; stroke-width:1px;" />
<line x1="113.5" y1="255.0" x2="122.5" y2="279.0" style="stroke:black; stroke-width:1px;" />
<line x1="113.5" y1="162.0" x2="155.0" y2="186.0" style="stroke:black; stroke-width:1px;" />
<line x1="113.5" y1="69.0" x2="155.0" y2="93.0" style="stroke:black; stroke-width:1px;" />
<line x1="178.5" y1="7.0" x2="241.0" y2="31.0" style="stroke:black; stroke-width:1px;" />
<line x1="241.0" y1="38.0" x2="190.0" y2="62.0" style="stroke:black; stroke-width:1px;" />
<line x1="241.0" y1="38.0" x2="224.5" y2="62.0" style="stroke:black; stroke-width:1px;" />
<line x1="241.0" y1="38.0" x2="249.5" y2="62.0" style="stroke:black; stroke-width:1px;" />
<line x1="241.0" y1="38.0" x2="264.5" y2="62.0" style="stroke:black; stroke-width:1px;" />
<line x1="241.0" y1="38.0" x2="292.0" y2="62.0" style="stroke:black; stroke-width:1px;" />
<line x1="292.0" y1="69.0" x2="215.5" y2="93.0" style="stroke:black; stroke-width:1px;" />
<line x1="292.0" y1="69.0" x2="257.0" y2="93.0" style="stroke:black; stroke-width:1px;" />
<line x1="257.0" y1="100.0" x2="257.0" y2="124.0" style="stroke:black; stroke-width:1px;" />
<line x1="257.0" y1="131.0" x2="257.0" y2="155.0" style="stroke:black; stroke-width:1px;" />
<line x1="257.0" y1="162.0" x2="186.5" y2="186.0" style="stroke:black; stroke-width:1px;" />
<line x1="186.5" y1="193.0" x2="186.5" y2="217.0" style="stroke:black; stroke-width:1px;" />
<line x1="257.0" y1="162.0" x2="233.0" y2="186.0" style="stroke:black; stroke-width:1px;" />
<line x1="233.0" y1="193.0" x2="233.0" y2="217.0" style="stroke:black; stroke-width:1px;" />
<line x1="257.0" y1="162.0" x2="264.5" y2="186.0" style="stroke:black; stroke-width:1px;" />
<line x1="257.0" y1="162.0" x2="296.0" y2="186.0" style="stroke:black; stroke-width:1px;" />
<line x1="296.0" y1="193.0" x2="296.0" y2="217.0" style="stroke:black; stroke-width:1px;" />
<line x1="257.0" y1="162.0" x2="327.5" y2="186.0" style="stroke:black; stroke-width:1px;" />
<line x1="292.0" y1="69.0" x2="327.0" y2="93.0" style="stroke:black; stroke-width:1px;" />
<line x1="327.0" y1="100.0" x2="327.0" y2="124.0" style="stroke:black; stroke-width:1px;" />
<line x1="327.0" y1="131.0" x2="300.0" y2="155.0" style="stroke:black; stroke-width:1px;" />
<line x1="327.0" y1="131.0" x2="324.0" y2="155.0" style="stroke:black; stroke-width:1px;" />
<line x1="327.0" y1="131.0" x2="339.0" y2="155.0" style="stroke:black; stroke-width:1px;" />
<line x1="327.0" y1="131.0" x2="354.0" y2="155.0" style="stroke:black; stroke-width:1px;" />
<line x1="292.0" y1="69.0" x2="368.5" y2="93.0" style="stroke:black; stroke-width:1px;" />
<line x1="178.5" y1="7.0" x2="293.5" y2="31.0" style="stroke:black; stroke-width:1px;" />
<rect x="67.0" y="62.0" width="8.0" height="14.0" style="fill:orange; stroke:rgb(0,0,0);" rx="1"/>
<text x="69" y="71" style="font-family:sans-serif;font-size:10px;">
(
</text>
<rect x="245.5" y="62.0" width="8.0" height="14.0" style="fill:orange; stroke:rgb(0,0,0);" rx="1"/>
<text x="247" y="71" style="font-family:sans-serif;font-size:10px;">
(
</text>
<rect x="217.5" y="31.0" width="47.0" height="14.0" style="fill:orange; stroke:rgb(0,0,0);" rx="1"/>
<text x="219" y="40" style="font-family:sans-serif;font-size:10px;">
funcDef
</text>
<rect x="335.0" y="155.0" width="8.0" height="14.0" style="fill:orange; stroke:rgb(0,0,0);" rx="1"/>
<text x="337" y="164" style="font-family:sans-serif;font-size:10px;">
)
</text>
<rect x="149.5" y="186.0" width="11.0" height="14.0" style="fill:orange; stroke:rgb(0,0,0);" rx="1"/>
<text x="151" y="195" style="font-family:sans-serif;font-size:10px;">
}
</text>
<rect x="323.5" y="186.0" width="8.0" height="14.0" style="fill:orange; stroke:rgb(0,0,0);" rx="1"/>
<text x="325" y="195" style="font-family:sans-serif;font-size:10px;">
;
</text>
<rect x="210.5" y="62.0" width="28.0" height="14.0" style="fill:orange; stroke:rgb(0,0,0);" rx="1"/>
<text x="212" y="71" style="font-family:sans-serif;font-size:10px;">
func
</text>
<rect x="234.0" y="155.0" width="46.0" height="14.0" style="fill:orange; stroke:rgb(0,0,0);" rx="1"/>
<text x="236" y="164" style="font-family:sans-serif;font-size:10px;">
varDecl
</text>
<rect x="291.0" y="217.0" width="10.0" height="14.0" style="fill:orange; stroke:rgb(0,0,0);" rx="1"/>
<text x="293" y="226" style="font-family:sans-serif;font-size:10px;">
y
</text>
<rect x="66.5" y="186.0" width="11.0" height="14.0" style="fill:orange; stroke:rgb(0,0,0);" rx="1"/>
<text x="68" y="195" style="font-family:sans-serif;font-size:10px;">
{
</text>
<rect x="275.5" y="186.0" width="41.0" height="14.0" style="fill:orange; stroke:rgb(0,0,0);" rx="1"/>
<text x="277" y="195" style="font-family:sans-serif;font-size:10px;">
varDef
</text>
<rect x="271.5" y="31.0" width="44.0" height="14.0" style="fill:orange; stroke:rgb(0,0,0);" rx="1"/>
<text x="273" y="40" style="font-family:sans-serif;font-size:10px;">
&lt;EOF&gt;
</text>
<rect x="97.0" y="62.0" width="33.0" height="14.0" style="fill:orange; stroke:rgb(0,0,0);" rx="1"/>
<text x="99" y="71" style="font-family:sans-serif;font-size:10px;">
block
</text>
<rect x="84.5" y="93.0" width="58.0" height="14.0" style="fill:orange; stroke:rgb(0,0,0);" rx="1"/>
<text x="86" y="102" style="font-family:sans-serif;font-size:10px;">
blockItem
</text>
<rect x="176.5" y="62.0" width="27.0" height="14.0" style="fill:orange; stroke:rgb(0,0,0);" rx="1"/>
<text x="178" y="71" style="font-family:sans-serif;font-size:10px;">
void
</text>
<rect x="228.0" y="217.0" width="10.0" height="14.0" style="fill:orange; stroke:rgb(0,0,0);" rx="1"/>
<text x="230" y="226" style="font-family:sans-serif;font-size:10px;">
x
</text>
<rect x="167.5" y="186.0" width="38.0" height="14.0" style="fill:orange; stroke:rgb(0,0,0);" rx="1"/>
<text x="169" y="195" style="font-family:sans-serif;font-size:10px;">
bType
</text>
<rect x="66.5" y="93.0" width="11.0" height="14.0" style="fill:orange; stroke:rgb(0,0,0);" rx="1"/>
<text x="68" y="102" style="font-family:sans-serif;font-size:10px;">
{
</text>
<rect x="99.0" y="279.0" width="11.0" height="14.0" style="fill:orange; stroke:rgb(0,0,0);" rx="1"/>
<text x="101" y="288" style="font-family:sans-serif;font-size:10px;">
{
</text>
<rect x="260.5" y="62.0" width="8.0" height="14.0" style="fill:orange; stroke:rgb(0,0,0);" rx="1"/>
<text x="262" y="71" style="font-family:sans-serif;font-size:10px;">
)
</text>
<rect x="177.5" y="217.0" width="18.0" height="14.0" style="fill:orange; stroke:rgb(0,0,0);" rx="1"/>
<text x="179" y="226" style="font-family:sans-serif;font-size:10px;">
int
</text>
<rect x="82.0" y="62.0" width="8.0" height="14.0" style="fill:orange; stroke:rgb(0,0,0);" rx="1"/>
<text x="84" y="71" style="font-family:sans-serif;font-size:10px;">
)
</text>
<rect x="243.5" y="124.0" width="27.0" height="14.0" style="fill:orange; stroke:rgb(0,0,0);" rx="1"/>
<text x="245" y="133" style="font-family:sans-serif;font-size:10px;">
decl
</text>
<rect x="98.5" y="124.0" width="30.0" height="14.0" style="fill:orange; stroke:rgb(0,0,0);" rx="1"/>
<text x="100" y="133" style="font-family:sans-serif;font-size:10px;">
stmt
</text>
<rect x="97.0" y="155.0" width="33.0" height="14.0" style="fill:orange; stroke:rgb(0,0,0);" rx="1"/>
<text x="99" y="164" style="font-family:sans-serif;font-size:10px;">
block
</text>
<rect x="298.0" y="93.0" width="58.0" height="14.0" style="fill:orange; stroke:rgb(0,0,0);" rx="1"/>
<text x="300" y="102" style="font-family:sans-serif;font-size:10px;">
blockItem
</text>
<rect x="312.0" y="124.0" width="30.0" height="14.0" style="fill:orange; stroke:rgb(0,0,0);" rx="1"/>
<text x="314" y="133" style="font-family:sans-serif;font-size:10px;">
stmt
</text>
<rect x="117.0" y="279.0" width="11.0" height="14.0" style="fill:orange; stroke:rgb(0,0,0);" rx="1"/>
<text x="119" y="288" style="font-family:sans-serif;font-size:10px;">
}
</text>
<rect x="150.0" y="0.0" width="57.0" height="14.0" style="fill:orange; stroke:rgb(0,0,0);" rx="1"/>
<text x="152" y="9" style="font-family:sans-serif;font-size:10px;">
compUnit
</text>
<rect x="275.5" y="62.0" width="33.0" height="14.0" style="fill:orange; stroke:rgb(0,0,0);" rx="1"/>
<text x="277" y="71" style="font-family:sans-serif;font-size:10px;">
block
</text>
<rect x="320.0" y="155.0" width="8.0" height="14.0" style="fill:orange; stroke:rgb(0,0,0);" rx="1"/>
<text x="322" y="164" style="font-family:sans-serif;font-size:10px;">
(
</text>
<rect x="84.5" y="186.0" width="58.0" height="14.0" style="fill:orange; stroke:rgb(0,0,0);" rx="1"/>
<text x="86" y="195" style="font-family:sans-serif;font-size:10px;">
blockItem
</text>
<rect x="98.5" y="217.0" width="30.0" height="14.0" style="fill:orange; stroke:rgb(0,0,0);" rx="1"/>
<text x="100" y="226" style="font-family:sans-serif;font-size:10px;">
stmt
</text>
<rect x="228.0" y="93.0" width="58.0" height="14.0" style="fill:orange; stroke:rgb(0,0,0);" rx="1"/>
<text x="230" y="102" style="font-family:sans-serif;font-size:10px;">
blockItem
</text>
<rect x="287.0" y="155.0" width="26.0" height="14.0" style="fill:orange; stroke:rgb(0,0,0);" rx="1"/>
<text x="289" y="164" style="font-family:sans-serif;font-size:10px;">
test
</text>
<rect x="40.0" y="31.0" width="47.0" height="14.0" style="fill:orange; stroke:rgb(0,0,0);" rx="1"/>
<text x="42" y="40" style="font-family:sans-serif;font-size:10px;">
funcDef
</text>
<rect x="149.5" y="93.0" width="11.0" height="14.0" style="fill:orange; stroke:rgb(0,0,0);" rx="1"/>
<text x="151" y="102" style="font-family:sans-serif;font-size:10px;">
}
</text>
<rect x="97.0" y="248.0" width="33.0" height="14.0" style="fill:orange; stroke:rgb(0,0,0);" rx="1"/>
<text x="99" y="257" style="font-family:sans-serif;font-size:10px;">
block
</text>
<rect x="0.0" y="62.0" width="27.0" height="14.0" style="fill:orange; stroke:rgb(0,0,0);" rx="1"/>
<text x="2" y="71" style="font-family:sans-serif;font-size:10px;">
void
</text>
<rect x="34.0" y="62.0" width="26.0" height="14.0" style="fill:orange; stroke:rgb(0,0,0);" rx="1"/>
<text x="36" y="71" style="font-family:sans-serif;font-size:10px;">
test
</text>
<rect x="210.0" y="93.0" width="11.0" height="14.0" style="fill:orange; stroke:rgb(0,0,0);" rx="1"/>
<text x="212" y="102" style="font-family:sans-serif;font-size:10px;">
{
</text>
<rect x="350.0" y="155.0" width="8.0" height="14.0" style="fill:orange; stroke:rgb(0,0,0);" rx="1"/>
<text x="352" y="164" style="font-family:sans-serif;font-size:10px;">
;
</text>
<rect x="260.5" y="186.0" width="8.0" height="14.0" style="fill:orange; stroke:rgb(0,0,0);" rx="1"/>
<text x="262" y="195" style="font-family:sans-serif;font-size:10px;">
,
</text>
<rect x="363.0" y="93.0" width="11.0" height="14.0" style="fill:orange; stroke:rgb(0,0,0);" rx="1"/>
<text x="365" y="102" style="font-family:sans-serif;font-size:10px;">
}
</text>
<rect x="212.5" y="186.0" width="41.0" height="14.0" style="fill:orange; stroke:rgb(0,0,0);" rx="1"/>
<text x="214" y="195" style="font-family:sans-serif;font-size:10px;">
varDef
</text>
</svg>