<svg width="2567.4" height="1433.3000000000002" xmlns="http://www.w3.org/2000/svg" xmlns:xlink="http://www.w3.org/1999/xlink"><line x1="293.1875" y1="7.0" x2="58.0" y2="31.0" style="stroke:black; stroke-width:1px;" />
<line x1="58.0" y1="38.0" x2="58.0" y2="62.0" style="stroke:black; stroke-width:1px;" />
<line x1="58.0" y1="69.0" x2="19.0" y2="93.0" style="stroke:black; stroke-width:1px;" />
<line x1="19.0" y1="100.0" x2="19.0" y2="124.0" style="stroke:black; stroke-width:1px;" />
<line x1="58.0" y1="69.0" x2="65.5" y2="93.0" style="stroke:black; stroke-width:1px;" />
<line x1="65.5" y1="100.0" x2="65.5" y2="124.0" style="stroke:black; stroke-width:1px;" />
<line x1="58.0" y1="69.0" x2="97.0" y2="93.0" style="stroke:black; stroke-width:1px;" />
<line x1="293.1875" y1="7.0" x2="169.125" y2="31.0" style="stroke:black; stroke-width:1px;" />
<line x1="169.125" y1="38.0" x2="169.125" y2="62.0" style="stroke:black; stroke-width:1px;" />
<line x1="169.125" y1="69.0" x2="127.0" y2="93.0" style="stroke:black; stroke-width:1px;" />
<line x1="127.0" y1="100.0" x2="127.0" y2="124.0" style="stroke:black; stroke-width:1px;" />
<line x1="169.125" y1="69.0" x2="179.75" y2="93.0" style="stroke:black; stroke-width:1px;" />
<line x1="179.75" y1="100.0" x2="154.5" y2="124.0" style="stroke:black; stroke-width:1px;" />
<line x1="179.75" y1="100.0" x2="179.5" y2="124.0" style="stroke:black; stroke-width:1px;" />
<line x1="179.75" y1="100.0" x2="205.0" y2="124.0" style="stroke:black; stroke-width:1px;" />
<line x1="205.0" y1="131.0" x2="205.0" y2="155.0" style="stroke:black; stroke-width:1px;" />
<line x1="205.0" y1="162.0" x2="205.0" y2="186.0" style="stroke:black; stroke-width:1px;" />
<line x1="169.125" y1="69.0" x2="211.25" y2="93.0" style="stroke:black; stroke-width:1px;" />
<line x1="293.1875" y1="7.0" x2="311.75" y2="31.0" style="stroke:black; stroke-width:1px;" />
<line x1="311.75" y1="38.0" x2="311.75" y2="62.0" style="stroke:black; stroke-width:1px;" />
<line x1="311.75" y1="69.0" x2="241.25" y2="93.0" style="stroke:black; stroke-width:1px;" />
<line x1="241.25" y1="100.0" x2="241.25" y2="124.0" style="stroke:black; stroke-width:1px;" />
<line x1="311.75" y1="69.0" x2="287.75" y2="93.0" style="stroke:black; stroke-width:1px;" />
<line x1="287.75" y1="100.0" x2="287.75" y2="124.0" style="stroke:black; stroke-width:1px;" />
<line x1="311.75" y1="69.0" x2="319.25" y2="93.0" style="stroke:black; stroke-width:1px;" />
<line x1="311.75" y1="69.0" x2="350.75" y2="93.0" style="stroke:black; stroke-width:1px;" />
<line x1="350.75" y1="100.0" x2="327.25" y2="124.0" style="stroke:black; stroke-width:1px;" />
<line x1="350.75" y1="100.0" x2="348.75" y2="124.0" style="stroke:black; stroke-width:1px;" />
<line x1="350.75" y1="100.0" x2="374.25" y2="124.0" style="stroke:black; stroke-width:1px;" />
<line x1="374.25" y1="131.0" x2="362.75" y2="155.0" style="stroke:black; stroke-width:1px;" />
<line x1="374.25" y1="131.0" x2="385.75" y2="155.0" style="stroke:black; stroke-width:1px;" />
<line x1="385.75" y1="162.0" x2="385.75" y2="186.0" style="stroke:black; stroke-width:1px;" />
<line x1="385.75" y1="193.0" x2="385.75" y2="217.0" style="stroke:black; stroke-width:1px;" />
<line x1="311.75" y1="69.0" x2="382.25" y2="93.0" style="stroke:black; stroke-width:1px;" />
<line x1="293.1875" y1="7.0" x2="485.875" y2="31.0" style="stroke:black; stroke-width:1px;" />
<line x1="485.875" y1="38.0" x2="485.875" y2="62.0" style="stroke:black; stroke-width:1px;" />
<line x1="485.875" y1="69.0" x2="412.25" y2="93.0" style="stroke:black; stroke-width:1px;" />
<line x1="412.25" y1="100.0" x2="412.25" y2="124.0" style="stroke:black; stroke-width:1px;" />
<line x1="485.875" y1="69.0" x2="465.0" y2="93.0" style="stroke:black; stroke-width:1px;" />
<line x1="465.0" y1="100.0" x2="439.75" y2="124.0" style="stroke:black; stroke-width:1px;" />
<line x1="465.0" y1="100.0" x2="464.75" y2="124.0" style="stroke:black; stroke-width:1px;" />
<line x1="465.0" y1="100.0" x2="490.25" y2="124.0" style="stroke:black; stroke-width:1px;" />
<line x1="490.25" y1="131.0" x2="477.5" y2="155.0" style="stroke:black; stroke-width:1px;" />
<line x1="490.25" y1="131.0" x2="503.0" y2="155.0" style="stroke:black; stroke-width:1px;" />
<line x1="503.0" y1="162.0" x2="503.0" y2="186.0" style="stroke:black; stroke-width:1px;" />
<line x1="503.0" y1="193.0" x2="503.0" y2="217.0" style="stroke:black; stroke-width:1px;" />
<line x1="485.875" y1="69.0" x2="496.5" y2="93.0" style="stroke:black; stroke-width:1px;" />
<line x1="485.875" y1="69.0" x2="528.0" y2="93.0" style="stroke:black; stroke-width:1px;" />
<line x1="528.0" y1="100.0" x2="528.0" y2="124.0" style="stroke:black; stroke-width:1px;" />
<line x1="485.875" y1="69.0" x2="559.5" y2="93.0" style="stroke:black; stroke-width:1px;" />
<line x1="293.1875" y1="7.0" x2="528.375" y2="31.0" style="stroke:black; stroke-width:1px;" />
<rect x="44.5" y="31.0" width="27.0" height="14.0" style="fill:orange; stroke:rgb(0,0,0);" rx="1"/>
<text x="46" y="40" style="font-family:sans-serif;font-size:10px;">
decl
</text>
<rect x="279.25" y="124.0" width="17.0" height="14.0" style="fill:orange; stroke:rgb(0,0,0);" rx="1"/>
<text x="281" y="133" style="font-family:sans-serif;font-size:10px;">
_b
</text>
<rect x="444.5" y="93.0" width="41.0" height="14.0" style="fill:orange; stroke:rgb(0,0,0);" rx="1"/>
<text x="446" y="102" style="font-family:sans-serif;font-size:10px;">
varDef
</text>
<rect x="458.25" y="124.0" width="13.0" height="14.0" style="fill:orange; stroke:rgb(0,0,0);" rx="1"/>
<text x="460" y="133" style="font-family:sans-serif;font-size:10px;">
=
</text>
<rect x="193.0" y="124.0" width="24.0" height="14.0" style="fill:orange; stroke:rgb(0,0,0);" rx="1"/>
<text x="195" y="133" style="font-family:sans-serif;font-size:10px;">
exp
</text>
<rect x="362.25" y="124.0" width="24.0" height="14.0" style="fill:orange; stroke:rgb(0,0,0);" rx="1"/>
<text x="364" y="133" style="font-family:sans-serif;font-size:10px;">
exp
</text>
<rect x="222.25" y="93.0" width="38.0" height="14.0" style="fill:orange; stroke:rgb(0,0,0);" rx="1"/>
<text x="224" y="102" style="font-family:sans-serif;font-size:10px;">
bType
</text>
<rect x="330.25" y="93.0" width="41.0" height="14.0" style="fill:orange; stroke:rgb(0,0,0);" rx="1"/>
<text x="332" y="102" style="font-family:sans-serif;font-size:10px;">
varDef
</text>
<rect x="358.75" y="155.0" width="8.0" height="14.0" style="fill:orange; stroke:rgb(0,0,0);" rx="1"/>
<text x="360" y="164" style="font-family:sans-serif;font-size:10px;">
-
</text>
<rect x="199.5" y="186.0" width="11.0" height="14.0" style="fill:orange; stroke:rgb(0,0,0);" rx="1"/>
<text x="201" y="195" style="font-family:sans-serif;font-size:10px;">
0
</text>
<rect x="373.75" y="155.0" width="24.0" height="14.0" style="fill:orange; stroke:rgb(0,0,0);" rx="1"/>
<text x="375" y="164" style="font-family:sans-serif;font-size:10px;">
exp
</text>
<rect x="492.5" y="93.0" width="8.0" height="14.0" style="fill:orange; stroke:rgb(0,0,0);" rx="1"/>
<text x="494" y="102" style="font-family:sans-serif;font-size:10px;">
,
</text>
<rect x="472.375" y="31.0" width="27.0" height="14.0" style="fill:orange; stroke:rgb(0,0,0);" rx="1"/>
<text x="474" y="40" style="font-family:sans-serif;font-size:10px;">
decl
</text>
<rect x="155.625" y="31.0" width="27.0" height="14.0" style="fill:orange; stroke:rgb(0,0,0);" rx="1"/>
<text x="157" y="40" style="font-family:sans-serif;font-size:10px;">
decl
</text>
<rect x="232.25" y="124.0" width="18.0" height="14.0" style="fill:orange; stroke:rgb(0,0,0);" rx="1"/>
<text x="234" y="133" style="font-family:sans-serif;font-size:10px;">
int
</text>
<rect x="35.0" y="62.0" width="46.0" height="14.0" style="fill:orange; stroke:rgb(0,0,0);" rx="1"/>
<text x="37" y="71" style="font-family:sans-serif;font-size:10px;">
varDecl
</text>
<rect x="319.25" y="124.0" width="16.0" height="14.0" style="fill:orange; stroke:rgb(0,0,0);" rx="1"/>
<text x="321" y="133" style="font-family:sans-serif;font-size:10px;">
_c
</text>
<rect x="342.25" y="124.0" width="13.0" height="14.0" style="fill:orange; stroke:rgb(0,0,0);" rx="1"/>
<text x="344" y="133" style="font-family:sans-serif;font-size:10px;">
=
</text>
<rect x="146.125" y="62.0" width="46.0" height="14.0" style="fill:orange; stroke:rgb(0,0,0);" rx="1"/>
<text x="148" y="71" style="font-family:sans-serif;font-size:10px;">
varDecl
</text>
<rect x="0.0" y="93.0" width="38.0" height="14.0" style="fill:orange; stroke:rgb(0,0,0);" rx="1"/>
<text x="2" y="102" style="font-family:sans-serif;font-size:10px;">
bType
</text>
<rect x="10.0" y="124.0" width="18.0" height="14.0" style="fill:orange; stroke:rgb(0,0,0);" rx="1"/>
<text x="12" y="133" style="font-family:sans-serif;font-size:10px;">
int
</text>
<rect x="45.0" y="93.0" width="41.0" height="14.0" style="fill:orange; stroke:rgb(0,0,0);" rx="1"/>
<text x="47" y="102" style="font-family:sans-serif;font-size:10px;">
varDef
</text>
<rect x="57.0" y="124.0" width="17.0" height="14.0" style="fill:orange; stroke:rgb(0,0,0);" rx="1"/>
<text x="59" y="133" style="font-family:sans-serif;font-size:10px;">
_a
</text>
<rect x="108.0" y="93.0" width="38.0" height="14.0" style="fill:orange; stroke:rgb(0,0,0);" rx="1"/>
<text x="110" y="102" style="font-family:sans-serif;font-size:10px;">
bType
</text>
<rect x="267.25" y="93.0" width="41.0" height="14.0" style="fill:orange; stroke:rgb(0,0,0);" rx="1"/>
<text x="269" y="102" style="font-family:sans-serif;font-size:10px;">
varDef
</text>
<rect x="315.25" y="93.0" width="8.0" height="14.0" style="fill:orange; stroke:rgb(0,0,0);" rx="1"/>
<text x="317" y="102" style="font-family:sans-serif;font-size:10px;">
,
</text>
<rect x="378.25" y="93.0" width="8.0" height="14.0" style="fill:orange; stroke:rgb(0,0,0);" rx="1"/>
<text x="380" y="102" style="font-family:sans-serif;font-size:10px;">
;
</text>
<rect x="264.6875" y="0.0" width="57.0" height="14.0" style="fill:orange; stroke:rgb(0,0,0);" rx="1"/>
<text x="266" y="9" style="font-family:sans-serif;font-size:10px;">
compUnit
</text>
<rect x="159.25" y="93.0" width="41.0" height="14.0" style="fill:orange; stroke:rgb(0,0,0);" rx="1"/>
<text x="161" y="102" style="font-family:sans-serif;font-size:10px;">
varDef
</text>
<rect x="207.25" y="93.0" width="8.0" height="14.0" style="fill:orange; stroke:rgb(0,0,0);" rx="1"/>
<text x="209" y="102" style="font-family:sans-serif;font-size:10px;">
;
</text>
<rect x="471.0" y="155.0" width="13.0" height="14.0" style="fill:orange; stroke:rgb(0,0,0);" rx="1"/>
<text x="473" y="164" style="font-family:sans-serif;font-size:10px;">
+
</text>
<rect x="479.0" y="186.0" width="48.0" height="14.0" style="fill:orange; stroke:rgb(0,0,0);" rx="1"/>
<text x="481" y="195" style="font-family:sans-serif;font-size:10px;">
number
</text>
<rect x="555.5" y="93.0" width="8.0" height="14.0" style="fill:orange; stroke:rgb(0,0,0);" rx="1"/>
<text x="557" y="102" style="font-family:sans-serif;font-size:10px;">
;
</text>
<rect x="478.25" y="124.0" width="24.0" height="14.0" style="fill:orange; stroke:rgb(0,0,0);" rx="1"/>
<text x="480" y="133" style="font-family:sans-serif;font-size:10px;">
exp
</text>
<rect x="428.25" y="124.0" width="23.0" height="14.0" style="fill:orange; stroke:rgb(0,0,0);" rx="1"/>
<text x="430" y="133" style="font-family:sans-serif;font-size:10px;">
_b_
</text>
<rect x="507.5" y="93.0" width="41.0" height="14.0" style="fill:orange; stroke:rgb(0,0,0);" rx="1"/>
<text x="509" y="102" style="font-family:sans-serif;font-size:10px;">
varDef
</text>
<rect x="181.0" y="155.0" width="48.0" height="14.0" style="fill:orange; stroke:rgb(0,0,0);" rx="1"/>
<text x="183" y="164" style="font-family:sans-serif;font-size:10px;">
number
</text>
<rect x="403.25" y="124.0" width="18.0" height="14.0" style="fill:orange; stroke:rgb(0,0,0);" rx="1"/>
<text x="405" y="133" style="font-family:sans-serif;font-size:10px;">
int
</text>
<rect x="173.0" y="124.0" width="13.0" height="14.0" style="fill:orange; stroke:rgb(0,0,0);" rx="1"/>
<text x="175" y="133" style="font-family:sans-serif;font-size:10px;">
=
</text>
<rect x="393.25" y="93.0" width="38.0" height="14.0" style="fill:orange; stroke:rgb(0,0,0);" rx="1"/>
<text x="395" y="102" style="font-family:sans-serif;font-size:10px;">
bType
</text>
<rect x="298.25" y="31.0" width="27.0" height="14.0" style="fill:orange; stroke:rgb(0,0,0);" rx="1"/>
<text x="300" y="40" style="font-family:sans-serif;font-size:10px;">
decl
</text>
<rect x="506.375" y="31.0" width="44.0" height="14.0" style="fill:orange; stroke:rgb(0,0,0);" rx="1"/>
<text x="508" y="40" style="font-family:sans-serif;font-size:10px;">
&lt;EOF&gt;
</text>
<rect x="143.0" y="124.0" width="23.0" height="14.0" style="fill:orange; stroke:rgb(0,0,0);" rx="1"/>
<text x="145" y="133" style="font-family:sans-serif;font-size:10px;">
_a_
</text>
<rect x="288.75" y="62.0" width="46.0" height="14.0" style="fill:orange; stroke:rgb(0,0,0);" rx="1"/>
<text x="290" y="71" style="font-family:sans-serif;font-size:10px;">
varDecl
</text>
<rect x="494.0" y="217.0" width="18.0" height="14.0" style="fill:orange; stroke:rgb(0,0,0);" rx="1"/>
<text x="496" y="226" style="font-family:sans-serif;font-size:10px;">
13
</text>
<rect x="517.0" y="124.0" width="22.0" height="14.0" style="fill:orange; stroke:rgb(0,0,0);" rx="1"/>
<text x="519" y="133" style="font-family:sans-serif;font-size:10px;">
_c_
</text>
<rect x="361.75" y="186.0" width="48.0" height="14.0" style="fill:orange; stroke:rgb(0,0,0);" rx="1"/>
<text x="363" y="195" style="font-family:sans-serif;font-size:10px;">
number
</text>
<rect x="118.0" y="124.0" width="18.0" height="14.0" style="fill:orange; stroke:rgb(0,0,0);" rx="1"/>
<text x="120" y="133" style="font-family:sans-serif;font-size:10px;">
int
</text>
<rect x="491.0" y="155.0" width="24.0" height="14.0" style="fill:orange; stroke:rgb(0,0,0);" rx="1"/>
<text x="493" y="164" style="font-family:sans-serif;font-size:10px;">
exp
</text>
<rect x="370.25" y="217.0" width="31.0" height="14.0" style="fill:orange; stroke:rgb(0,0,0);" rx="1"/>
<text x="372" y="226" style="font-family:sans-serif;font-size:10px;">
0x13
</text>
<rect x="462.875" y="62.0" width="46.0" height="14.0" style="fill:orange; stroke:rgb(0,0,0);" rx="1"/>
<text x="464" y="71" style="font-family:sans-serif;font-size:10px;">
varDecl
</text>
<rect x="93.0" y="93.0" width="8.0" height="14.0" style="fill:orange; stroke:rgb(0,0,0);" rx="1"/>
<text x="95" y="102" style="font-family:sans-serif;font-size:10px;">
;
</text>
</svg>