<svg width="2664.2000000000003" height="1416.8000000000002" xmlns="http://www.w3.org/2000/svg" xmlns:xlink="http://www.w3.org/1999/xlink"><line x1="553.84375" y1="7.0" x2="58.0" y2="31.0" style="stroke:black; stroke-width:1px;" />
<line x1="58.0" y1="38.0" x2="58.0" y2="62.0" style="stroke:black; stroke-width:1px;" />
<line x1="58.0" y1="69.0" x2="19.0" y2="93.0" style="stroke:black; stroke-width:1px;" />
<line x1="19.0" y1="100.0" x2="19.0" y2="124.0" style="stroke:black; stroke-width:1px;" />
<line x1="58.0" y1="69.0" x2="65.5" y2="93.0" style="stroke:black; stroke-width:1px;" />
<line x1="65.5" y1="100.0" x2="65.5" y2="124.0" style="stroke:black; stroke-width:1px;" />
<line x1="65.5" y1="131.0" x2="65.5" y2="155.0" style="stroke:black; stroke-width:1px;" />
<line x1="65.5" y1="162.0" x2="32.75" y2="186.0" style="stroke:black; stroke-width:1px;" />
<line x1="65.5" y1="162.0" x2="52.25" y2="186.0" style="stroke:black; stroke-width:1px;" />
<line x1="65.5" y1="162.0" x2="75.25" y2="186.0" style="stroke:black; stroke-width:1px;" />
<line x1="75.25" y1="193.0" x2="75.25" y2="217.0" style="stroke:black; stroke-width:1px;" />
<line x1="75.25" y1="224.0" x2="75.25" y2="248.0" style="stroke:black; stroke-width:1px;" />
<line x1="65.5" y1="162.0" x2="98.25" y2="186.0" style="stroke:black; stroke-width:1px;" />
<line x1="58.0" y1="69.0" x2="97.0" y2="93.0" style="stroke:black; stroke-width:1px;" />
<line x1="553.84375" y1="7.0" x2="211.375" y2="31.0" style="stroke:black; stroke-width:1px;" />
<line x1="211.375" y1="38.0" x2="211.375" y2="62.0" style="stroke:black; stroke-width:1px;" />
<line x1="211.375" y1="69.0" x2="127.0" y2="93.0" style="stroke:black; stroke-width:1px;" />
<line x1="127.0" y1="100.0" x2="127.0" y2="124.0" style="stroke:black; stroke-width:1px;" />
<line x1="211.375" y1="69.0" x2="264.25" y2="93.0" style="stroke:black; stroke-width:1px;" />
<line x1="264.25" y1="100.0" x2="160.0" y2="124.0" style="stroke:black; stroke-width:1px;" />
<line x1="160.0" y1="131.0" x2="160.0" y2="155.0" style="stroke:black; stroke-width:1px;" />
<line x1="160.0" y1="162.0" x2="141.25" y2="186.0" style="stroke:black; stroke-width:1px;" />
<line x1="160.0" y1="162.0" x2="163.75" y2="186.0" style="stroke:black; stroke-width:1px;" />
<line x1="160.0" y1="162.0" x2="178.75" y2="186.0" style="stroke:black; stroke-width:1px;" />
<line x1="264.25" y1="100.0" x2="190.5" y2="124.0" style="stroke:black; stroke-width:1px;" />
<line x1="264.25" y1="100.0" x2="209.5" y2="124.0" style="stroke:black; stroke-width:1px;" />
<line x1="264.25" y1="100.0" x2="234.0" y2="124.0" style="stroke:black; stroke-width:1px;" />
<line x1="234.0" y1="131.0" x2="234.0" y2="155.0" style="stroke:black; stroke-width:1px;" />
<line x1="234.0" y1="162.0" x2="234.0" y2="186.0" style="stroke:black; stroke-width:1px;" />
<line x1="264.25" y1="100.0" x2="261.5" y2="124.0" style="stroke:black; stroke-width:1px;" />
<line x1="264.25" y1="100.0" x2="289.0" y2="124.0" style="stroke:black; stroke-width:1px;" />
<line x1="289.0" y1="131.0" x2="289.0" y2="155.0" style="stroke:black; stroke-width:1px;" />
<line x1="289.0" y1="162.0" x2="289.0" y2="186.0" style="stroke:black; stroke-width:1px;" />
<line x1="264.25" y1="100.0" x2="316.5" y2="124.0" style="stroke:black; stroke-width:1px;" />
<line x1="264.25" y1="100.0" x2="344.0" y2="124.0" style="stroke:black; stroke-width:1px;" />
<line x1="344.0" y1="131.0" x2="344.0" y2="155.0" style="stroke:black; stroke-width:1px;" />
<line x1="344.0" y1="162.0" x2="344.0" y2="186.0" style="stroke:black; stroke-width:1px;" />
<line x1="264.25" y1="100.0" x2="368.5" y2="124.0" style="stroke:black; stroke-width:1px;" />
<line x1="211.375" y1="69.0" x2="295.75" y2="93.0" style="stroke:black; stroke-width:1px;" />
<line x1="553.84375" y1="7.0" x2="460.3125" y2="31.0" style="stroke:black; stroke-width:1px;" />
<line x1="460.3125" y1="38.0" x2="460.3125" y2="62.0" style="stroke:black; stroke-width:1px;" />
<line x1="460.3125" y1="69.0" x2="390.0" y2="93.0" style="stroke:black; stroke-width:1px;" />
<line x1="390.0" y1="100.0" x2="390.0" y2="124.0" style="stroke:black; stroke-width:1px;" />
<line x1="460.3125" y1="69.0" x2="499.125" y2="93.0" style="stroke:black; stroke-width:1px;" />
<line x1="499.125" y1="100.0" x2="423.0" y2="124.0" style="stroke:black; stroke-width:1px;" />
<line x1="423.0" y1="131.0" x2="423.0" y2="155.0" style="stroke:black; stroke-width:1px;" />
<line x1="423.0" y1="162.0" x2="390.25" y2="186.0" style="stroke:black; stroke-width:1px;" />
<line x1="423.0" y1="162.0" x2="409.75" y2="186.0" style="stroke:black; stroke-width:1px;" />
<line x1="423.0" y1="162.0" x2="432.75" y2="186.0" style="stroke:black; stroke-width:1px;" />
<line x1="432.75" y1="193.0" x2="432.75" y2="217.0" style="stroke:black; stroke-width:1px;" />
<line x1="432.75" y1="224.0" x2="432.75" y2="248.0" style="stroke:black; stroke-width:1px;" />
<line x1="423.0" y1="162.0" x2="455.75" y2="186.0" style="stroke:black; stroke-width:1px;" />
<line x1="499.125" y1="100.0" x2="453.5" y2="124.0" style="stroke:black; stroke-width:1px;" />
<line x1="499.125" y1="100.0" x2="472.5" y2="124.0" style="stroke:black; stroke-width:1px;" />
<line x1="499.125" y1="100.0" x2="497.0" y2="124.0" style="stroke:black; stroke-width:1px;" />
<line x1="497.0" y1="131.0" x2="485.5" y2="155.0" style="stroke:black; stroke-width:1px;" />
<line x1="497.0" y1="131.0" x2="508.5" y2="155.0" style="stroke:black; stroke-width:1px;" />
<line x1="508.5" y1="162.0" x2="508.5" y2="186.0" style="stroke:black; stroke-width:1px;" />
<line x1="508.5" y1="193.0" x2="508.5" y2="217.0" style="stroke:black; stroke-width:1px;" />
<line x1="499.125" y1="100.0" x2="523.875" y2="124.0" style="stroke:black; stroke-width:1px;" />
<line x1="499.125" y1="100.0" x2="550.75" y2="124.0" style="stroke:black; stroke-width:1px;" />
<line x1="550.75" y1="131.0" x2="538.0" y2="155.0" style="stroke:black; stroke-width:1px;" />
<line x1="550.75" y1="131.0" x2="563.5" y2="155.0" style="stroke:black; stroke-width:1px;" />
<line x1="563.5" y1="162.0" x2="563.5" y2="186.0" style="stroke:black; stroke-width:1px;" />
<line x1="563.5" y1="193.0" x2="563.5" y2="217.0" style="stroke:black; stroke-width:1px;" />
<line x1="499.125" y1="100.0" x2="575.25" y2="124.0" style="stroke:black; stroke-width:1px;" />
<line x1="460.3125" y1="69.0" x2="530.625" y2="93.0" style="stroke:black; stroke-width:1px;" />
<line x1="553.84375" y1="7.0" x2="695.6875" y2="31.0" style="stroke:black; stroke-width:1px;" />
<line x1="695.6875" y1="38.0" x2="695.6875" y2="62.0" style="stroke:black; stroke-width:1px;" />
<line x1="695.6875" y1="69.0" x2="600.0" y2="93.0" style="stroke:black; stroke-width:1px;" />
<line x1="600.0" y1="100.0" x2="600.0" y2="124.0" style="stroke:black; stroke-width:1px;" />
<line x1="695.6875" y1="69.0" x2="759.875" y2="93.0" style="stroke:black; stroke-width:1px;" />
<line x1="759.875" y1="100.0" x2="633.0" y2="124.0" style="stroke:black; stroke-width:1px;" />
<line x1="633.0" y1="131.0" x2="633.0" y2="155.0" style="stroke:black; stroke-width:1px;" />
<line x1="633.0" y1="162.0" x2="606.5" y2="186.0" style="stroke:black; stroke-width:1px;" />
<line x1="633.0" y1="162.0" x2="659.5" y2="186.0" style="stroke:black; stroke-width:1px;" />
<line x1="659.5" y1="193.0" x2="642.5" y2="217.0" style="stroke:black; stroke-width:1px;" />
<line x1="659.5" y1="193.0" x2="661.5" y2="217.0" style="stroke:black; stroke-width:1px;" />
<line x1="659.5" y1="193.0" x2="676.5" y2="217.0" style="stroke:black; stroke-width:1px;" />
<line x1="759.875" y1="100.0" x2="663.5" y2="124.0" style="stroke:black; stroke-width:1px;" />
<line x1="759.875" y1="100.0" x2="682.5" y2="124.0" style="stroke:black; stroke-width:1px;" />
<line x1="759.875" y1="100.0" x2="707.0" y2="124.0" style="stroke:black; stroke-width:1px;" />
<line x1="707.0" y1="131.0" x2="707.0" y2="155.0" style="stroke:black; stroke-width:1px;" />
<line x1="707.0" y1="162.0" x2="707.0" y2="186.0" style="stroke:black; stroke-width:1px;" />
<line x1="759.875" y1="100.0" x2="734.5" y2="124.0" style="stroke:black; stroke-width:1px;" />
<line x1="759.875" y1="100.0" x2="762.0" y2="124.0" style="stroke:black; stroke-width:1px;" />
<line x1="762.0" y1="131.0" x2="762.0" y2="155.0" style="stroke:black; stroke-width:1px;" />
<line x1="762.0" y1="162.0" x2="762.0" y2="186.0" style="stroke:black; stroke-width:1px;" />
<line x1="759.875" y1="100.0" x2="785.25" y2="124.0" style="stroke:black; stroke-width:1px;" />
<line x1="759.875" y1="100.0" x2="808.5" y2="124.0" style="stroke:black; stroke-width:1px;" />
<line x1="808.5" y1="131.0" x2="797.0" y2="155.0" style="stroke:black; stroke-width:1px;" />
<line x1="808.5" y1="131.0" x2="820.0" y2="155.0" style="stroke:black; stroke-width:1px;" />
<line x1="820.0" y1="162.0" x2="820.0" y2="186.0" style="stroke:black; stroke-width:1px;" />
<line x1="820.0" y1="193.0" x2="820.0" y2="217.0" style="stroke:black; stroke-width:1px;" />
<line x1="759.875" y1="100.0" x2="835.375" y2="124.0" style="stroke:black; stroke-width:1px;" />
<line x1="759.875" y1="100.0" x2="862.25" y2="124.0" style="stroke:black; stroke-width:1px;" />
<line x1="862.25" y1="131.0" x2="849.5" y2="155.0" style="stroke:black; stroke-width:1px;" />
<line x1="862.25" y1="131.0" x2="875.0" y2="155.0" style="stroke:black; stroke-width:1px;" />
<line x1="875.0" y1="162.0" x2="875.0" y2="186.0" style="stroke:black; stroke-width:1px;" />
<line x1="875.0" y1="193.0" x2="875.0" y2="217.0" style="stroke:black; stroke-width:1px;" />
<line x1="759.875" y1="100.0" x2="886.75" y2="124.0" style="stroke:black; stroke-width:1px;" />
<line x1="695.6875" y1="69.0" x2="791.375" y2="93.0" style="stroke:black; stroke-width:1px;" />
<line x1="553.84375" y1="7.0" x2="1007.1875" y2="31.0" style="stroke:black; stroke-width:1px;" />
<line x1="1007.1875" y1="38.0" x2="1007.1875" y2="62.0" style="stroke:black; stroke-width:1px;" />
<line x1="1007.1875" y1="69.0" x2="911.5" y2="93.0" style="stroke:black; stroke-width:1px;" />
<line x1="911.5" y1="100.0" x2="911.5" y2="124.0" style="stroke:black; stroke-width:1px;" />
<line x1="1007.1875" y1="69.0" x2="1071.375" y2="93.0" style="stroke:black; stroke-width:1px;" />
<line x1="1071.375" y1="100.0" x2="944.5" y2="124.0" style="stroke:black; stroke-width:1px;" />
<line x1="944.5" y1="131.0" x2="944.5" y2="155.0" style="stroke:black; stroke-width:1px;" />
<line x1="944.5" y1="162.0" x2="918.0" y2="186.0" style="stroke:black; stroke-width:1px;" />
<line x1="944.5" y1="162.0" x2="971.0" y2="186.0" style="stroke:black; stroke-width:1px;" />
<line x1="971.0" y1="193.0" x2="938.25" y2="217.0" style="stroke:black; stroke-width:1px;" />
<line x1="971.0" y1="193.0" x2="957.75" y2="217.0" style="stroke:black; stroke-width:1px;" />
<line x1="971.0" y1="193.0" x2="980.75" y2="217.0" style="stroke:black; stroke-width:1px;" />
<line x1="980.75" y1="224.0" x2="968.0" y2="248.0" style="stroke:black; stroke-width:1px;" />
<line x1="980.75" y1="224.0" x2="993.5" y2="248.0" style="stroke:black; stroke-width:1px;" />
<line x1="993.5" y1="255.0" x2="993.5" y2="279.0" style="stroke:black; stroke-width:1px;" />
<line x1="993.5" y1="286.0" x2="993.5" y2="310.0" style="stroke:black; stroke-width:1px;" />
<line x1="971.0" y1="193.0" x2="1003.75" y2="217.0" style="stroke:black; stroke-width:1px;" />
<line x1="1071.375" y1="100.0" x2="975.0" y2="124.0" style="stroke:black; stroke-width:1px;" />
<line x1="1071.375" y1="100.0" x2="994.0" y2="124.0" style="stroke:black; stroke-width:1px;" />
<line x1="1071.375" y1="100.0" x2="1018.5" y2="124.0" style="stroke:black; stroke-width:1px;" />
<line x1="1018.5" y1="131.0" x2="1018.5" y2="155.0" style="stroke:black; stroke-width:1px;" />
<line x1="1018.5" y1="162.0" x2="1018.5" y2="186.0" style="stroke:black; stroke-width:1px;" />
<line x1="1071.375" y1="100.0" x2="1046.0" y2="124.0" style="stroke:black; stroke-width:1px;" />
<line x1="1071.375" y1="100.0" x2="1073.5" y2="124.0" style="stroke:black; stroke-width:1px;" />
<line x1="1073.5" y1="131.0" x2="1073.5" y2="155.0" style="stroke:black; stroke-width:1px;" />
<line x1="1073.5" y1="162.0" x2="1073.5" y2="186.0" style="stroke:black; stroke-width:1px;" />
<line x1="1071.375" y1="100.0" x2="1096.75" y2="124.0" style="stroke:black; stroke-width:1px;" />
<line x1="1071.375" y1="100.0" x2="1120.0" y2="124.0" style="stroke:black; stroke-width:1px;" />
<line x1="1120.0" y1="131.0" x2="1108.5" y2="155.0" style="stroke:black; stroke-width:1px;" />
<line x1="1120.0" y1="131.0" x2="1131.5" y2="155.0" style="stroke:black; stroke-width:1px;" />
<line x1="1131.5" y1="162.0" x2="1131.5" y2="186.0" style="stroke:black; stroke-width:1px;" />
<line x1="1131.5" y1="193.0" x2="1131.5" y2="217.0" style="stroke:black; stroke-width:1px;" />
<line x1="1071.375" y1="100.0" x2="1146.875" y2="124.0" style="stroke:black; stroke-width:1px;" />
<line x1="1071.375" y1="100.0" x2="1173.75" y2="124.0" style="stroke:black; stroke-width:1px;" />
<line x1="1173.75" y1="131.0" x2="1161.0" y2="155.0" style="stroke:black; stroke-width:1px;" />
<line x1="1173.75" y1="131.0" x2="1186.5" y2="155.0" style="stroke:black; stroke-width:1px;" />
<line x1="1186.5" y1="162.0" x2="1186.5" y2="186.0" style="stroke:black; stroke-width:1px;" />
<line x1="1186.5" y1="193.0" x2="1186.5" y2="217.0" style="stroke:black; stroke-width:1px;" />
<line x1="1071.375" y1="100.0" x2="1198.25" y2="124.0" style="stroke:black; stroke-width:1px;" />
<line x1="1007.1875" y1="69.0" x2="1102.875" y2="93.0" style="stroke:black; stroke-width:1px;" />
<line x1="553.84375" y1="7.0" x2="1049.6875" y2="31.0" style="stroke:black; stroke-width:1px;" />
<rect x="277.0" y="124.0" width="24.0" height="14.0" style="fill:orange; stroke:rgb(0,0,0);" rx="1"/>
<text x="279" y="133" style="font-family:sans-serif;font-size:10px;">
exp
</text>
<rect x="1108.0" y="124.0" width="24.0" height="14.0" style="fill:orange; stroke:rgb(0,0,0);" rx="1"/>
<text x="1110" y="133" style="font-family:sans-serif;font-size:10px;">
exp
</text>
<rect x="503.0" y="217.0" width="11.0" height="14.0" style="fill:orange; stroke:rgb(0,0,0);" rx="1"/>
<text x="505" y="226" style="font-family:sans-serif;font-size:10px;">
3
</text>
<rect x="1181.0" y="217.0" width="11.0" height="14.0" style="fill:orange; stroke:rgb(0,0,0);" rx="1"/>
<text x="1183" y="226" style="font-family:sans-serif;font-size:10px;">
1
</text>
<rect x="531.5" y="155.0" width="13.0" height="14.0" style="fill:orange; stroke:rgb(0,0,0);" rx="1"/>
<text x="533" y="164" style="font-family:sans-serif;font-size:10px;">
+
</text>
<rect x="634.5" y="217.0" width="16.0" height="14.0" style="fill:orange; stroke:rgb(0,0,0);" rx="1"/>
<text x="636" y="226" style="font-family:sans-serif;font-size:10px;">
_c
</text>
<rect x="143.0" y="124.0" width="34.0" height="14.0" style="fill:orange; stroke:rgb(0,0,0);" rx="1"/>
<text x="145" y="133" style="font-family:sans-serif;font-size:10px;">
array
</text>
<rect x="756.5" y="186.0" width="11.0" height="14.0" style="fill:orange; stroke:rgb(0,0,0);" rx="1"/>
<text x="758" y="195" style="font-family:sans-serif;font-size:10px;">
1
</text>
<rect x="902.5" y="124.0" width="18.0" height="14.0" style="fill:orange; stroke:rgb(0,0,0);" rx="1"/>
<text x="904" y="133" style="font-family:sans-serif;font-size:10px;">
int
</text>
<rect x="447.0" y="124.0" width="13.0" height="14.0" style="fill:orange; stroke:rgb(0,0,0);" rx="1"/>
<text x="449" y="133" style="font-family:sans-serif;font-size:10px;">
=
</text>
<rect x="969.5" y="279.0" width="48.0" height="14.0" style="fill:orange; stroke:rgb(0,0,0);" rx="1"/>
<text x="971" y="288" style="font-family:sans-serif;font-size:10px;">
number
</text>
<rect x="437.3125" y="62.0" width="46.0" height="14.0" style="fill:orange; stroke:rgb(0,0,0);" rx="1"/>
<text x="439" y="71" style="font-family:sans-serif;font-size:10px;">
varDecl
</text>
<rect x="312.5" y="124.0" width="8.0" height="14.0" style="fill:orange; stroke:rgb(0,0,0);" rx="1"/>
<text x="314" y="133" style="font-family:sans-serif;font-size:10px;">
,
</text>
<rect x="569.75" y="124.0" width="11.0" height="14.0" style="fill:orange; stroke:rgb(0,0,0);" rx="1"/>
<text x="571" y="133" style="font-family:sans-serif;font-size:10px;">
}
</text>
<rect x="994.5" y="155.0" width="48.0" height="14.0" style="fill:orange; stroke:rgb(0,0,0);" rx="1"/>
<text x="996" y="164" style="font-family:sans-serif;font-size:10px;">
number
</text>
<rect x="814.5" y="217.0" width="11.0" height="14.0" style="fill:orange; stroke:rgb(0,0,0);" rx="1"/>
<text x="816" y="226" style="font-family:sans-serif;font-size:10px;">
0
</text>
<rect x="988.5" y="124.0" width="11.0" height="14.0" style="fill:orange; stroke:rgb(0,0,0);" rx="1"/>
<text x="990" y="133" style="font-family:sans-serif;font-size:10px;">
{
</text>
<rect x="929.75" y="217.0" width="17.0" height="14.0" style="fill:orange; stroke:rgb(0,0,0);" rx="1"/>
<text x="931" y="226" style="font-family:sans-serif;font-size:10px;">
_d
</text>
<rect x="1061.5" y="124.0" width="24.0" height="14.0" style="fill:orange; stroke:rgb(0,0,0);" rx="1"/>
<text x="1063" y="133" style="font-family:sans-serif;font-size:10px;">
exp
</text>
<rect x="420.75" y="186.0" width="24.0" height="14.0" style="fill:orange; stroke:rgb(0,0,0);" rx="1"/>
<text x="422" y="195" style="font-family:sans-serif;font-size:10px;">
exp
</text>
<rect x="781.25" y="124.0" width="8.0" height="14.0" style="fill:orange; stroke:rgb(0,0,0);" rx="1"/>
<text x="783" y="133" style="font-family:sans-serif;font-size:10px;">
,
</text>
<rect x="892.5" y="93.0" width="38.0" height="14.0" style="fill:orange; stroke:rgb(0,0,0);" rx="1"/>
<text x="894" y="102" style="font-family:sans-serif;font-size:10px;">
bType
</text>
<rect x="63.25" y="186.0" width="24.0" height="14.0" style="fill:orange; stroke:rgb(0,0,0);" rx="1"/>
<text x="65" y="195" style="font-family:sans-serif;font-size:10px;">
exp
</text>
<rect x="184.0" y="124.0" width="13.0" height="14.0" style="fill:orange; stroke:rgb(0,0,0);" rx="1"/>
<text x="186" y="133" style="font-family:sans-serif;font-size:10px;">
=
</text>
<rect x="496.5" y="155.0" width="24.0" height="14.0" style="fill:orange; stroke:rgb(0,0,0);" rx="1"/>
<text x="498" y="164" style="font-family:sans-serif;font-size:10px;">
exp
</text>
<rect x="981.5" y="248.0" width="24.0" height="14.0" style="fill:orange; stroke:rgb(0,0,0);" rx="1"/>
<text x="983" y="257" style="font-family:sans-serif;font-size:10px;">
exp
</text>
<rect x="625.5" y="186.0" width="68.0" height="14.0" style="fill:orange; stroke:rgb(0,0,0);" rx="1"/>
<text x="627" y="195" style="font-family:sans-serif;font-size:10px;">
unobcArray
</text>
<rect x="843.0" y="155.0" width="13.0" height="14.0" style="fill:orange; stroke:rgb(0,0,0);" rx="1"/>
<text x="845" y="164" style="font-family:sans-serif;font-size:10px;">
+
</text>
<rect x="677.0" y="124.0" width="11.0" height="14.0" style="fill:orange; stroke:rgb(0,0,0);" rx="1"/>
<text x="679" y="133" style="font-family:sans-serif;font-size:10px;">
{
</text>
<rect x="738.0" y="155.0" width="48.0" height="14.0" style="fill:orange; stroke:rgb(0,0,0);" rx="1"/>
<text x="740" y="164" style="font-family:sans-serif;font-size:10px;">
number
</text>
<rect x="1013.0" y="186.0" width="11.0" height="14.0" style="fill:orange; stroke:rgb(0,0,0);" rx="1"/>
<text x="1015" y="195" style="font-family:sans-serif;font-size:10px;">
0
</text>
<rect x="1174.5" y="155.0" width="24.0" height="14.0" style="fill:orange; stroke:rgb(0,0,0);" rx="1"/>
<text x="1176" y="164" style="font-family:sans-serif;font-size:10px;">
exp
</text>
<rect x="917.5" y="155.0" width="54.0" height="14.0" style="fill:orange; stroke:rgb(0,0,0);" rx="1"/>
<text x="919" y="164" style="font-family:sans-serif;font-size:10px;">
obcArray
</text>
<rect x="159.75" y="186.0" width="8.0" height="14.0" style="fill:orange; stroke:rgb(0,0,0);" rx="1"/>
<text x="161" y="195" style="font-family:sans-serif;font-size:10px;">
[
</text>
<rect x="793.0" y="155.0" width="8.0" height="14.0" style="fill:orange; stroke:rgb(0,0,0);" rx="1"/>
<text x="795" y="164" style="font-family:sans-serif;font-size:10px;">
-
</text>
<rect x="129.75" y="186.0" width="23.0" height="14.0" style="fill:orange; stroke:rgb(0,0,0);" rx="1"/>
<text x="131" y="195" style="font-family:sans-serif;font-size:10px;">
_a_
</text>
<rect x="906.0" y="186.0" width="24.0" height="14.0" style="fill:orange; stroke:rgb(0,0,0);" rx="1"/>
<text x="908" y="195" style="font-family:sans-serif;font-size:10px;">
obc
</text>
<rect x="863.0" y="155.0" width="24.0" height="14.0" style="fill:orange; stroke:rgb(0,0,0);" rx="1"/>
<text x="865" y="164" style="font-family:sans-serif;font-size:10px;">
exp
</text>
<rect x="228.5" y="186.0" width="11.0" height="14.0" style="fill:orange; stroke:rgb(0,0,0);" rx="1"/>
<text x="230" y="195" style="font-family:sans-serif;font-size:10px;">
1
</text>
<rect x="291.75" y="93.0" width="8.0" height="14.0" style="fill:orange; stroke:rgb(0,0,0);" rx="1"/>
<text x="293" y="102" style="font-family:sans-serif;font-size:10px;">
;
</text>
<rect x="320.0" y="155.0" width="48.0" height="14.0" style="fill:orange; stroke:rgb(0,0,0);" rx="1"/>
<text x="322" y="164" style="font-family:sans-serif;font-size:10px;">
number
</text>
<rect x="1092.75" y="124.0" width="8.0" height="14.0" style="fill:orange; stroke:rgb(0,0,0);" rx="1"/>
<text x="1094" y="133" style="font-family:sans-serif;font-size:10px;">
,
</text>
<rect x="881.25" y="124.0" width="11.0" height="14.0" style="fill:orange; stroke:rgb(0,0,0);" rx="1"/>
<text x="883" y="133" style="font-family:sans-serif;font-size:10px;">
}
</text>
<rect x="126.0" y="155.0" width="68.0" height="14.0" style="fill:orange; stroke:rgb(0,0,0);" rx="1"/>
<text x="128" y="164" style="font-family:sans-serif;font-size:10px;">
unobcArray
</text>
<rect x="204.0" y="124.0" width="11.0" height="14.0" style="fill:orange; stroke:rgb(0,0,0);" rx="1"/>
<text x="206" y="133" style="font-family:sans-serif;font-size:10px;">
{
</text>
<rect x="750.0" y="124.0" width="24.0" height="14.0" style="fill:orange; stroke:rgb(0,0,0);" rx="1"/>
<text x="752" y="133" style="font-family:sans-serif;font-size:10px;">
exp
</text>
<rect x="993.6875" y="31.0" width="27.0" height="14.0" style="fill:orange; stroke:rgb(0,0,0);" rx="1"/>
<text x="995" y="40" style="font-family:sans-serif;font-size:10px;">
decl
</text>
<rect x="1098.875" y="93.0" width="8.0" height="14.0" style="fill:orange; stroke:rgb(0,0,0);" rx="1"/>
<text x="1100" y="102" style="font-family:sans-serif;font-size:10px;">
;
</text>
<rect x="381.0" y="124.0" width="18.0" height="14.0" style="fill:orange; stroke:rgb(0,0,0);" rx="1"/>
<text x="383" y="133" style="font-family:sans-serif;font-size:10px;">
int
</text>
<rect x="446.8125" y="31.0" width="27.0" height="14.0" style="fill:orange; stroke:rgb(0,0,0);" rx="1"/>
<text x="448" y="40" style="font-family:sans-serif;font-size:10px;">
decl
</text>
<rect x="484.5" y="186.0" width="48.0" height="14.0" style="fill:orange; stroke:rgb(0,0,0);" rx="1"/>
<text x="486" y="195" style="font-family:sans-serif;font-size:10px;">
number
</text>
<rect x="695.0" y="124.0" width="24.0" height="14.0" style="fill:orange; stroke:rgb(0,0,0);" rx="1"/>
<text x="697" y="133" style="font-family:sans-serif;font-size:10px;">
exp
</text>
<rect x="1104.5" y="155.0" width="8.0" height="14.0" style="fill:orange; stroke:rgb(0,0,0);" rx="1"/>
<text x="1106" y="164" style="font-family:sans-serif;font-size:10px;">
-
</text>
<rect x="1119.5" y="155.0" width="24.0" height="14.0" style="fill:orange; stroke:rgb(0,0,0);" rx="1"/>
<text x="1121" y="164" style="font-family:sans-serif;font-size:10px;">
exp
</text>
<rect x="188.375" y="62.0" width="46.0" height="14.0" style="fill:orange; stroke:rgb(0,0,0);" rx="1"/>
<text x="190" y="71" style="font-family:sans-serif;font-size:10px;">
varDecl
</text>
<rect x="332.0" y="124.0" width="24.0" height="14.0" style="fill:orange; stroke:rgb(0,0,0);" rx="1"/>
<text x="334" y="133" style="font-family:sans-serif;font-size:10px;">
exp
</text>
<rect x="551.5" y="155.0" width="24.0" height="14.0" style="fill:orange; stroke:rgb(0,0,0);" rx="1"/>
<text x="553" y="164" style="font-family:sans-serif;font-size:10px;">
exp
</text>
<rect x="481.5" y="155.0" width="8.0" height="14.0" style="fill:orange; stroke:rgb(0,0,0);" rx="1"/>
<text x="483" y="164" style="font-family:sans-serif;font-size:10px;">
-
</text>
<rect x="93.0" y="93.0" width="8.0" height="14.0" style="fill:orange; stroke:rgb(0,0,0);" rx="1"/>
<text x="95" y="102" style="font-family:sans-serif;font-size:10px;">
;
</text>
<rect x="606.0" y="155.0" width="54.0" height="14.0" style="fill:orange; stroke:rgb(0,0,0);" rx="1"/>
<text x="608" y="164" style="font-family:sans-serif;font-size:10px;">
obcArray
</text>
<rect x="953.75" y="217.0" width="8.0" height="14.0" style="fill:orange; stroke:rgb(0,0,0);" rx="1"/>
<text x="955" y="226" style="font-family:sans-serif;font-size:10px;">
[
</text>
<rect x="968.5" y="124.0" width="13.0" height="14.0" style="fill:orange; stroke:rgb(0,0,0);" rx="1"/>
<text x="970" y="133" style="font-family:sans-serif;font-size:10px;">
=
</text>
<rect x="538.75" y="124.0" width="24.0" height="14.0" style="fill:orange; stroke:rgb(0,0,0);" rx="1"/>
<text x="540" y="133" style="font-family:sans-serif;font-size:10px;">
exp
</text>
<rect x="558.0" y="217.0" width="11.0" height="14.0" style="fill:orange; stroke:rgb(0,0,0);" rx="1"/>
<text x="560" y="226" style="font-family:sans-serif;font-size:10px;">
5
</text>
<rect x="69.75" y="248.0" width="11.0" height="14.0" style="fill:orange; stroke:rgb(0,0,0);" rx="1"/>
<text x="71" y="257" style="font-family:sans-serif;font-size:10px;">
5
</text>
<rect x="420.75" y="248.0" width="24.0" height="14.0" style="fill:orange; stroke:rgb(0,0,0);" rx="1"/>
<text x="422" y="257" style="font-family:sans-serif;font-size:10px;">
0x6
</text>
<rect x="831.375" y="124.0" width="8.0" height="14.0" style="fill:orange; stroke:rgb(0,0,0);" rx="1"/>
<text x="833" y="133" style="font-family:sans-serif;font-size:10px;">
,
</text>
<rect x="594.5" y="186.0" width="24.0" height="14.0" style="fill:orange; stroke:rgb(0,0,0);" rx="1"/>
<text x="596" y="195" style="font-family:sans-serif;font-size:10px;">
obc
</text>
<rect x="850.25" y="124.0" width="24.0" height="14.0" style="fill:orange; stroke:rgb(0,0,0);" rx="1"/>
<text x="852" y="133" style="font-family:sans-serif;font-size:10px;">
exp
</text>
<rect x="796.0" y="186.0" width="48.0" height="14.0" style="fill:orange; stroke:rgb(0,0,0);" rx="1"/>
<text x="798" y="195" style="font-family:sans-serif;font-size:10px;">
number
</text>
<rect x="1049.5" y="155.0" width="48.0" height="14.0" style="fill:orange; stroke:rgb(0,0,0);" rx="1"/>
<text x="1051" y="164" style="font-family:sans-serif;font-size:10px;">
number
</text>
<rect x="174.75" y="186.0" width="8.0" height="14.0" style="fill:orange; stroke:rgb(0,0,0);" rx="1"/>
<text x="176" y="195" style="font-family:sans-serif;font-size:10px;">
]
</text>
<rect x="525.34375" y="0.0" width="57.0" height="14.0" style="fill:orange; stroke:rgb(0,0,0);" rx="1"/>
<text x="527" y="9" style="font-family:sans-serif;font-size:10px;">
compUnit
</text>
<rect x="539.5" y="186.0" width="48.0" height="14.0" style="fill:orange; stroke:rgb(0,0,0);" rx="1"/>
<text x="541" y="195" style="font-family:sans-serif;font-size:10px;">
number
</text>
<rect x="968.75" y="217.0" width="24.0" height="14.0" style="fill:orange; stroke:rgb(0,0,0);" rx="1"/>
<text x="970" y="226" style="font-family:sans-serif;font-size:10px;">
exp
</text>
<rect x="1192.75" y="124.0" width="11.0" height="14.0" style="fill:orange; stroke:rgb(0,0,0);" rx="1"/>
<text x="1194" y="133" style="font-family:sans-serif;font-size:10px;">
}
</text>
<rect x="1006.5" y="124.0" width="24.0" height="14.0" style="fill:orange; stroke:rgb(0,0,0);" rx="1"/>
<text x="1008" y="133" style="font-family:sans-serif;font-size:10px;">
exp
</text>
<rect x="24.25" y="186.0" width="17.0" height="14.0" style="fill:orange; stroke:rgb(0,0,0);" rx="1"/>
<text x="26" y="195" style="font-family:sans-serif;font-size:10px;">
_a
</text>
<rect x="730.5" y="124.0" width="8.0" height="14.0" style="fill:orange; stroke:rgb(0,0,0);" rx="1"/>
<text x="732" y="133" style="font-family:sans-serif;font-size:10px;">
,
</text>
<rect x="478.625" y="93.0" width="41.0" height="14.0" style="fill:orange; stroke:rgb(0,0,0);" rx="1"/>
<text x="480" y="102" style="font-family:sans-serif;font-size:10px;">
varDef
</text>
<rect x="363.0" y="124.0" width="11.0" height="14.0" style="fill:orange; stroke:rgb(0,0,0);" rx="1"/>
<text x="365" y="133" style="font-family:sans-serif;font-size:10px;">
}
</text>
<rect x="999.75" y="217.0" width="8.0" height="14.0" style="fill:orange; stroke:rgb(0,0,0);" rx="1"/>
<text x="1001" y="226" style="font-family:sans-serif;font-size:10px;">
]
</text>
<rect x="389.0" y="155.0" width="68.0" height="14.0" style="fill:orange; stroke:rgb(0,0,0);" rx="1"/>
<text x="391" y="164" style="font-family:sans-serif;font-size:10px;">
unobcArray
</text>
<rect x="118.0" y="124.0" width="18.0" height="14.0" style="fill:orange; stroke:rgb(0,0,0);" rx="1"/>
<text x="120" y="133" style="font-family:sans-serif;font-size:10px;">
int
</text>
<rect x="682.1875" y="31.0" width="27.0" height="14.0" style="fill:orange; stroke:rgb(0,0,0);" rx="1"/>
<text x="684" y="40" style="font-family:sans-serif;font-size:10px;">
decl
</text>
<rect x="657.0" y="124.0" width="13.0" height="14.0" style="fill:orange; stroke:rgb(0,0,0);" rx="1"/>
<text x="659" y="133" style="font-family:sans-serif;font-size:10px;">
=
</text>
<rect x="937.0" y="186.0" width="68.0" height="14.0" style="fill:orange; stroke:rgb(0,0,0);" rx="1"/>
<text x="939" y="195" style="font-family:sans-serif;font-size:10px;">
unobcArray
</text>
<rect x="1161.75" y="124.0" width="24.0" height="14.0" style="fill:orange; stroke:rgb(0,0,0);" rx="1"/>
<text x="1163" y="133" style="font-family:sans-serif;font-size:10px;">
exp
</text>
<rect x="10.0" y="124.0" width="18.0" height="14.0" style="fill:orange; stroke:rgb(0,0,0);" rx="1"/>
<text x="12" y="133" style="font-family:sans-serif;font-size:10px;">
int
</text>
<rect x="94.25" y="186.0" width="8.0" height="14.0" style="fill:orange; stroke:rgb(0,0,0);" rx="1"/>
<text x="96" y="195" style="font-family:sans-serif;font-size:10px;">
]
</text>
<rect x="338.5" y="186.0" width="11.0" height="14.0" style="fill:orange; stroke:rgb(0,0,0);" rx="1"/>
<text x="340" y="195" style="font-family:sans-serif;font-size:10px;">
3
</text>
<rect x="672.6875" y="62.0" width="46.0" height="14.0" style="fill:orange; stroke:rgb(0,0,0);" rx="1"/>
<text x="674" y="71" style="font-family:sans-serif;font-size:10px;">
varDecl
</text>
<rect x="31.5" y="155.0" width="68.0" height="14.0" style="fill:orange; stroke:rgb(0,0,0);" rx="1"/>
<text x="33" y="164" style="font-family:sans-serif;font-size:10px;">
unobcArray
</text>
<rect x="526.625" y="93.0" width="8.0" height="14.0" style="fill:orange; stroke:rgb(0,0,0);" rx="1"/>
<text x="528" y="102" style="font-family:sans-serif;font-size:10px;">
;
</text>
<rect x="451.75" y="186.0" width="8.0" height="14.0" style="fill:orange; stroke:rgb(0,0,0);" rx="1"/>
<text x="453" y="195" style="font-family:sans-serif;font-size:10px;">
]
</text>
<rect x="581.0" y="93.0" width="38.0" height="14.0" style="fill:orange; stroke:rgb(0,0,0);" rx="1"/>
<text x="583" y="102" style="font-family:sans-serif;font-size:10px;">
bType
</text>
<rect x="51.25" y="217.0" width="48.0" height="14.0" style="fill:orange; stroke:rgb(0,0,0);" rx="1"/>
<text x="53" y="226" style="font-family:sans-serif;font-size:10px;">
number
</text>
<rect x="371.0" y="93.0" width="38.0" height="14.0" style="fill:orange; stroke:rgb(0,0,0);" rx="1"/>
<text x="373" y="102" style="font-family:sans-serif;font-size:10px;">
bType
</text>
<rect x="283.5" y="186.0" width="11.0" height="14.0" style="fill:orange; stroke:rgb(0,0,0);" rx="1"/>
<text x="285" y="195" style="font-family:sans-serif;font-size:10px;">
2
</text>
<rect x="616.0" y="124.0" width="34.0" height="14.0" style="fill:orange; stroke:rgb(0,0,0);" rx="1"/>
<text x="618" y="133" style="font-family:sans-serif;font-size:10px;">
array
</text>
<rect x="701.5" y="186.0" width="11.0" height="14.0" style="fill:orange; stroke:rgb(0,0,0);" rx="1"/>
<text x="703" y="195" style="font-family:sans-serif;font-size:10px;">
0
</text>
<rect x="796.5" y="124.0" width="24.0" height="14.0" style="fill:orange; stroke:rgb(0,0,0);" rx="1"/>
<text x="798" y="133" style="font-family:sans-serif;font-size:10px;">
exp
</text>
<rect x="869.5" y="217.0" width="11.0" height="14.0" style="fill:orange; stroke:rgb(0,0,0);" rx="1"/>
<text x="871" y="226" style="font-family:sans-serif;font-size:10px;">
1
</text>
<rect x="927.5" y="124.0" width="34.0" height="14.0" style="fill:orange; stroke:rgb(0,0,0);" rx="1"/>
<text x="929" y="133" style="font-family:sans-serif;font-size:10px;">
array
</text>
<rect x="1126.0" y="217.0" width="11.0" height="14.0" style="fill:orange; stroke:rgb(0,0,0);" rx="1"/>
<text x="1128" y="226" style="font-family:sans-serif;font-size:10px;">
0
</text>
<rect x="1162.5" y="186.0" width="48.0" height="14.0" style="fill:orange; stroke:rgb(0,0,0);" rx="1"/>
<text x="1164" y="195" style="font-family:sans-serif;font-size:10px;">
number
</text>
<rect x="406.0" y="124.0" width="34.0" height="14.0" style="fill:orange; stroke:rgb(0,0,0);" rx="1"/>
<text x="408" y="133" style="font-family:sans-serif;font-size:10px;">
array
</text>
<rect x="408.75" y="217.0" width="48.0" height="14.0" style="fill:orange; stroke:rgb(0,0,0);" rx="1"/>
<text x="410" y="226" style="font-family:sans-serif;font-size:10px;">
number
</text>
<rect x="739.375" y="93.0" width="41.0" height="14.0" style="fill:orange; stroke:rgb(0,0,0);" rx="1"/>
<text x="741" y="102" style="font-family:sans-serif;font-size:10px;">
varDef
</text>
<rect x="1107.5" y="186.0" width="48.0" height="14.0" style="fill:orange; stroke:rgb(0,0,0);" rx="1"/>
<text x="1109" y="195" style="font-family:sans-serif;font-size:10px;">
number
</text>
<rect x="243.75" y="93.0" width="41.0" height="14.0" style="fill:orange; stroke:rgb(0,0,0);" rx="1"/>
<text x="245" y="102" style="font-family:sans-serif;font-size:10px;">
varDef
</text>
<rect x="961.5" y="248.0" width="13.0" height="14.0" style="fill:orange; stroke:rgb(0,0,0);" rx="1"/>
<text x="963" y="257" style="font-family:sans-serif;font-size:10px;">
+
</text>
<rect x="48.5" y="124.0" width="34.0" height="14.0" style="fill:orange; stroke:rgb(0,0,0);" rx="1"/>
<text x="50" y="133" style="font-family:sans-serif;font-size:10px;">
array
</text>
<rect x="257.5" y="124.0" width="8.0" height="14.0" style="fill:orange; stroke:rgb(0,0,0);" rx="1"/>
<text x="259" y="133" style="font-family:sans-serif;font-size:10px;">
,
</text>
<rect x="851.0" y="186.0" width="48.0" height="14.0" style="fill:orange; stroke:rgb(0,0,0);" rx="1"/>
<text x="853" y="195" style="font-family:sans-serif;font-size:10px;">
number
</text>
<rect x="787.375" y="93.0" width="8.0" height="14.0" style="fill:orange; stroke:rgb(0,0,0);" rx="1"/>
<text x="789" y="102" style="font-family:sans-serif;font-size:10px;">
;
</text>
<rect x="0.0" y="93.0" width="38.0" height="14.0" style="fill:orange; stroke:rgb(0,0,0);" rx="1"/>
<text x="2" y="102" style="font-family:sans-serif;font-size:10px;">
bType
</text>
<rect x="197.875" y="31.0" width="27.0" height="14.0" style="fill:orange; stroke:rgb(0,0,0);" rx="1"/>
<text x="199" y="40" style="font-family:sans-serif;font-size:10px;">
decl
</text>
<rect x="265.0" y="155.0" width="48.0" height="14.0" style="fill:orange; stroke:rgb(0,0,0);" rx="1"/>
<text x="267" y="164" style="font-family:sans-serif;font-size:10px;">
number
</text>
<rect x="978.0" y="310.0" width="31.0" height="14.0" style="fill:orange; stroke:rgb(0,0,0);" rx="1"/>
<text x="980" y="319" style="font-family:sans-serif;font-size:10px;">
0x10
</text>
<rect x="1142.875" y="124.0" width="8.0" height="14.0" style="fill:orange; stroke:rgb(0,0,0);" rx="1"/>
<text x="1144" y="133" style="font-family:sans-serif;font-size:10px;">
,
</text>
<rect x="485.0" y="124.0" width="24.0" height="14.0" style="fill:orange; stroke:rgb(0,0,0);" rx="1"/>
<text x="487" y="133" style="font-family:sans-serif;font-size:10px;">
exp
</text>
<rect x="808.0" y="155.0" width="24.0" height="14.0" style="fill:orange; stroke:rgb(0,0,0);" rx="1"/>
<text x="810" y="164" style="font-family:sans-serif;font-size:10px;">
exp
</text>
<rect x="683.0" y="155.0" width="48.0" height="14.0" style="fill:orange; stroke:rgb(0,0,0);" rx="1"/>
<text x="685" y="164" style="font-family:sans-serif;font-size:10px;">
number
</text>
<rect x="44.5" y="31.0" width="27.0" height="14.0" style="fill:orange; stroke:rgb(0,0,0);" rx="1"/>
<text x="46" y="40" style="font-family:sans-serif;font-size:10px;">
decl
</text>
<rect x="657.5" y="217.0" width="8.0" height="14.0" style="fill:orange; stroke:rgb(0,0,0);" rx="1"/>
<text x="659" y="226" style="font-family:sans-serif;font-size:10px;">
[
</text>
<rect x="467.0" y="124.0" width="11.0" height="14.0" style="fill:orange; stroke:rgb(0,0,0);" rx="1"/>
<text x="469" y="133" style="font-family:sans-serif;font-size:10px;">
{
</text>
<rect x="519.875" y="124.0" width="8.0" height="14.0" style="fill:orange; stroke:rgb(0,0,0);" rx="1"/>
<text x="521" y="133" style="font-family:sans-serif;font-size:10px;">
,
</text>
<rect x="1027.6875" y="31.0" width="44.0" height="14.0" style="fill:orange; stroke:rgb(0,0,0);" rx="1"/>
<text x="1029" y="40" style="font-family:sans-serif;font-size:10px;">
&lt;EOF&gt;
</text>
<rect x="1042.0" y="124.0" width="8.0" height="14.0" style="fill:orange; stroke:rgb(0,0,0);" rx="1"/>
<text x="1044" y="133" style="font-family:sans-serif;font-size:10px;">
,
</text>
<rect x="1068.0" y="186.0" width="11.0" height="14.0" style="fill:orange; stroke:rgb(0,0,0);" rx="1"/>
<text x="1070" y="195" style="font-family:sans-serif;font-size:10px;">
1
</text>
<rect x="984.1875" y="62.0" width="46.0" height="14.0" style="fill:orange; stroke:rgb(0,0,0);" rx="1"/>
<text x="986" y="71" style="font-family:sans-serif;font-size:10px;">
varDecl
</text>
<rect x="35.0" y="62.0" width="46.0" height="14.0" style="fill:orange; stroke:rgb(0,0,0);" rx="1"/>
<text x="37" y="71" style="font-family:sans-serif;font-size:10px;">
varDecl
</text>
<rect x="1154.5" y="155.0" width="13.0" height="14.0" style="fill:orange; stroke:rgb(0,0,0);" rx="1"/>
<text x="1156" y="164" style="font-family:sans-serif;font-size:10px;">
+
</text>
<rect x="591.0" y="124.0" width="18.0" height="14.0" style="fill:orange; stroke:rgb(0,0,0);" rx="1"/>
<text x="593" y="133" style="font-family:sans-serif;font-size:10px;">
int
</text>
<rect x="45.0" y="93.0" width="41.0" height="14.0" style="fill:orange; stroke:rgb(0,0,0);" rx="1"/>
<text x="47" y="102" style="font-family:sans-serif;font-size:10px;">
varDef
</text>
<rect x="108.0" y="93.0" width="38.0" height="14.0" style="fill:orange; stroke:rgb(0,0,0);" rx="1"/>
<text x="110" y="102" style="font-family:sans-serif;font-size:10px;">
bType
</text>
<rect x="381.75" y="186.0" width="17.0" height="14.0" style="fill:orange; stroke:rgb(0,0,0);" rx="1"/>
<text x="383" y="195" style="font-family:sans-serif;font-size:10px;">
_b
</text>
<rect x="672.5" y="217.0" width="8.0" height="14.0" style="fill:orange; stroke:rgb(0,0,0);" rx="1"/>
<text x="674" y="226" style="font-family:sans-serif;font-size:10px;">
]
</text>
<rect x="210.0" y="155.0" width="48.0" height="14.0" style="fill:orange; stroke:rgb(0,0,0);" rx="1"/>
<text x="212" y="164" style="font-family:sans-serif;font-size:10px;">
number
</text>
<rect x="48.25" y="186.0" width="8.0" height="14.0" style="fill:orange; stroke:rgb(0,0,0);" rx="1"/>
<text x="50" y="195" style="font-family:sans-serif;font-size:10px;">
[
</text>
<rect x="222.0" y="124.0" width="24.0" height="14.0" style="fill:orange; stroke:rgb(0,0,0);" rx="1"/>
<text x="224" y="133" style="font-family:sans-serif;font-size:10px;">
exp
</text>
<rect x="1050.875" y="93.0" width="41.0" height="14.0" style="fill:orange; stroke:rgb(0,0,0);" rx="1"/>
<text x="1052" y="102" style="font-family:sans-serif;font-size:10px;">
varDef
</text>
<rect x="405.75" y="186.0" width="8.0" height="14.0" style="fill:orange; stroke:rgb(0,0,0);" rx="1"/>
<text x="407" y="195" style="font-family:sans-serif;font-size:10px;">
[
</text>
</svg>