<svg width="2567.4" height="1433.3000000000002" xmlns="http://www.w3.org/2000/svg" xmlns:xlink="http://www.w3.org/1999/xlink"><line x1="217.0625" y1="7.0" x2="56.0" y2="31.0" style="stroke:black; stroke-width:1px;" />
<line x1="56.0" y1="38.0" x2="13.5" y2="62.0" style="stroke:black; stroke-width:1px;" />
<line x1="56.0" y1="38.0" x2="39.5" y2="62.0" style="stroke:black; stroke-width:1px;" />
<line x1="56.0" y1="38.0" x2="56.0" y2="62.0" style="stroke:black; stroke-width:1px;" />
<line x1="56.0" y1="38.0" x2="71.0" y2="62.0" style="stroke:black; stroke-width:1px;" />
<line x1="56.0" y1="38.0" x2="98.5" y2="62.0" style="stroke:black; stroke-width:1px;" />
<line x1="98.5" y1="69.0" x2="89.5" y2="93.0" style="stroke:black; stroke-width:1px;" />
<line x1="98.5" y1="69.0" x2="107.5" y2="93.0" style="stroke:black; stroke-width:1px;" />
<line x1="217.0625" y1="7.0" x2="178.0" y2="31.0" style="stroke:black; stroke-width:1px;" />
<line x1="178.0" y1="38.0" x2="135.5" y2="62.0" style="stroke:black; stroke-width:1px;" />
<line x1="178.0" y1="38.0" x2="161.5" y2="62.0" style="stroke:black; stroke-width:1px;" />
<line x1="178.0" y1="38.0" x2="178.0" y2="62.0" style="stroke:black; stroke-width:1px;" />
<line x1="178.0" y1="38.0" x2="193.0" y2="62.0" style="stroke:black; stroke-width:1px;" />
<line x1="178.0" y1="38.0" x2="220.5" y2="62.0" style="stroke:black; stroke-width:1px;" />
<line x1="220.5" y1="69.0" x2="179.0" y2="93.0" style="stroke:black; stroke-width:1px;" />
<line x1="220.5" y1="69.0" x2="220.5" y2="93.0" style="stroke:black; stroke-width:1px;" />
<line x1="220.5" y1="100.0" x2="220.5" y2="124.0" style="stroke:black; stroke-width:1px;" />
<line x1="220.5" y1="131.0" x2="220.5" y2="155.0" style="stroke:black; stroke-width:1px;" />
<line x1="220.5" y1="69.0" x2="262.0" y2="93.0" style="stroke:black; stroke-width:1px;" />
<line x1="217.0625" y1="7.0" x2="325.625" y2="31.0" style="stroke:black; stroke-width:1px;" />
<line x1="325.625" y1="38.0" x2="283.625" y2="62.0" style="stroke:black; stroke-width:1px;" />
<line x1="325.625" y1="38.0" x2="309.125" y2="62.0" style="stroke:black; stroke-width:1px;" />
<line x1="325.625" y1="38.0" x2="325.125" y2="62.0" style="stroke:black; stroke-width:1px;" />
<line x1="325.625" y1="38.0" x2="340.125" y2="62.0" style="stroke:black; stroke-width:1px;" />
<line x1="325.625" y1="38.0" x2="367.625" y2="62.0" style="stroke:black; stroke-width:1px;" />
<line x1="367.625" y1="69.0" x2="280.0" y2="93.0" style="stroke:black; stroke-width:1px;" />
<line x1="367.625" y1="69.0" x2="321.5" y2="93.0" style="stroke:black; stroke-width:1px;" />
<line x1="321.5" y1="100.0" x2="321.5" y2="124.0" style="stroke:black; stroke-width:1px;" />
<line x1="321.5" y1="131.0" x2="321.5" y2="155.0" style="stroke:black; stroke-width:1px;" />
<line x1="321.5" y1="162.0" x2="282.5" y2="186.0" style="stroke:black; stroke-width:1px;" />
<line x1="282.5" y1="193.0" x2="282.5" y2="217.0" style="stroke:black; stroke-width:1px;" />
<line x1="321.5" y1="162.0" x2="329.0" y2="186.0" style="stroke:black; stroke-width:1px;" />
<line x1="329.0" y1="193.0" x2="329.0" y2="217.0" style="stroke:black; stroke-width:1px;" />
<line x1="321.5" y1="162.0" x2="360.5" y2="186.0" style="stroke:black; stroke-width:1px;" />
<line x1="367.625" y1="69.0" x2="413.75" y2="93.0" style="stroke:black; stroke-width:1px;" />
<line x1="413.75" y1="100.0" x2="413.75" y2="124.0" style="stroke:black; stroke-width:1px;" />
<line x1="413.75" y1="131.0" x2="377.0" y2="155.0" style="stroke:black; stroke-width:1px;" />
<line x1="377.0" y1="162.0" x2="377.0" y2="186.0" style="stroke:black; stroke-width:1px;" />
<line x1="413.75" y1="131.0" x2="402.0" y2="155.0" style="stroke:black; stroke-width:1px;" />
<line x1="413.75" y1="131.0" x2="427.5" y2="155.0" style="stroke:black; stroke-width:1px;" />
<line x1="427.5" y1="162.0" x2="427.5" y2="186.0" style="stroke:black; stroke-width:1px;" />
<line x1="427.5" y1="193.0" x2="427.5" y2="217.0" style="stroke:black; stroke-width:1px;" />
<line x1="413.75" y1="131.0" x2="450.5" y2="155.0" style="stroke:black; stroke-width:1px;" />
<line x1="367.625" y1="69.0" x2="455.25" y2="93.0" style="stroke:black; stroke-width:1px;" />
<line x1="217.0625" y1="7.0" x2="378.125" y2="31.0" style="stroke:black; stroke-width:1px;" />
<rect x="102.0" y="93.0" width="11.0" height="14.0" style="fill:orange; stroke:rgb(0,0,0);" rx="1"/>
<text x="104" y="102" style="font-family:sans-serif;font-size:10px;">
}
</text>
<rect x="256.5" y="93.0" width="11.0" height="14.0" style="fill:orange; stroke:rgb(0,0,0);" rx="1"/>
<text x="258" y="102" style="font-family:sans-serif;font-size:10px;">
}
</text>
<rect x="274.5" y="93.0" width="11.0" height="14.0" style="fill:orange; stroke:rgb(0,0,0);" rx="1"/>
<text x="276" y="102" style="font-family:sans-serif;font-size:10px;">
{
</text>
<rect x="403.5" y="186.0" width="48.0" height="14.0" style="fill:orange; stroke:rgb(0,0,0);" rx="1"/>
<text x="405" y="195" style="font-family:sans-serif;font-size:10px;">
number
</text>
<rect x="82.0" y="62.0" width="33.0" height="14.0" style="fill:orange; stroke:rgb(0,0,0);" rx="1"/>
<text x="84" y="71" style="font-family:sans-serif;font-size:10px;">
block
</text>
<rect x="273.5" y="217.0" width="18.0" height="14.0" style="fill:orange; stroke:rgb(0,0,0);" rx="1"/>
<text x="275" y="226" style="font-family:sans-serif;font-size:10px;">
int
</text>
<rect x="191.5" y="93.0" width="58.0" height="14.0" style="fill:orange; stroke:rgb(0,0,0);" rx="1"/>
<text x="193" y="102" style="font-family:sans-serif;font-size:10px;">
blockItem
</text>
<rect x="263.5" y="186.0" width="38.0" height="14.0" style="fill:orange; stroke:rgb(0,0,0);" rx="1"/>
<text x="265" y="195" style="font-family:sans-serif;font-size:10px;">
bType
</text>
<rect x="321.125" y="62.0" width="8.0" height="14.0" style="fill:orange; stroke:rgb(0,0,0);" rx="1"/>
<text x="323" y="71" style="font-family:sans-serif;font-size:10px;">
(
</text>
<rect x="188.5625" y="0.0" width="57.0" height="14.0" style="fill:orange; stroke:rgb(0,0,0);" rx="1"/>
<text x="190" y="9" style="font-family:sans-serif;font-size:10px;">
compUnit
</text>
<rect x="336.125" y="62.0" width="8.0" height="14.0" style="fill:orange; stroke:rgb(0,0,0);" rx="1"/>
<text x="338" y="71" style="font-family:sans-serif;font-size:10px;">
)
</text>
<rect x="415.5" y="155.0" width="24.0" height="14.0" style="fill:orange; stroke:rgb(0,0,0);" rx="1"/>
<text x="417" y="164" style="font-family:sans-serif;font-size:10px;">
exp
</text>
<rect x="216.5" y="155.0" width="8.0" height="14.0" style="fill:orange; stroke:rgb(0,0,0);" rx="1"/>
<text x="218" y="164" style="font-family:sans-serif;font-size:10px;">
;
</text>
<rect x="174.0" y="62.0" width="8.0" height="14.0" style="fill:orange; stroke:rgb(0,0,0);" rx="1"/>
<text x="176" y="71" style="font-family:sans-serif;font-size:10px;">
(
</text>
<rect x="173.5" y="93.0" width="11.0" height="14.0" style="fill:orange; stroke:rgb(0,0,0);" rx="1"/>
<text x="175" y="102" style="font-family:sans-serif;font-size:10px;">
{
</text>
<rect x="84.0" y="93.0" width="11.0" height="14.0" style="fill:orange; stroke:rgb(0,0,0);" rx="1"/>
<text x="86" y="102" style="font-family:sans-serif;font-size:10px;">
{
</text>
<rect x="302.125" y="31.0" width="47.0" height="14.0" style="fill:orange; stroke:rgb(0,0,0);" rx="1"/>
<text x="304" y="40" style="font-family:sans-serif;font-size:10px;">
funcDef
</text>
<rect x="356.125" y="31.0" width="44.0" height="14.0" style="fill:orange; stroke:rgb(0,0,0);" rx="1"/>
<text x="358" y="40" style="font-family:sans-serif;font-size:10px;">
&lt;EOF&gt;
</text>
<rect x="156.0" y="62.0" width="11.0" height="14.0" style="fill:orange; stroke:rgb(0,0,0);" rx="1"/>
<text x="158" y="71" style="font-family:sans-serif;font-size:10px;">
b
</text>
<rect x="0.0" y="62.0" width="27.0" height="14.0" style="fill:orange; stroke:rgb(0,0,0);" rx="1"/>
<text x="2" y="71" style="font-family:sans-serif;font-size:10px;">
void
</text>
<rect x="52.0" y="62.0" width="8.0" height="14.0" style="fill:orange; stroke:rgb(0,0,0);" rx="1"/>
<text x="54" y="71" style="font-family:sans-serif;font-size:10px;">
(
</text>
<rect x="204.0" y="62.0" width="33.0" height="14.0" style="fill:orange; stroke:rgb(0,0,0);" rx="1"/>
<text x="206" y="71" style="font-family:sans-serif;font-size:10px;">
block
</text>
<rect x="154.5" y="31.0" width="47.0" height="14.0" style="fill:orange; stroke:rgb(0,0,0);" rx="1"/>
<text x="156" y="40" style="font-family:sans-serif;font-size:10px;">
funcDef
</text>
<rect x="323.5" y="217.0" width="11.0" height="14.0" style="fill:orange; stroke:rgb(0,0,0);" rx="1"/>
<text x="325" y="226" style="font-family:sans-serif;font-size:10px;">
A
</text>
<rect x="351.125" y="62.0" width="33.0" height="14.0" style="fill:orange; stroke:rgb(0,0,0);" rx="1"/>
<text x="353" y="71" style="font-family:sans-serif;font-size:10px;">
block
</text>
<rect x="32.5" y="31.0" width="47.0" height="14.0" style="fill:orange; stroke:rgb(0,0,0);" rx="1"/>
<text x="34" y="40" style="font-family:sans-serif;font-size:10px;">
funcDef
</text>
<rect x="122.0" y="62.0" width="27.0" height="14.0" style="fill:orange; stroke:rgb(0,0,0);" rx="1"/>
<text x="124" y="71" style="font-family:sans-serif;font-size:10px;">
void
</text>
<rect x="365.5" y="155.0" width="23.0" height="14.0" style="fill:orange; stroke:rgb(0,0,0);" rx="1"/>
<text x="367" y="164" style="font-family:sans-serif;font-size:10px;">
lval
</text>
<rect x="371.5" y="186.0" width="11.0" height="14.0" style="fill:orange; stroke:rgb(0,0,0);" rx="1"/>
<text x="373" y="195" style="font-family:sans-serif;font-size:10px;">
A
</text>
<rect x="34.0" y="62.0" width="11.0" height="14.0" style="fill:orange; stroke:rgb(0,0,0);" rx="1"/>
<text x="36" y="71" style="font-family:sans-serif;font-size:10px;">
a
</text>
<rect x="398.75" y="124.0" width="30.0" height="14.0" style="fill:orange; stroke:rgb(0,0,0);" rx="1"/>
<text x="400" y="133" style="font-family:sans-serif;font-size:10px;">
stmt
</text>
<rect x="422.0" y="217.0" width="11.0" height="14.0" style="fill:orange; stroke:rgb(0,0,0);" rx="1"/>
<text x="424" y="226" style="font-family:sans-serif;font-size:10px;">
1
</text>
<rect x="308.0" y="124.0" width="27.0" height="14.0" style="fill:orange; stroke:rgb(0,0,0);" rx="1"/>
<text x="310" y="133" style="font-family:sans-serif;font-size:10px;">
decl
</text>
<rect x="446.5" y="155.0" width="8.0" height="14.0" style="fill:orange; stroke:rgb(0,0,0);" rx="1"/>
<text x="448" y="164" style="font-family:sans-serif;font-size:10px;">
;
</text>
<rect x="356.5" y="186.0" width="8.0" height="14.0" style="fill:orange; stroke:rgb(0,0,0);" rx="1"/>
<text x="358" y="195" style="font-family:sans-serif;font-size:10px;">
;
</text>
<rect x="298.5" y="155.0" width="46.0" height="14.0" style="fill:orange; stroke:rgb(0,0,0);" rx="1"/>
<text x="300" y="164" style="font-family:sans-serif;font-size:10px;">
varDecl
</text>
<rect x="189.0" y="62.0" width="8.0" height="14.0" style="fill:orange; stroke:rgb(0,0,0);" rx="1"/>
<text x="191" y="71" style="font-family:sans-serif;font-size:10px;">
)
</text>
<rect x="205.5" y="124.0" width="30.0" height="14.0" style="fill:orange; stroke:rgb(0,0,0);" rx="1"/>
<text x="207" y="133" style="font-family:sans-serif;font-size:10px;">
stmt
</text>
<rect x="308.5" y="186.0" width="41.0" height="14.0" style="fill:orange; stroke:rgb(0,0,0);" rx="1"/>
<text x="310" y="195" style="font-family:sans-serif;font-size:10px;">
varDef
</text>
<rect x="292.5" y="93.0" width="58.0" height="14.0" style="fill:orange; stroke:rgb(0,0,0);" rx="1"/>
<text x="294" y="102" style="font-family:sans-serif;font-size:10px;">
blockItem
</text>
<rect x="384.75" y="93.0" width="58.0" height="14.0" style="fill:orange; stroke:rgb(0,0,0);" rx="1"/>
<text x="386" y="102" style="font-family:sans-serif;font-size:10px;">
blockItem
</text>
<rect x="304.125" y="62.0" width="10.0" height="14.0" style="fill:orange; stroke:rgb(0,0,0);" rx="1"/>
<text x="306" y="71" style="font-family:sans-serif;font-size:10px;">
c
</text>
<rect x="395.5" y="155.0" width="13.0" height="14.0" style="fill:orange; stroke:rgb(0,0,0);" rx="1"/>
<text x="397" y="164" style="font-family:sans-serif;font-size:10px;">
=
</text>
<rect x="270.125" y="62.0" width="27.0" height="14.0" style="fill:orange; stroke:rgb(0,0,0);" rx="1"/>
<text x="272" y="71" style="font-family:sans-serif;font-size:10px;">
void
</text>
<rect x="449.75" y="93.0" width="11.0" height="14.0" style="fill:orange; stroke:rgb(0,0,0);" rx="1"/>
<text x="451" y="102" style="font-family:sans-serif;font-size:10px;">
}
</text>
<rect x="67.0" y="62.0" width="8.0" height="14.0" style="fill:orange; stroke:rgb(0,0,0);" rx="1"/>
<text x="69" y="71" style="font-family:sans-serif;font-size:10px;">
)
</text>
</svg>