<svg width="2567.4" height="1433.3000000000002" xmlns="http://www.w3.org/2000/svg" xmlns:xlink="http://www.w3.org/1999/xlink"><line x1="242.75" y1="7.0" x2="56.0" y2="31.0" style="stroke:black; stroke-width:1px;" />
<line x1="56.0" y1="38.0" x2="13.5" y2="62.0" style="stroke:black; stroke-width:1px;" />
<line x1="56.0" y1="38.0" x2="39.5" y2="62.0" style="stroke:black; stroke-width:1px;" />
<line x1="56.0" y1="38.0" x2="56.0" y2="62.0" style="stroke:black; stroke-width:1px;" />
<line x1="56.0" y1="38.0" x2="71.0" y2="62.0" style="stroke:black; stroke-width:1px;" />
<line x1="56.0" y1="38.0" x2="98.5" y2="62.0" style="stroke:black; stroke-width:1px;" />
<line x1="98.5" y1="69.0" x2="89.5" y2="93.0" style="stroke:black; stroke-width:1px;" />
<line x1="98.5" y1="69.0" x2="107.5" y2="93.0" style="stroke:black; stroke-width:1px;" />
<line x1="242.75" y1="7.0" x2="178.0" y2="31.0" style="stroke:black; stroke-width:1px;" />
<line x1="178.0" y1="38.0" x2="135.5" y2="62.0" style="stroke:black; stroke-width:1px;" />
<line x1="178.0" y1="38.0" x2="161.5" y2="62.0" style="stroke:black; stroke-width:1px;" />
<line x1="178.0" y1="38.0" x2="178.0" y2="62.0" style="stroke:black; stroke-width:1px;" />
<line x1="178.0" y1="38.0" x2="193.0" y2="62.0" style="stroke:black; stroke-width:1px;" />
<line x1="178.0" y1="38.0" x2="220.5" y2="62.0" style="stroke:black; stroke-width:1px;" />
<line x1="220.5" y1="69.0" x2="179.0" y2="93.0" style="stroke:black; stroke-width:1px;" />
<line x1="220.5" y1="69.0" x2="220.5" y2="93.0" style="stroke:black; stroke-width:1px;" />
<line x1="220.5" y1="100.0" x2="220.5" y2="124.0" style="stroke:black; stroke-width:1px;" />
<line x1="220.5" y1="131.0" x2="220.5" y2="155.0" style="stroke:black; stroke-width:1px;" />
<line x1="220.5" y1="69.0" x2="262.0" y2="93.0" style="stroke:black; stroke-width:1px;" />
<line x1="242.75" y1="7.0" x2="377.0" y2="31.0" style="stroke:black; stroke-width:1px;" />
<line x1="377.0" y1="38.0" x2="335.0" y2="62.0" style="stroke:black; stroke-width:1px;" />
<line x1="377.0" y1="38.0" x2="360.5" y2="62.0" style="stroke:black; stroke-width:1px;" />
<line x1="377.0" y1="38.0" x2="376.5" y2="62.0" style="stroke:black; stroke-width:1px;" />
<line x1="377.0" y1="38.0" x2="391.5" y2="62.0" style="stroke:black; stroke-width:1px;" />
<line x1="377.0" y1="38.0" x2="419.0" y2="62.0" style="stroke:black; stroke-width:1px;" />
<line x1="419.0" y1="69.0" x2="280.0" y2="93.0" style="stroke:black; stroke-width:1px;" />
<line x1="419.0" y1="69.0" x2="321.5" y2="93.0" style="stroke:black; stroke-width:1px;" />
<line x1="321.5" y1="100.0" x2="321.5" y2="124.0" style="stroke:black; stroke-width:1px;" />
<line x1="321.5" y1="131.0" x2="298.25" y2="155.0" style="stroke:black; stroke-width:1px;" />
<line x1="321.5" y1="131.0" x2="314.75" y2="155.0" style="stroke:black; stroke-width:1px;" />
<line x1="321.5" y1="131.0" x2="329.75" y2="155.0" style="stroke:black; stroke-width:1px;" />
<line x1="321.5" y1="131.0" x2="344.75" y2="155.0" style="stroke:black; stroke-width:1px;" />
<line x1="419.0" y1="69.0" x2="386.5" y2="93.0" style="stroke:black; stroke-width:1px;" />
<line x1="386.5" y1="100.0" x2="386.5" y2="124.0" style="stroke:black; stroke-width:1px;" />
<line x1="386.5" y1="131.0" x2="363.25" y2="155.0" style="stroke:black; stroke-width:1px;" />
<line x1="386.5" y1="131.0" x2="379.75" y2="155.0" style="stroke:black; stroke-width:1px;" />
<line x1="386.5" y1="131.0" x2="394.75" y2="155.0" style="stroke:black; stroke-width:1px;" />
<line x1="386.5" y1="131.0" x2="409.75" y2="155.0" style="stroke:black; stroke-width:1px;" />
<line x1="419.0" y1="69.0" x2="451.5" y2="93.0" style="stroke:black; stroke-width:1px;" />
<line x1="451.5" y1="100.0" x2="451.5" y2="124.0" style="stroke:black; stroke-width:1px;" />
<line x1="451.5" y1="131.0" x2="428.25" y2="155.0" style="stroke:black; stroke-width:1px;" />
<line x1="451.5" y1="131.0" x2="444.75" y2="155.0" style="stroke:black; stroke-width:1px;" />
<line x1="451.5" y1="131.0" x2="459.75" y2="155.0" style="stroke:black; stroke-width:1px;" />
<line x1="451.5" y1="131.0" x2="474.75" y2="155.0" style="stroke:black; stroke-width:1px;" />
<line x1="419.0" y1="69.0" x2="516.5" y2="93.0" style="stroke:black; stroke-width:1px;" />
<line x1="516.5" y1="100.0" x2="516.5" y2="124.0" style="stroke:black; stroke-width:1px;" />
<line x1="516.5" y1="131.0" x2="493.25" y2="155.0" style="stroke:black; stroke-width:1px;" />
<line x1="516.5" y1="131.0" x2="509.75" y2="155.0" style="stroke:black; stroke-width:1px;" />
<line x1="516.5" y1="131.0" x2="524.75" y2="155.0" style="stroke:black; stroke-width:1px;" />
<line x1="516.5" y1="131.0" x2="539.75" y2="155.0" style="stroke:black; stroke-width:1px;" />
<line x1="419.0" y1="69.0" x2="558.0" y2="93.0" style="stroke:black; stroke-width:1px;" />
<line x1="242.75" y1="7.0" x2="429.5" y2="31.0" style="stroke:black; stroke-width:1px;" />
<rect x="82.0" y="62.0" width="33.0" height="14.0" style="fill:orange; stroke:rgb(0,0,0);" rx="1"/>
<text x="84" y="71" style="font-family:sans-serif;font-size:10px;">
block
</text>
<rect x="102.0" y="93.0" width="11.0" height="14.0" style="fill:orange; stroke:rgb(0,0,0);" rx="1"/>
<text x="104" y="102" style="font-family:sans-serif;font-size:10px;">
}
</text>
<rect x="205.5" y="124.0" width="30.0" height="14.0" style="fill:orange; stroke:rgb(0,0,0);" rx="1"/>
<text x="207" y="133" style="font-family:sans-serif;font-size:10px;">
stmt
</text>
<rect x="274.5" y="93.0" width="11.0" height="14.0" style="fill:orange; stroke:rgb(0,0,0);" rx="1"/>
<text x="276" y="102" style="font-family:sans-serif;font-size:10px;">
{
</text>
<rect x="34.0" y="62.0" width="11.0" height="14.0" style="fill:orange; stroke:rgb(0,0,0);" rx="1"/>
<text x="36" y="71" style="font-family:sans-serif;font-size:10px;">
a
</text>
<rect x="214.25" y="0.0" width="57.0" height="14.0" style="fill:orange; stroke:rgb(0,0,0);" rx="1"/>
<text x="216" y="9" style="font-family:sans-serif;font-size:10px;">
compUnit
</text>
<rect x="520.75" y="155.0" width="8.0" height="14.0" style="fill:orange; stroke:rgb(0,0,0);" rx="1"/>
<text x="522" y="164" style="font-family:sans-serif;font-size:10px;">
)
</text>
<rect x="407.5" y="31.0" width="44.0" height="14.0" style="fill:orange; stroke:rgb(0,0,0);" rx="1"/>
<text x="409" y="40" style="font-family:sans-serif;font-size:10px;">
&lt;EOF&gt;
</text>
<rect x="440.75" y="155.0" width="8.0" height="14.0" style="fill:orange; stroke:rgb(0,0,0);" rx="1"/>
<text x="442" y="164" style="font-family:sans-serif;font-size:10px;">
(
</text>
<rect x="306.5" y="124.0" width="30.0" height="14.0" style="fill:orange; stroke:rgb(0,0,0);" rx="1"/>
<text x="308" y="133" style="font-family:sans-serif;font-size:10px;">
stmt
</text>
<rect x="455.75" y="155.0" width="8.0" height="14.0" style="fill:orange; stroke:rgb(0,0,0);" rx="1"/>
<text x="457" y="164" style="font-family:sans-serif;font-size:10px;">
)
</text>
<rect x="357.5" y="93.0" width="58.0" height="14.0" style="fill:orange; stroke:rgb(0,0,0);" rx="1"/>
<text x="359" y="102" style="font-family:sans-serif;font-size:10px;">
blockItem
</text>
<rect x="154.5" y="31.0" width="47.0" height="14.0" style="fill:orange; stroke:rgb(0,0,0);" rx="1"/>
<text x="156" y="40" style="font-family:sans-serif;font-size:10px;">
funcDef
</text>
<rect x="422.75" y="155.0" width="11.0" height="14.0" style="fill:orange; stroke:rgb(0,0,0);" rx="1"/>
<text x="424" y="164" style="font-family:sans-serif;font-size:10px;">
b
</text>
<rect x="310.75" y="155.0" width="8.0" height="14.0" style="fill:orange; stroke:rgb(0,0,0);" rx="1"/>
<text x="312" y="164" style="font-family:sans-serif;font-size:10px;">
(
</text>
<rect x="387.5" y="62.0" width="8.0" height="14.0" style="fill:orange; stroke:rgb(0,0,0);" rx="1"/>
<text x="389" y="71" style="font-family:sans-serif;font-size:10px;">
)
</text>
<rect x="340.75" y="155.0" width="8.0" height="14.0" style="fill:orange; stroke:rgb(0,0,0);" rx="1"/>
<text x="342" y="164" style="font-family:sans-serif;font-size:10px;">
;
</text>
<rect x="216.5" y="155.0" width="8.0" height="14.0" style="fill:orange; stroke:rgb(0,0,0);" rx="1"/>
<text x="218" y="164" style="font-family:sans-serif;font-size:10px;">
;
</text>
<rect x="375.75" y="155.0" width="8.0" height="14.0" style="fill:orange; stroke:rgb(0,0,0);" rx="1"/>
<text x="377" y="164" style="font-family:sans-serif;font-size:10px;">
(
</text>
<rect x="390.75" y="155.0" width="8.0" height="14.0" style="fill:orange; stroke:rgb(0,0,0);" rx="1"/>
<text x="392" y="164" style="font-family:sans-serif;font-size:10px;">
)
</text>
<rect x="372.5" y="62.0" width="8.0" height="14.0" style="fill:orange; stroke:rgb(0,0,0);" rx="1"/>
<text x="374" y="71" style="font-family:sans-serif;font-size:10px;">
(
</text>
<rect x="122.0" y="62.0" width="27.0" height="14.0" style="fill:orange; stroke:rgb(0,0,0);" rx="1"/>
<text x="124" y="71" style="font-family:sans-serif;font-size:10px;">
void
</text>
<rect x="174.0" y="62.0" width="8.0" height="14.0" style="fill:orange; stroke:rgb(0,0,0);" rx="1"/>
<text x="176" y="71" style="font-family:sans-serif;font-size:10px;">
(
</text>
<rect x="191.5" y="93.0" width="58.0" height="14.0" style="fill:orange; stroke:rgb(0,0,0);" rx="1"/>
<text x="193" y="102" style="font-family:sans-serif;font-size:10px;">
blockItem
</text>
<rect x="292.5" y="93.0" width="58.0" height="14.0" style="fill:orange; stroke:rgb(0,0,0);" rx="1"/>
<text x="294" y="102" style="font-family:sans-serif;font-size:10px;">
blockItem
</text>
<rect x="32.5" y="31.0" width="47.0" height="14.0" style="fill:orange; stroke:rgb(0,0,0);" rx="1"/>
<text x="34" y="40" style="font-family:sans-serif;font-size:10px;">
funcDef
</text>
<rect x="357.75" y="155.0" width="11.0" height="14.0" style="fill:orange; stroke:rgb(0,0,0);" rx="1"/>
<text x="359" y="164" style="font-family:sans-serif;font-size:10px;">
b
</text>
<rect x="470.75" y="155.0" width="8.0" height="14.0" style="fill:orange; stroke:rgb(0,0,0);" rx="1"/>
<text x="472" y="164" style="font-family:sans-serif;font-size:10px;">
;
</text>
<rect x="321.5" y="62.0" width="27.0" height="14.0" style="fill:orange; stroke:rgb(0,0,0);" rx="1"/>
<text x="323" y="71" style="font-family:sans-serif;font-size:10px;">
void
</text>
<rect x="355.5" y="62.0" width="10.0" height="14.0" style="fill:orange; stroke:rgb(0,0,0);" rx="1"/>
<text x="357" y="71" style="font-family:sans-serif;font-size:10px;">
c
</text>
<rect x="487.5" y="93.0" width="58.0" height="14.0" style="fill:orange; stroke:rgb(0,0,0);" rx="1"/>
<text x="489" y="102" style="font-family:sans-serif;font-size:10px;">
blockItem
</text>
<rect x="501.5" y="124.0" width="30.0" height="14.0" style="fill:orange; stroke:rgb(0,0,0);" rx="1"/>
<text x="503" y="133" style="font-family:sans-serif;font-size:10px;">
stmt
</text>
<rect x="67.0" y="62.0" width="8.0" height="14.0" style="fill:orange; stroke:rgb(0,0,0);" rx="1"/>
<text x="69" y="71" style="font-family:sans-serif;font-size:10px;">
)
</text>
<rect x="156.0" y="62.0" width="11.0" height="14.0" style="fill:orange; stroke:rgb(0,0,0);" rx="1"/>
<text x="158" y="71" style="font-family:sans-serif;font-size:10px;">
b
</text>
<rect x="402.5" y="62.0" width="33.0" height="14.0" style="fill:orange; stroke:rgb(0,0,0);" rx="1"/>
<text x="404" y="71" style="font-family:sans-serif;font-size:10px;">
block
</text>
<rect x="505.75" y="155.0" width="8.0" height="14.0" style="fill:orange; stroke:rgb(0,0,0);" rx="1"/>
<text x="507" y="164" style="font-family:sans-serif;font-size:10px;">
(
</text>
<rect x="353.5" y="31.0" width="47.0" height="14.0" style="fill:orange; stroke:rgb(0,0,0);" rx="1"/>
<text x="355" y="40" style="font-family:sans-serif;font-size:10px;">
funcDef
</text>
<rect x="52.0" y="62.0" width="8.0" height="14.0" style="fill:orange; stroke:rgb(0,0,0);" rx="1"/>
<text x="54" y="71" style="font-family:sans-serif;font-size:10px;">
(
</text>
<rect x="204.0" y="62.0" width="33.0" height="14.0" style="fill:orange; stroke:rgb(0,0,0);" rx="1"/>
<text x="206" y="71" style="font-family:sans-serif;font-size:10px;">
block
</text>
<rect x="422.5" y="93.0" width="58.0" height="14.0" style="fill:orange; stroke:rgb(0,0,0);" rx="1"/>
<text x="424" y="102" style="font-family:sans-serif;font-size:10px;">
blockItem
</text>
<rect x="487.75" y="155.0" width="11.0" height="14.0" style="fill:orange; stroke:rgb(0,0,0);" rx="1"/>
<text x="489" y="164" style="font-family:sans-serif;font-size:10px;">
a
</text>
<rect x="292.75" y="155.0" width="11.0" height="14.0" style="fill:orange; stroke:rgb(0,0,0);" rx="1"/>
<text x="294" y="164" style="font-family:sans-serif;font-size:10px;">
a
</text>
<rect x="325.75" y="155.0" width="8.0" height="14.0" style="fill:orange; stroke:rgb(0,0,0);" rx="1"/>
<text x="327" y="164" style="font-family:sans-serif;font-size:10px;">
)
</text>
<rect x="256.5" y="93.0" width="11.0" height="14.0" style="fill:orange; stroke:rgb(0,0,0);" rx="1"/>
<text x="258" y="102" style="font-family:sans-serif;font-size:10px;">
}
</text>
<rect x="436.5" y="124.0" width="30.0" height="14.0" style="fill:orange; stroke:rgb(0,0,0);" rx="1"/>
<text x="438" y="133" style="font-family:sans-serif;font-size:10px;">
stmt
</text>
<rect x="535.75" y="155.0" width="8.0" height="14.0" style="fill:orange; stroke:rgb(0,0,0);" rx="1"/>
<text x="537" y="164" style="font-family:sans-serif;font-size:10px;">
;
</text>
<rect x="0.0" y="62.0" width="27.0" height="14.0" style="fill:orange; stroke:rgb(0,0,0);" rx="1"/>
<text x="2" y="71" style="font-family:sans-serif;font-size:10px;">
void
</text>
<rect x="371.5" y="124.0" width="30.0" height="14.0" style="fill:orange; stroke:rgb(0,0,0);" rx="1"/>
<text x="373" y="133" style="font-family:sans-serif;font-size:10px;">
stmt
</text>
<rect x="173.5" y="93.0" width="11.0" height="14.0" style="fill:orange; stroke:rgb(0,0,0);" rx="1"/>
<text x="175" y="102" style="font-family:sans-serif;font-size:10px;">
{
</text>
<rect x="552.5" y="93.0" width="11.0" height="14.0" style="fill:orange; stroke:rgb(0,0,0);" rx="1"/>
<text x="554" y="102" style="font-family:sans-serif;font-size:10px;">
}
</text>
<rect x="405.75" y="155.0" width="8.0" height="14.0" style="fill:orange; stroke:rgb(0,0,0);" rx="1"/>
<text x="407" y="164" style="font-family:sans-serif;font-size:10px;">
;
</text>
<rect x="84.0" y="93.0" width="11.0" height="14.0" style="fill:orange; stroke:rgb(0,0,0);" rx="1"/>
<text x="86" y="102" style="font-family:sans-serif;font-size:10px;">
{
</text>
<rect x="189.0" y="62.0" width="8.0" height="14.0" style="fill:orange; stroke:rgb(0,0,0);" rx="1"/>
<text x="191" y="71" style="font-family:sans-serif;font-size:10px;">
)
</text>
</svg>