<svg width="2640.0" height="1507.0000000000002" xmlns="http://www.w3.org/2000/svg" xmlns:xlink="http://www.w3.org/1999/xlink"><line x1="125.0" y1="7.0" x2="98.75" y2="31.0" style="stroke:black; stroke-width:1px;" />
<line x1="98.75" y1="38.0" x2="47.75" y2="62.0" style="stroke:black; stroke-width:1px;" />
<line x1="98.75" y1="38.0" x2="82.25" y2="62.0" style="stroke:black; stroke-width:1px;" />
<line x1="98.75" y1="38.0" x2="107.25" y2="62.0" style="stroke:black; stroke-width:1px;" />
<line x1="98.75" y1="38.0" x2="122.25" y2="62.0" style="stroke:black; stroke-width:1px;" />
<line x1="98.75" y1="38.0" x2="149.75" y2="62.0" style="stroke:black; stroke-width:1px;" />
<line x1="149.75" y1="69.0" x2="5.5" y2="93.0" style="stroke:black; stroke-width:1px;" />
<line x1="149.75" y1="69.0" x2="47.0" y2="93.0" style="stroke:black; stroke-width:1px;" />
<line x1="47.0" y1="100.0" x2="47.0" y2="124.0" style="stroke:black; stroke-width:1px;" />
<line x1="47.0" y1="131.0" x2="47.0" y2="155.0" style="stroke:black; stroke-width:1px;" />
<line x1="47.0" y1="162.0" x2="5.5" y2="186.0" style="stroke:black; stroke-width:1px;" />
<line x1="47.0" y1="162.0" x2="47.0" y2="186.0" style="stroke:black; stroke-width:1px;" />
<line x1="47.0" y1="193.0" x2="47.0" y2="217.0" style="stroke:black; stroke-width:1px;" />
<line x1="47.0" y1="224.0" x2="47.0" y2="248.0" style="stroke:black; stroke-width:1px;" />
<line x1="47.0" y1="162.0" x2="88.5" y2="186.0" style="stroke:black; stroke-width:1px;" />
<line x1="149.75" y1="69.0" x2="252.5" y2="93.0" style="stroke:black; stroke-width:1px;" />
<line x1="252.5" y1="100.0" x2="252.5" y2="124.0" style="stroke:black; stroke-width:1px;" />
<line x1="252.5" y1="131.0" x2="252.5" y2="155.0" style="stroke:black; stroke-width:1px;" />
<line x1="252.5" y1="162.0" x2="106.5" y2="186.0" style="stroke:black; stroke-width:1px;" />
<line x1="252.5" y1="162.0" x2="148.0" y2="186.0" style="stroke:black; stroke-width:1px;" />
<line x1="148.0" y1="193.0" x2="148.0" y2="217.0" style="stroke:black; stroke-width:1px;" />
<line x1="148.0" y1="224.0" x2="148.0" y2="248.0" style="stroke:black; stroke-width:1px;" />
<line x1="148.0" y1="255.0" x2="109.0" y2="279.0" style="stroke:black; stroke-width:1px;" />
<line x1="109.0" y1="286.0" x2="109.0" y2="310.0" style="stroke:black; stroke-width:1px;" />
<line x1="148.0" y1="255.0" x2="155.5" y2="279.0" style="stroke:black; stroke-width:1px;" />
<line x1="155.5" y1="286.0" x2="155.5" y2="310.0" style="stroke:black; stroke-width:1px;" />
<line x1="148.0" y1="255.0" x2="187.0" y2="279.0" style="stroke:black; stroke-width:1px;" />
<line x1="252.5" y1="162.0" x2="245.0" y2="186.0" style="stroke:black; stroke-width:1px;" />
<line x1="245.0" y1="193.0" x2="245.0" y2="217.0" style="stroke:black; stroke-width:1px;" />
<line x1="245.0" y1="224.0" x2="245.0" y2="248.0" style="stroke:black; stroke-width:1px;" />
<line x1="245.0" y1="255.0" x2="203.5" y2="279.0" style="stroke:black; stroke-width:1px;" />
<line x1="245.0" y1="255.0" x2="245.0" y2="279.0" style="stroke:black; stroke-width:1px;" />
<line x1="245.0" y1="286.0" x2="245.0" y2="310.0" style="stroke:black; stroke-width:1px;" />
<line x1="245.0" y1="317.0" x2="245.0" y2="341.0" style="stroke:black; stroke-width:1px;" />
<line x1="245.0" y1="348.0" x2="206.0" y2="372.0" style="stroke:black; stroke-width:1px;" />
<line x1="206.0" y1="379.0" x2="206.0" y2="403.0" style="stroke:black; stroke-width:1px;" />
<line x1="245.0" y1="348.0" x2="252.5" y2="372.0" style="stroke:black; stroke-width:1px;" />
<line x1="252.5" y1="379.0" x2="252.5" y2="403.0" style="stroke:black; stroke-width:1px;" />
<line x1="245.0" y1="348.0" x2="284.0" y2="372.0" style="stroke:black; stroke-width:1px;" />
<line x1="245.0" y1="255.0" x2="286.5" y2="279.0" style="stroke:black; stroke-width:1px;" />
<line x1="252.5" y1="162.0" x2="357.0" y2="186.0" style="stroke:black; stroke-width:1px;" />
<line x1="357.0" y1="193.0" x2="357.0" y2="217.0" style="stroke:black; stroke-width:1px;" />
<line x1="357.0" y1="224.0" x2="357.0" y2="248.0" style="stroke:black; stroke-width:1px;" />
<line x1="357.0" y1="255.0" x2="318.0" y2="279.0" style="stroke:black; stroke-width:1px;" />
<line x1="318.0" y1="286.0" x2="318.0" y2="310.0" style="stroke:black; stroke-width:1px;" />
<line x1="357.0" y1="255.0" x2="364.5" y2="279.0" style="stroke:black; stroke-width:1px;" />
<line x1="364.5" y1="286.0" x2="364.5" y2="310.0" style="stroke:black; stroke-width:1px;" />
<line x1="357.0" y1="255.0" x2="396.0" y2="279.0" style="stroke:black; stroke-width:1px;" />
<line x1="252.5" y1="162.0" x2="398.5" y2="186.0" style="stroke:black; stroke-width:1px;" />
<line x1="149.75" y1="69.0" x2="294.0" y2="93.0" style="stroke:black; stroke-width:1px;" />
<line x1="125.0" y1="7.0" x2="151.25" y2="31.0" style="stroke:black; stroke-width:1px;" />
<rect x="96.5" y="0.0" width="57.0" height="14.0" style="fill:orange; stroke:rgb(0,0,0);" rx="1"/>
<text x="98" y="9" style="font-family:sans-serif;font-size:10px;">
compUnit
</text>
<rect x="103.25" y="62.0" width="8.0" height="14.0" style="fill:orange; stroke:rgb(0,0,0);" rx="1"/>
<text x="105" y="71" style="font-family:sans-serif;font-size:10px;">
(
</text>
<rect x="101.0" y="186.0" width="11.0" height="14.0" style="fill:orange; stroke:rgb(0,0,0);" rx="1"/>
<text x="103" y="195" style="font-family:sans-serif;font-size:10px;">
{
</text>
<rect x="334.0" y="248.0" width="46.0" height="14.0" style="fill:orange; stroke:rgb(0,0,0);" rx="1"/>
<text x="336" y="257" style="font-family:sans-serif;font-size:10px;">
varDecl
</text>
<rect x="393.0" y="186.0" width="11.0" height="14.0" style="fill:orange; stroke:rgb(0,0,0);" rx="1"/>
<text x="395" y="195" style="font-family:sans-serif;font-size:10px;">
}
</text>
<rect x="32.0" y="124.0" width="30.0" height="14.0" style="fill:orange; stroke:rgb(0,0,0);" rx="1"/>
<text x="34" y="133" style="font-family:sans-serif;font-size:10px;">
stmt
</text>
<rect x="198.0" y="279.0" width="11.0" height="14.0" style="fill:orange; stroke:rgb(0,0,0);" rx="1"/>
<text x="200" y="288" style="font-family:sans-serif;font-size:10px;">
{
</text>
<rect x="134.5" y="217.0" width="27.0" height="14.0" style="fill:orange; stroke:rgb(0,0,0);" rx="1"/>
<text x="136" y="226" style="font-family:sans-serif;font-size:10px;">
decl
</text>
<rect x="216.0" y="279.0" width="58.0" height="14.0" style="fill:orange; stroke:rgb(0,0,0);" rx="1"/>
<text x="218" y="288" style="font-family:sans-serif;font-size:10px;">
blockItem
</text>
<rect x="222.0" y="341.0" width="46.0" height="14.0" style="fill:orange; stroke:rgb(0,0,0);" rx="1"/>
<text x="224" y="350" style="font-family:sans-serif;font-size:10px;">
varDecl
</text>
<rect x="75.25" y="31.0" width="47.0" height="14.0" style="fill:orange; stroke:rgb(0,0,0);" rx="1"/>
<text x="77" y="40" style="font-family:sans-serif;font-size:10px;">
funcDef
</text>
<rect x="83.0" y="186.0" width="11.0" height="14.0" style="fill:orange; stroke:rgb(0,0,0);" rx="1"/>
<text x="85" y="195" style="font-family:sans-serif;font-size:10px;">
}
</text>
<rect x="231.5" y="310.0" width="27.0" height="14.0" style="fill:orange; stroke:rgb(0,0,0);" rx="1"/>
<text x="233" y="319" style="font-family:sans-serif;font-size:10px;">
decl
</text>
<rect x="135.0" y="279.0" width="41.0" height="14.0" style="fill:orange; stroke:rgb(0,0,0);" rx="1"/>
<text x="137" y="288" style="font-family:sans-serif;font-size:10px;">
varDef
</text>
<rect x="343.5" y="217.0" width="27.0" height="14.0" style="fill:orange; stroke:rgb(0,0,0);" rx="1"/>
<text x="345" y="226" style="font-family:sans-serif;font-size:10px;">
decl
</text>
<rect x="125.0" y="248.0" width="46.0" height="14.0" style="fill:orange; stroke:rgb(0,0,0);" rx="1"/>
<text x="127" y="257" style="font-family:sans-serif;font-size:10px;">
varDecl
</text>
<rect x="90.0" y="279.0" width="38.0" height="14.0" style="fill:orange; stroke:rgb(0,0,0);" rx="1"/>
<text x="92" y="288" style="font-family:sans-serif;font-size:10px;">
bType
</text>
<rect x="247.0" y="403.0" width="11.0" height="14.0" style="fill:orange; stroke:rgb(0,0,0);" rx="1"/>
<text x="249" y="412" style="font-family:sans-serif;font-size:10px;">
Y
</text>
<rect x="187.0" y="372.0" width="38.0" height="14.0" style="fill:orange; stroke:rgb(0,0,0);" rx="1"/>
<text x="189" y="381" style="font-family:sans-serif;font-size:10px;">
bType
</text>
<rect x="100.0" y="310.0" width="18.0" height="14.0" style="fill:orange; stroke:rgb(0,0,0);" rx="1"/>
<text x="102" y="319" style="font-family:sans-serif;font-size:10px;">
int
</text>
<rect x="119.0" y="186.0" width="58.0" height="14.0" style="fill:orange; stroke:rgb(0,0,0);" rx="1"/>
<text x="121" y="195" style="font-family:sans-serif;font-size:10px;">
blockItem
</text>
<rect x="32.0" y="217.0" width="30.0" height="14.0" style="fill:orange; stroke:rgb(0,0,0);" rx="1"/>
<text x="34" y="226" style="font-family:sans-serif;font-size:10px;">
stmt
</text>
<rect x="197.0" y="403.0" width="18.0" height="14.0" style="fill:orange; stroke:rgb(0,0,0);" rx="1"/>
<text x="199" y="412" style="font-family:sans-serif;font-size:10px;">
int
</text>
<rect x="118.25" y="62.0" width="8.0" height="14.0" style="fill:orange; stroke:rgb(0,0,0);" rx="1"/>
<text x="120" y="71" style="font-family:sans-serif;font-size:10px;">
)
</text>
<rect x="281.0" y="279.0" width="11.0" height="14.0" style="fill:orange; stroke:rgb(0,0,0);" rx="1"/>
<text x="283" y="288" style="font-family:sans-serif;font-size:10px;">
}
</text>
<rect x="133.25" y="62.0" width="33.0" height="14.0" style="fill:orange; stroke:rgb(0,0,0);" rx="1"/>
<text x="135" y="71" style="font-family:sans-serif;font-size:10px;">
block
</text>
<rect x="0.0" y="93.0" width="11.0" height="14.0" style="fill:orange; stroke:rgb(0,0,0);" rx="1"/>
<text x="2" y="102" style="font-family:sans-serif;font-size:10px;">
{
</text>
<rect x="18.0" y="93.0" width="58.0" height="14.0" style="fill:orange; stroke:rgb(0,0,0);" rx="1"/>
<text x="20" y="102" style="font-family:sans-serif;font-size:10px;">
blockItem
</text>
<rect x="358.0" y="310.0" width="13.0" height="14.0" style="fill:orange; stroke:rgb(0,0,0);" rx="1"/>
<text x="360" y="319" style="font-family:sans-serif;font-size:10px;">
Z
</text>
<rect x="299.0" y="279.0" width="38.0" height="14.0" style="fill:orange; stroke:rgb(0,0,0);" rx="1"/>
<text x="301" y="288" style="font-family:sans-serif;font-size:10px;">
bType
</text>
<rect x="129.25" y="31.0" width="44.0" height="14.0" style="fill:orange; stroke:rgb(0,0,0);" rx="1"/>
<text x="131" y="40" style="font-family:sans-serif;font-size:10px;">
&lt;EOF&gt;
</text>
<rect x="237.5" y="124.0" width="30.0" height="14.0" style="fill:orange; stroke:rgb(0,0,0);" rx="1"/>
<text x="239" y="133" style="font-family:sans-serif;font-size:10px;">
stmt
</text>
<rect x="236.0" y="155.0" width="33.0" height="14.0" style="fill:orange; stroke:rgb(0,0,0);" rx="1"/>
<text x="238" y="164" style="font-family:sans-serif;font-size:10px;">
block
</text>
<rect x="328.0" y="186.0" width="58.0" height="14.0" style="fill:orange; stroke:rgb(0,0,0);" rx="1"/>
<text x="330" y="195" style="font-family:sans-serif;font-size:10px;">
blockItem
</text>
<rect x="392.0" y="279.0" width="8.0" height="14.0" style="fill:orange; stroke:rgb(0,0,0);" rx="1"/>
<text x="394" y="288" style="font-family:sans-serif;font-size:10px;">
;
</text>
<rect x="30.5" y="155.0" width="33.0" height="14.0" style="fill:orange; stroke:rgb(0,0,0);" rx="1"/>
<text x="32" y="164" style="font-family:sans-serif;font-size:10px;">
block
</text>
<rect x="18.0" y="186.0" width="58.0" height="14.0" style="fill:orange; stroke:rgb(0,0,0);" rx="1"/>
<text x="20" y="195" style="font-family:sans-serif;font-size:10px;">
blockItem
</text>
<rect x="230.0" y="217.0" width="30.0" height="14.0" style="fill:orange; stroke:rgb(0,0,0);" rx="1"/>
<text x="232" y="226" style="font-family:sans-serif;font-size:10px;">
stmt
</text>
<rect x="216.0" y="186.0" width="58.0" height="14.0" style="fill:orange; stroke:rgb(0,0,0);" rx="1"/>
<text x="218" y="195" style="font-family:sans-serif;font-size:10px;">
blockItem
</text>
<rect x="150.0" y="310.0" width="11.0" height="14.0" style="fill:orange; stroke:rgb(0,0,0);" rx="1"/>
<text x="152" y="319" style="font-family:sans-serif;font-size:10px;">
X
</text>
<rect x="183.0" y="279.0" width="8.0" height="14.0" style="fill:orange; stroke:rgb(0,0,0);" rx="1"/>
<text x="185" y="288" style="font-family:sans-serif;font-size:10px;">
;
</text>
<rect x="0.0" y="186.0" width="11.0" height="14.0" style="fill:orange; stroke:rgb(0,0,0);" rx="1"/>
<text x="2" y="195" style="font-family:sans-serif;font-size:10px;">
{
</text>
<rect x="34.25" y="62.0" width="27.0" height="14.0" style="fill:orange; stroke:rgb(0,0,0);" rx="1"/>
<text x="36" y="71" style="font-family:sans-serif;font-size:10px;">
void
</text>
<rect x="68.25" y="62.0" width="28.0" height="14.0" style="fill:orange; stroke:rgb(0,0,0);" rx="1"/>
<text x="70" y="71" style="font-family:sans-serif;font-size:10px;">
func
</text>
<rect x="228.5" y="248.0" width="33.0" height="14.0" style="fill:orange; stroke:rgb(0,0,0);" rx="1"/>
<text x="230" y="257" style="font-family:sans-serif;font-size:10px;">
block
</text>
<rect x="309.0" y="310.0" width="18.0" height="14.0" style="fill:orange; stroke:rgb(0,0,0);" rx="1"/>
<text x="311" y="319" style="font-family:sans-serif;font-size:10px;">
int
</text>
<rect x="223.5" y="93.0" width="58.0" height="14.0" style="fill:orange; stroke:rgb(0,0,0);" rx="1"/>
<text x="225" y="102" style="font-family:sans-serif;font-size:10px;">
blockItem
</text>
<rect x="280.0" y="372.0" width="8.0" height="14.0" style="fill:orange; stroke:rgb(0,0,0);" rx="1"/>
<text x="282" y="381" style="font-family:sans-serif;font-size:10px;">
;
</text>
<rect x="43.0" y="248.0" width="8.0" height="14.0" style="fill:orange; stroke:rgb(0,0,0);" rx="1"/>
<text x="45" y="257" style="font-family:sans-serif;font-size:10px;">
;
</text>
<rect x="344.0" y="279.0" width="41.0" height="14.0" style="fill:orange; stroke:rgb(0,0,0);" rx="1"/>
<text x="346" y="288" style="font-family:sans-serif;font-size:10px;">
varDef
</text>
<rect x="232.0" y="372.0" width="41.0" height="14.0" style="fill:orange; stroke:rgb(0,0,0);" rx="1"/>
<text x="234" y="381" style="font-family:sans-serif;font-size:10px;">
varDef
</text>
<rect x="288.5" y="93.0" width="11.0" height="14.0" style="fill:orange; stroke:rgb(0,0,0);" rx="1"/>
<text x="290" y="102" style="font-family:sans-serif;font-size:10px;">
}
</text>
</svg>