<svg width="2728.0" height="1416.8000000000002" xmlns="http://www.w3.org/2000/svg" xmlns:xlink="http://www.w3.org/1999/xlink"><line x1="536.625" y1="7.0" x2="510.375" y2="31.0" style="stroke:black; stroke-width:1px;" />
<line x1="510.375" y1="38.0" x2="459.375" y2="62.0" style="stroke:black; stroke-width:1px;" />
<line x1="510.375" y1="38.0" x2="493.875" y2="62.0" style="stroke:black; stroke-width:1px;" />
<line x1="510.375" y1="38.0" x2="518.875" y2="62.0" style="stroke:black; stroke-width:1px;" />
<line x1="510.375" y1="38.0" x2="533.875" y2="62.0" style="stroke:black; stroke-width:1px;" />
<line x1="510.375" y1="38.0" x2="561.375" y2="62.0" style="stroke:black; stroke-width:1px;" />
<line x1="561.375" y1="69.0" x2="16.5" y2="93.0" style="stroke:black; stroke-width:1px;" />
<line x1="561.375" y1="69.0" x2="58.0" y2="93.0" style="stroke:black; stroke-width:1px;" />
<line x1="58.0" y1="100.0" x2="58.0" y2="124.0" style="stroke:black; stroke-width:1px;" />
<line x1="58.0" y1="131.0" x2="58.0" y2="155.0" style="stroke:black; stroke-width:1px;" />
<line x1="58.0" y1="162.0" x2="19.0" y2="186.0" style="stroke:black; stroke-width:1px;" />
<line x1="19.0" y1="193.0" x2="19.0" y2="217.0" style="stroke:black; stroke-width:1px;" />
<line x1="58.0" y1="162.0" x2="65.5" y2="186.0" style="stroke:black; stroke-width:1px;" />
<line x1="65.5" y1="193.0" x2="65.5" y2="217.0" style="stroke:black; stroke-width:1px;" />
<line x1="58.0" y1="162.0" x2="97.0" y2="186.0" style="stroke:black; stroke-width:1px;" />
<line x1="561.375" y1="69.0" x2="150.25" y2="93.0" style="stroke:black; stroke-width:1px;" />
<line x1="150.25" y1="100.0" x2="150.25" y2="124.0" style="stroke:black; stroke-width:1px;" />
<line x1="150.25" y1="131.0" x2="113.5" y2="155.0" style="stroke:black; stroke-width:1px;" />
<line x1="113.5" y1="162.0" x2="113.5" y2="186.0" style="stroke:black; stroke-width:1px;" />
<line x1="150.25" y1="131.0" x2="138.5" y2="155.0" style="stroke:black; stroke-width:1px;" />
<line x1="150.25" y1="131.0" x2="164.0" y2="155.0" style="stroke:black; stroke-width:1px;" />
<line x1="164.0" y1="162.0" x2="164.0" y2="186.0" style="stroke:black; stroke-width:1px;" />
<line x1="164.0" y1="193.0" x2="164.0" y2="217.0" style="stroke:black; stroke-width:1px;" />
<line x1="150.25" y1="131.0" x2="187.0" y2="155.0" style="stroke:black; stroke-width:1px;" />
<line x1="561.375" y1="69.0" x2="251.25" y2="93.0" style="stroke:black; stroke-width:1px;" />
<line x1="251.25" y1="100.0" x2="251.25" y2="124.0" style="stroke:black; stroke-width:1px;" />
<line x1="251.25" y1="131.0" x2="203.5" y2="155.0" style="stroke:black; stroke-width:1px;" />
<line x1="251.25" y1="131.0" x2="220.0" y2="155.0" style="stroke:black; stroke-width:1px;" />
<line x1="251.25" y1="131.0" x2="246.5" y2="155.0" style="stroke:black; stroke-width:1px;" />
<line x1="246.5" y1="162.0" x2="221.0" y2="186.0" style="stroke:black; stroke-width:1px;" />
<line x1="221.0" y1="193.0" x2="221.0" y2="217.0" style="stroke:black; stroke-width:1px;" />
<line x1="221.0" y1="224.0" x2="221.0" y2="248.0" style="stroke:black; stroke-width:1px;" />
<line x1="246.5" y1="162.0" x2="246.5" y2="186.0" style="stroke:black; stroke-width:1px;" />
<line x1="246.5" y1="162.0" x2="272.0" y2="186.0" style="stroke:black; stroke-width:1px;" />
<line x1="272.0" y1="193.0" x2="272.0" y2="217.0" style="stroke:black; stroke-width:1px;" />
<line x1="272.0" y1="224.0" x2="272.0" y2="248.0" style="stroke:black; stroke-width:1px;" />
<line x1="251.25" y1="131.0" x2="273.0" y2="155.0" style="stroke:black; stroke-width:1px;" />
<line x1="251.25" y1="131.0" x2="299.0" y2="155.0" style="stroke:black; stroke-width:1px;" />
<line x1="299.0" y1="162.0" x2="299.0" y2="186.0" style="stroke:black; stroke-width:1px;" />
<line x1="561.375" y1="69.0" x2="383.5" y2="93.0" style="stroke:black; stroke-width:1px;" />
<line x1="383.5" y1="100.0" x2="383.5" y2="124.0" style="stroke:black; stroke-width:1px;" />
<line x1="383.5" y1="131.0" x2="326.5" y2="155.0" style="stroke:black; stroke-width:1px;" />
<line x1="383.5" y1="131.0" x2="343.0" y2="155.0" style="stroke:black; stroke-width:1px;" />
<line x1="383.5" y1="131.0" x2="369.5" y2="155.0" style="stroke:black; stroke-width:1px;" />
<line x1="369.5" y1="162.0" x2="344.0" y2="186.0" style="stroke:black; stroke-width:1px;" />
<line x1="344.0" y1="193.0" x2="344.0" y2="217.0" style="stroke:black; stroke-width:1px;" />
<line x1="344.0" y1="224.0" x2="344.0" y2="248.0" style="stroke:black; stroke-width:1px;" />
<line x1="369.5" y1="162.0" x2="369.5" y2="186.0" style="stroke:black; stroke-width:1px;" />
<line x1="369.5" y1="162.0" x2="395.0" y2="186.0" style="stroke:black; stroke-width:1px;" />
<line x1="395.0" y1="193.0" x2="395.0" y2="217.0" style="stroke:black; stroke-width:1px;" />
<line x1="395.0" y1="224.0" x2="395.0" y2="248.0" style="stroke:black; stroke-width:1px;" />
<line x1="383.5" y1="131.0" x2="405.25" y2="155.0" style="stroke:black; stroke-width:1px;" />
<line x1="383.5" y1="131.0" x2="440.5" y2="155.0" style="stroke:black; stroke-width:1px;" />
<line x1="440.5" y1="162.0" x2="440.5" y2="186.0" style="stroke:black; stroke-width:1px;" />
<line x1="440.5" y1="193.0" x2="431.5" y2="217.0" style="stroke:black; stroke-width:1px;" />
<line x1="440.5" y1="193.0" x2="449.5" y2="217.0" style="stroke:black; stroke-width:1px;" />
<line x1="561.375" y1="69.0" x2="557.5" y2="93.0" style="stroke:black; stroke-width:1px;" />
<line x1="557.5" y1="100.0" x2="557.5" y2="124.0" style="stroke:black; stroke-width:1px;" />
<line x1="557.5" y1="131.0" x2="468.0" y2="155.0" style="stroke:black; stroke-width:1px;" />
<line x1="557.5" y1="131.0" x2="484.5" y2="155.0" style="stroke:black; stroke-width:1px;" />
<line x1="557.5" y1="131.0" x2="511.0" y2="155.0" style="stroke:black; stroke-width:1px;" />
<line x1="511.0" y1="162.0" x2="485.5" y2="186.0" style="stroke:black; stroke-width:1px;" />
<line x1="485.5" y1="193.0" x2="485.5" y2="217.0" style="stroke:black; stroke-width:1px;" />
<line x1="485.5" y1="224.0" x2="485.5" y2="248.0" style="stroke:black; stroke-width:1px;" />
<line x1="511.0" y1="162.0" x2="511.0" y2="186.0" style="stroke:black; stroke-width:1px;" />
<line x1="511.0" y1="162.0" x2="536.5" y2="186.0" style="stroke:black; stroke-width:1px;" />
<line x1="536.5" y1="193.0" x2="536.5" y2="217.0" style="stroke:black; stroke-width:1px;" />
<line x1="536.5" y1="224.0" x2="536.5" y2="248.0" style="stroke:black; stroke-width:1px;" />
<line x1="557.5" y1="131.0" x2="579.25" y2="155.0" style="stroke:black; stroke-width:1px;" />
<line x1="557.5" y1="131.0" x2="647.0" y2="155.0" style="stroke:black; stroke-width:1px;" />
<line x1="647.0" y1="162.0" x2="647.0" y2="186.0" style="stroke:black; stroke-width:1px;" />
<line x1="647.0" y1="193.0" x2="573.0" y2="217.0" style="stroke:black; stroke-width:1px;" />
<line x1="647.0" y1="193.0" x2="614.5" y2="217.0" style="stroke:black; stroke-width:1px;" />
<line x1="614.5" y1="224.0" x2="614.5" y2="248.0" style="stroke:black; stroke-width:1px;" />
<line x1="614.5" y1="255.0" x2="614.5" y2="279.0" style="stroke:black; stroke-width:1px;" />
<line x1="647.0" y1="193.0" x2="679.5" y2="217.0" style="stroke:black; stroke-width:1px;" />
<line x1="679.5" y1="224.0" x2="679.5" y2="248.0" style="stroke:black; stroke-width:1px;" />
<line x1="679.5" y1="255.0" x2="679.5" y2="279.0" style="stroke:black; stroke-width:1px;" />
<line x1="679.5" y1="286.0" x2="640.5" y2="310.0" style="stroke:black; stroke-width:1px;" />
<line x1="640.5" y1="317.0" x2="640.5" y2="341.0" style="stroke:black; stroke-width:1px;" />
<line x1="679.5" y1="286.0" x2="687.0" y2="310.0" style="stroke:black; stroke-width:1px;" />
<line x1="687.0" y1="317.0" x2="665.0" y2="341.0" style="stroke:black; stroke-width:1px;" />
<line x1="687.0" y1="317.0" x2="683.5" y2="341.0" style="stroke:black; stroke-width:1px;" />
<line x1="687.0" y1="317.0" x2="709.0" y2="341.0" style="stroke:black; stroke-width:1px;" />
<line x1="709.0" y1="348.0" x2="709.0" y2="372.0" style="stroke:black; stroke-width:1px;" />
<line x1="709.0" y1="379.0" x2="709.0" y2="403.0" style="stroke:black; stroke-width:1px;" />
<line x1="679.5" y1="286.0" x2="718.5" y2="310.0" style="stroke:black; stroke-width:1px;" />
<line x1="647.0" y1="193.0" x2="721.0" y2="217.0" style="stroke:black; stroke-width:1px;" />
<line x1="561.375" y1="69.0" x2="820.5" y2="93.0" style="stroke:black; stroke-width:1px;" />
<line x1="820.5" y1="100.0" x2="820.5" y2="124.0" style="stroke:black; stroke-width:1px;" />
<line x1="820.5" y1="131.0" x2="727.5" y2="155.0" style="stroke:black; stroke-width:1px;" />
<line x1="820.5" y1="131.0" x2="744.0" y2="155.0" style="stroke:black; stroke-width:1px;" />
<line x1="820.5" y1="131.0" x2="770.5" y2="155.0" style="stroke:black; stroke-width:1px;" />
<line x1="770.5" y1="162.0" x2="745.0" y2="186.0" style="stroke:black; stroke-width:1px;" />
<line x1="745.0" y1="193.0" x2="745.0" y2="217.0" style="stroke:black; stroke-width:1px;" />
<line x1="745.0" y1="224.0" x2="745.0" y2="248.0" style="stroke:black; stroke-width:1px;" />
<line x1="770.5" y1="162.0" x2="770.5" y2="186.0" style="stroke:black; stroke-width:1px;" />
<line x1="770.5" y1="162.0" x2="796.0" y2="186.0" style="stroke:black; stroke-width:1px;" />
<line x1="796.0" y1="193.0" x2="796.0" y2="217.0" style="stroke:black; stroke-width:1px;" />
<line x1="796.0" y1="224.0" x2="796.0" y2="248.0" style="stroke:black; stroke-width:1px;" />
<line x1="820.5" y1="131.0" x2="806.25" y2="155.0" style="stroke:black; stroke-width:1px;" />
<line x1="820.5" y1="131.0" x2="841.5" y2="155.0" style="stroke:black; stroke-width:1px;" />
<line x1="841.5" y1="162.0" x2="841.5" y2="186.0" style="stroke:black; stroke-width:1px;" />
<line x1="841.5" y1="193.0" x2="832.5" y2="217.0" style="stroke:black; stroke-width:1px;" />
<line x1="841.5" y1="193.0" x2="850.5" y2="217.0" style="stroke:black; stroke-width:1px;" />
<line x1="820.5" y1="131.0" x2="877.5" y2="155.0" style="stroke:black; stroke-width:1px;" />
<line x1="820.5" y1="131.0" x2="913.5" y2="155.0" style="stroke:black; stroke-width:1px;" />
<line x1="913.5" y1="162.0" x2="913.5" y2="186.0" style="stroke:black; stroke-width:1px;" />
<line x1="913.5" y1="193.0" x2="904.5" y2="217.0" style="stroke:black; stroke-width:1px;" />
<line x1="913.5" y1="193.0" x2="922.5" y2="217.0" style="stroke:black; stroke-width:1px;" />
<line x1="561.375" y1="69.0" x2="1064.75" y2="93.0" style="stroke:black; stroke-width:1px;" />
<line x1="1064.75" y1="100.0" x2="1064.75" y2="124.0" style="stroke:black; stroke-width:1px;" />
<line x1="1064.75" y1="131.0" x2="941.0" y2="155.0" style="stroke:black; stroke-width:1px;" />
<line x1="1064.75" y1="131.0" x2="957.5" y2="155.0" style="stroke:black; stroke-width:1px;" />
<line x1="1064.75" y1="131.0" x2="984.0" y2="155.0" style="stroke:black; stroke-width:1px;" />
<line x1="984.0" y1="162.0" x2="958.5" y2="186.0" style="stroke:black; stroke-width:1px;" />
<line x1="958.5" y1="193.0" x2="958.5" y2="217.0" style="stroke:black; stroke-width:1px;" />
<line x1="958.5" y1="224.0" x2="958.5" y2="248.0" style="stroke:black; stroke-width:1px;" />
<line x1="984.0" y1="162.0" x2="984.0" y2="186.0" style="stroke:black; stroke-width:1px;" />
<line x1="984.0" y1="162.0" x2="1009.5" y2="186.0" style="stroke:black; stroke-width:1px;" />
<line x1="1009.5" y1="193.0" x2="1009.5" y2="217.0" style="stroke:black; stroke-width:1px;" />
<line x1="1009.5" y1="224.0" x2="1009.5" y2="248.0" style="stroke:black; stroke-width:1px;" />
<line x1="1064.75" y1="131.0" x2="1036.0" y2="155.0" style="stroke:black; stroke-width:1px;" />
<line x1="1064.75" y1="131.0" x2="1087.5" y2="155.0" style="stroke:black; stroke-width:1px;" />
<line x1="1087.5" y1="162.0" x2="1087.5" y2="186.0" style="stroke:black; stroke-width:1px;" />
<line x1="1087.5" y1="193.0" x2="1046.0" y2="217.0" style="stroke:black; stroke-width:1px;" />
<line x1="1087.5" y1="193.0" x2="1087.5" y2="217.0" style="stroke:black; stroke-width:1px;" />
<line x1="1087.5" y1="224.0" x2="1087.5" y2="248.0" style="stroke:black; stroke-width:1px;" />
<line x1="1087.5" y1="255.0" x2="1050.75" y2="279.0" style="stroke:black; stroke-width:1px;" />
<line x1="1050.75" y1="286.0" x2="1050.75" y2="310.0" style="stroke:black; stroke-width:1px;" />
<line x1="1087.5" y1="255.0" x2="1075.75" y2="279.0" style="stroke:black; stroke-width:1px;" />
<line x1="1087.5" y1="255.0" x2="1101.25" y2="279.0" style="stroke:black; stroke-width:1px;" />
<line x1="1101.25" y1="286.0" x2="1078.25" y2="310.0" style="stroke:black; stroke-width:1px;" />
<line x1="1078.25" y1="317.0" x2="1078.25" y2="341.0" style="stroke:black; stroke-width:1px;" />
<line x1="1078.25" y1="348.0" x2="1078.25" y2="372.0" style="stroke:black; stroke-width:1px;" />
<line x1="1101.25" y1="286.0" x2="1101.25" y2="310.0" style="stroke:black; stroke-width:1px;" />
<line x1="1101.25" y1="286.0" x2="1124.25" y2="310.0" style="stroke:black; stroke-width:1px;" />
<line x1="1124.25" y1="317.0" x2="1124.25" y2="341.0" style="stroke:black; stroke-width:1px;" />
<line x1="1124.25" y1="348.0" x2="1124.25" y2="372.0" style="stroke:black; stroke-width:1px;" />
<line x1="1087.5" y1="255.0" x2="1124.25" y2="279.0" style="stroke:black; stroke-width:1px;" />
<line x1="1087.5" y1="193.0" x2="1129.0" y2="217.0" style="stroke:black; stroke-width:1px;" />
<line x1="1064.75" y1="131.0" x2="1138.0" y2="155.0" style="stroke:black; stroke-width:1px;" />
<line x1="1064.75" y1="131.0" x2="1188.5" y2="155.0" style="stroke:black; stroke-width:1px;" />
<line x1="1188.5" y1="162.0" x2="1188.5" y2="186.0" style="stroke:black; stroke-width:1px;" />
<line x1="1188.5" y1="193.0" x2="1147.0" y2="217.0" style="stroke:black; stroke-width:1px;" />
<line x1="1188.5" y1="193.0" x2="1188.5" y2="217.0" style="stroke:black; stroke-width:1px;" />
<line x1="1188.5" y1="224.0" x2="1188.5" y2="248.0" style="stroke:black; stroke-width:1px;" />
<line x1="1188.5" y1="255.0" x2="1151.75" y2="279.0" style="stroke:black; stroke-width:1px;" />
<line x1="1151.75" y1="286.0" x2="1151.75" y2="310.0" style="stroke:black; stroke-width:1px;" />
<line x1="1188.5" y1="255.0" x2="1176.75" y2="279.0" style="stroke:black; stroke-width:1px;" />
<line x1="1188.5" y1="255.0" x2="1202.25" y2="279.0" style="stroke:black; stroke-width:1px;" />
<line x1="1202.25" y1="286.0" x2="1176.75" y2="310.0" style="stroke:black; stroke-width:1px;" />
<line x1="1176.75" y1="317.0" x2="1176.75" y2="341.0" style="stroke:black; stroke-width:1px;" />
<line x1="1176.75" y1="348.0" x2="1176.75" y2="372.0" style="stroke:black; stroke-width:1px;" />
<line x1="1202.25" y1="286.0" x2="1202.25" y2="310.0" style="stroke:black; stroke-width:1px;" />
<line x1="1202.25" y1="286.0" x2="1227.75" y2="310.0" style="stroke:black; stroke-width:1px;" />
<line x1="1227.75" y1="317.0" x2="1227.75" y2="341.0" style="stroke:black; stroke-width:1px;" />
<line x1="1227.75" y1="348.0" x2="1227.75" y2="372.0" style="stroke:black; stroke-width:1px;" />
<line x1="1188.5" y1="255.0" x2="1225.25" y2="279.0" style="stroke:black; stroke-width:1px;" />
<line x1="1188.5" y1="193.0" x2="1230.0" y2="217.0" style="stroke:black; stroke-width:1px;" />
<line x1="561.375" y1="69.0" x2="1106.25" y2="93.0" style="stroke:black; stroke-width:1px;" />
<line x1="536.625" y1="7.0" x2="562.875" y2="31.0" style="stroke:black; stroke-width:1px;" />
<rect x="135.25" y="124.0" width="30.0" height="14.0" style="fill:orange; stroke:rgb(0,0,0);" rx="1"/>
<text x="137" y="133" style="font-family:sans-serif;font-size:10px;">
stmt
</text>
<rect x="968.5" y="155.0" width="31.0" height="14.0" style="fill:orange; stroke:rgb(0,0,0);" rx="1"/>
<text x="970" y="164" style="font-family:sans-serif;font-size:10px;">
cond
</text>
<rect x="332.0" y="186.0" width="24.0" height="14.0" style="fill:orange; stroke:rgb(0,0,0);" rx="1"/>
<text x="334" y="195" style="font-family:sans-serif;font-size:10px;">
exp
</text>
<rect x="1097.25" y="310.0" width="8.0" height="14.0" style="fill:orange; stroke:rgb(0,0,0);" rx="1"/>
<text x="1099" y="319" style="font-family:sans-serif;font-size:10px;">
-
</text>
<rect x="1224.5" y="217.0" width="11.0" height="14.0" style="fill:orange; stroke:rgb(0,0,0);" rx="1"/>
<text x="1226" y="226" style="font-family:sans-serif;font-size:10px;">
}
</text>
<rect x="444.0" y="217.0" width="11.0" height="14.0" style="fill:orange; stroke:rgb(0,0,0);" rx="1"/>
<text x="446" y="226" style="font-family:sans-serif;font-size:10px;">
}
</text>
<rect x="504.5" y="186.0" width="13.0" height="14.0" style="fill:orange; stroke:rgb(0,0,0);" rx="1"/>
<text x="506" y="195" style="font-family:sans-serif;font-size:10px;">
&gt;
</text>
<rect x="11.0" y="93.0" width="11.0" height="14.0" style="fill:orange; stroke:rgb(0,0,0);" rx="1"/>
<text x="13" y="102" style="font-family:sans-serif;font-size:10px;">
{
</text>
<rect x="677.0" y="341.0" width="13.0" height="14.0" style="fill:orange; stroke:rgb(0,0,0);" rx="1"/>
<text x="679" y="350" style="font-family:sans-serif;font-size:10px;">
=
</text>
<rect x="790.5" y="248.0" width="11.0" height="14.0" style="fill:orange; stroke:rgb(0,0,0);" rx="1"/>
<text x="792" y="257" style="font-family:sans-serif;font-size:10px;">
2
</text>
<rect x="338.5" y="248.0" width="11.0" height="14.0" style="fill:orange; stroke:rgb(0,0,0);" rx="1"/>
<text x="340" y="257" style="font-family:sans-serif;font-size:10px;">
a
</text>
<rect x="827.0" y="217.0" width="11.0" height="14.0" style="fill:orange; stroke:rgb(0,0,0);" rx="1"/>
<text x="829" y="226" style="font-family:sans-serif;font-size:10px;">
{
</text>
<rect x="1221.25" y="279.0" width="8.0" height="14.0" style="fill:orange; stroke:rgb(0,0,0);" rx="1"/>
<text x="1223" y="288" style="font-family:sans-serif;font-size:10px;">
;
</text>
<rect x="480.0" y="248.0" width="11.0" height="14.0" style="fill:orange; stroke:rgb(0,0,0);" rx="1"/>
<text x="482" y="257" style="font-family:sans-serif;font-size:10px;">
a
</text>
<rect x="121.25" y="93.0" width="58.0" height="14.0" style="fill:orange; stroke:rgb(0,0,0);" rx="1"/>
<text x="123" y="102" style="font-family:sans-serif;font-size:10px;">
blockItem
</text>
<rect x="368.5" y="124.0" width="30.0" height="14.0" style="fill:orange; stroke:rgb(0,0,0);" rx="1"/>
<text x="370" y="133" style="font-family:sans-serif;font-size:10px;">
stmt
</text>
<rect x="953.0" y="248.0" width="11.0" height="14.0" style="fill:orange; stroke:rgb(0,0,0);" rx="1"/>
<text x="955" y="257" style="font-family:sans-serif;font-size:10px;">
a
</text>
<rect x="650.5" y="217.0" width="58.0" height="14.0" style="fill:orange; stroke:rgb(0,0,0);" rx="1"/>
<text x="652" y="226" style="font-family:sans-serif;font-size:10px;">
blockItem
</text>
<rect x="935.5" y="155.0" width="11.0" height="14.0" style="fill:orange; stroke:rgb(0,0,0);" rx="1"/>
<text x="937" y="164" style="font-family:sans-serif;font-size:10px;">
if
</text>
<rect x="784.0" y="186.0" width="24.0" height="14.0" style="fill:orange; stroke:rgb(0,0,0);" rx="1"/>
<text x="786" y="195" style="font-family:sans-serif;font-size:10px;">
exp
</text>
<rect x="985.5" y="217.0" width="48.0" height="14.0" style="fill:orange; stroke:rgb(0,0,0);" rx="1"/>
<text x="987" y="226" style="font-family:sans-serif;font-size:10px;">
number
</text>
<rect x="284.0" y="155.0" width="30.0" height="14.0" style="fill:orange; stroke:rgb(0,0,0);" rx="1"/>
<text x="286" y="164" style="font-family:sans-serif;font-size:10px;">
stmt
</text>
<rect x="697.0" y="341.0" width="24.0" height="14.0" style="fill:orange; stroke:rgb(0,0,0);" rx="1"/>
<text x="699" y="350" style="font-family:sans-serif;font-size:10px;">
exp
</text>
<rect x="772.0" y="217.0" width="48.0" height="14.0" style="fill:orange; stroke:rgb(0,0,0);" rx="1"/>
<text x="774" y="226" style="font-family:sans-serif;font-size:10px;">
number
</text>
<rect x="529.875" y="62.0" width="8.0" height="14.0" style="fill:orange; stroke:rgb(0,0,0);" rx="1"/>
<text x="531" y="71" style="font-family:sans-serif;font-size:10px;">
)
</text>
<rect x="29.0" y="93.0" width="58.0" height="14.0" style="fill:orange; stroke:rgb(0,0,0);" rx="1"/>
<text x="31" y="102" style="font-family:sans-serif;font-size:10px;">
blockItem
</text>
<rect x="371.0" y="217.0" width="48.0" height="14.0" style="fill:orange; stroke:rgb(0,0,0);" rx="1"/>
<text x="373" y="226" style="font-family:sans-serif;font-size:10px;">
number
</text>
<rect x="825.0" y="186.0" width="33.0" height="14.0" style="fill:orange; stroke:rgb(0,0,0);" rx="1"/>
<text x="827" y="195" style="font-family:sans-serif;font-size:10px;">
block
</text>
<rect x="1215.75" y="310.0" width="24.0" height="14.0" style="fill:orange; stroke:rgb(0,0,0);" rx="1"/>
<text x="1217" y="319" style="font-family:sans-serif;font-size:10px;">
exp
</text>
<rect x="495.5" y="155.0" width="31.0" height="14.0" style="fill:orange; stroke:rgb(0,0,0);" rx="1"/>
<text x="497" y="164" style="font-family:sans-serif;font-size:10px;">
cond
</text>
<rect x="740.0" y="155.0" width="8.0" height="14.0" style="fill:orange; stroke:rgb(0,0,0);" rx="1"/>
<text x="742" y="164" style="font-family:sans-serif;font-size:10px;">
(
</text>
<rect x="1173.5" y="248.0" width="30.0" height="14.0" style="fill:orange; stroke:rgb(0,0,0);" rx="1"/>
<text x="1175" y="257" style="font-family:sans-serif;font-size:10px;">
stmt
</text>
<rect x="567.5" y="217.0" width="11.0" height="14.0" style="fill:orange; stroke:rgb(0,0,0);" rx="1"/>
<text x="569" y="226" style="font-family:sans-serif;font-size:10px;">
{
</text>
<rect x="703.5" y="403.0" width="11.0" height="14.0" style="fill:orange; stroke:rgb(0,0,0);" rx="1"/>
<text x="705" y="412" style="font-family:sans-serif;font-size:10px;">
3
</text>
<rect x="953.5" y="155.0" width="8.0" height="14.0" style="fill:orange; stroke:rgb(0,0,0);" rx="1"/>
<text x="955" y="164" style="font-family:sans-serif;font-size:10px;">
(
</text>
<rect x="1112.25" y="310.0" width="24.0" height="14.0" style="fill:orange; stroke:rgb(0,0,0);" rx="1"/>
<text x="1114" y="319" style="font-family:sans-serif;font-size:10px;">
exp
</text>
<rect x="917.0" y="217.0" width="11.0" height="14.0" style="fill:orange; stroke:rgb(0,0,0);" rx="1"/>
<text x="919" y="226" style="font-family:sans-serif;font-size:10px;">
}
</text>
<rect x="93.0" y="186.0" width="8.0" height="14.0" style="fill:orange; stroke:rgb(0,0,0);" rx="1"/>
<text x="95" y="195" style="font-family:sans-serif;font-size:10px;">
;
</text>
<rect x="630.5" y="186.0" width="33.0" height="14.0" style="fill:orange; stroke:rgb(0,0,0);" rx="1"/>
<text x="632" y="195" style="font-family:sans-serif;font-size:10px;">
block
</text>
<rect x="45.0" y="186.0" width="41.0" height="14.0" style="fill:orange; stroke:rgb(0,0,0);" rx="1"/>
<text x="47" y="195" style="font-family:sans-serif;font-size:10px;">
varDef
</text>
<rect x="898.5" y="155.0" width="30.0" height="14.0" style="fill:orange; stroke:rgb(0,0,0);" rx="1"/>
<text x="900" y="164" style="font-family:sans-serif;font-size:10px;">
stmt
</text>
<rect x="739.5" y="248.0" width="11.0" height="14.0" style="fill:orange; stroke:rgb(0,0,0);" rx="1"/>
<text x="741" y="257" style="font-family:sans-serif;font-size:10px;">
a
</text>
<rect x="102.0" y="155.0" width="23.0" height="14.0" style="fill:orange; stroke:rgb(0,0,0);" rx="1"/>
<text x="104" y="164" style="font-family:sans-serif;font-size:10px;">
lval
</text>
<rect x="1100.75" y="93.0" width="11.0" height="14.0" style="fill:orange; stroke:rgb(0,0,0);" rx="1"/>
<text x="1102" y="102" style="font-family:sans-serif;font-size:10px;">
}
</text>
<rect x="544.875" y="62.0" width="33.0" height="14.0" style="fill:orange; stroke:rgb(0,0,0);" rx="1"/>
<text x="546" y="71" style="font-family:sans-serif;font-size:10px;">
block
</text>
<rect x="791.5" y="93.0" width="58.0" height="14.0" style="fill:orange; stroke:rgb(0,0,0);" rx="1"/>
<text x="793" y="102" style="font-family:sans-serif;font-size:10px;">
blockItem
</text>
<rect x="997.5" y="186.0" width="24.0" height="14.0" style="fill:orange; stroke:rgb(0,0,0);" rx="1"/>
<text x="999" y="195" style="font-family:sans-serif;font-size:10px;">
exp
</text>
<rect x="1146.25" y="310.0" width="11.0" height="14.0" style="fill:orange; stroke:rgb(0,0,0);" rx="1"/>
<text x="1148" y="319" style="font-family:sans-serif;font-size:10px;">
a
</text>
<rect x="666.0" y="248.0" width="27.0" height="14.0" style="fill:orange; stroke:rgb(0,0,0);" rx="1"/>
<text x="668" y="257" style="font-family:sans-serif;font-size:10px;">
decl
</text>
<rect x="1058.5" y="217.0" width="58.0" height="14.0" style="fill:orange; stroke:rgb(0,0,0);" rx="1"/>
<text x="1060" y="226" style="font-family:sans-serif;font-size:10px;">
blockItem
</text>
<rect x="44.5" y="124.0" width="27.0" height="14.0" style="fill:orange; stroke:rgb(0,0,0);" rx="1"/>
<text x="46" y="133" style="font-family:sans-serif;font-size:10px;">
decl
</text>
<rect x="108.0" y="186.0" width="11.0" height="14.0" style="fill:orange; stroke:rgb(0,0,0);" rx="1"/>
<text x="110" y="195" style="font-family:sans-serif;font-size:10px;">
a
</text>
<rect x="209.0" y="186.0" width="24.0" height="14.0" style="fill:orange; stroke:rgb(0,0,0);" rx="1"/>
<text x="211" y="195" style="font-family:sans-serif;font-size:10px;">
exp
</text>
<rect x="685.0" y="372.0" width="48.0" height="14.0" style="fill:orange; stroke:rgb(0,0,0);" rx="1"/>
<text x="687" y="381" style="font-family:sans-serif;font-size:10px;">
number
</text>
<rect x="1120.25" y="279.0" width="8.0" height="14.0" style="fill:orange; stroke:rgb(0,0,0);" rx="1"/>
<text x="1122" y="288" style="font-family:sans-serif;font-size:10px;">
;
</text>
<rect x="1164.75" y="310.0" width="24.0" height="14.0" style="fill:orange; stroke:rgb(0,0,0);" rx="1"/>
<text x="1166" y="319" style="font-family:sans-serif;font-size:10px;">
exp
</text>
<rect x="266.5" y="248.0" width="11.0" height="14.0" style="fill:orange; stroke:rgb(0,0,0);" rx="1"/>
<text x="268" y="257" style="font-family:sans-serif;font-size:10px;">
0
</text>
<rect x="215.5" y="248.0" width="11.0" height="14.0" style="fill:orange; stroke:rgb(0,0,0);" rx="1"/>
<text x="217" y="257" style="font-family:sans-serif;font-size:10px;">
a
</text>
<rect x="363.0" y="186.0" width="13.0" height="14.0" style="fill:orange; stroke:rgb(0,0,0);" rx="1"/>
<text x="365" y="195" style="font-family:sans-serif;font-size:10px;">
&gt;
</text>
<rect x="621.5" y="310.0" width="38.0" height="14.0" style="fill:orange; stroke:rgb(0,0,0);" rx="1"/>
<text x="623" y="319" style="font-family:sans-serif;font-size:10px;">
bType
</text>
<rect x="1066.25" y="310.0" width="24.0" height="14.0" style="fill:orange; stroke:rgb(0,0,0);" rx="1"/>
<text x="1068" y="319" style="font-family:sans-serif;font-size:10px;">
exp
</text>
<rect x="1054.25" y="341.0" width="48.0" height="14.0" style="fill:orange; stroke:rgb(0,0,0);" rx="1"/>
<text x="1056" y="350" style="font-family:sans-serif;font-size:10px;">
number
</text>
<rect x="1152.75" y="341.0" width="48.0" height="14.0" style="fill:orange; stroke:rgb(0,0,0);" rx="1"/>
<text x="1154" y="350" style="font-family:sans-serif;font-size:10px;">
number
</text>
<rect x="222.25" y="93.0" width="58.0" height="14.0" style="fill:orange; stroke:rgb(0,0,0);" rx="1"/>
<text x="224" y="102" style="font-family:sans-serif;font-size:10px;">
blockItem
</text>
<rect x="198.0" y="155.0" width="11.0" height="14.0" style="fill:orange; stroke:rgb(0,0,0);" rx="1"/>
<text x="200" y="164" style="font-family:sans-serif;font-size:10px;">
if
</text>
<rect x="424.0" y="186.0" width="33.0" height="14.0" style="fill:orange; stroke:rgb(0,0,0);" rx="1"/>
<text x="426" y="195" style="font-family:sans-serif;font-size:10px;">
block
</text>
<rect x="389.5" y="248.0" width="11.0" height="14.0" style="fill:orange; stroke:rgb(0,0,0);" rx="1"/>
<text x="391" y="257" style="font-family:sans-serif;font-size:10px;">
0
</text>
<rect x="575.25" y="155.0" width="8.0" height="14.0" style="fill:orange; stroke:rgb(0,0,0);" rx="1"/>
<text x="577" y="164" style="font-family:sans-serif;font-size:10px;">
)
</text>
<rect x="805.5" y="124.0" width="30.0" height="14.0" style="fill:orange; stroke:rgb(0,0,0);" rx="1"/>
<text x="807" y="133" style="font-family:sans-serif;font-size:10px;">
stmt
</text>
<rect x="755.0" y="155.0" width="31.0" height="14.0" style="fill:orange; stroke:rgb(0,0,0);" rx="1"/>
<text x="757" y="164" style="font-family:sans-serif;font-size:10px;">
cond
</text>
<rect x="425.5" y="155.0" width="30.0" height="14.0" style="fill:orange; stroke:rgb(0,0,0);" rx="1"/>
<text x="427" y="164" style="font-family:sans-serif;font-size:10px;">
stmt
</text>
<rect x="401.25" y="155.0" width="8.0" height="14.0" style="fill:orange; stroke:rgb(0,0,0);" rx="1"/>
<text x="403" y="164" style="font-family:sans-serif;font-size:10px;">
)
</text>
<rect x="479.875" y="62.0" width="28.0" height="14.0" style="fill:orange; stroke:rgb(0,0,0);" rx="1"/>
<text x="481" y="71" style="font-family:sans-serif;font-size:10px;">
func
</text>
<rect x="269.0" y="155.0" width="8.0" height="14.0" style="fill:orange; stroke:rgb(0,0,0);" rx="1"/>
<text x="271" y="164" style="font-family:sans-serif;font-size:10px;">
)
</text>
<rect x="656.5" y="279.0" width="46.0" height="14.0" style="fill:orange; stroke:rgb(0,0,0);" rx="1"/>
<text x="658" y="288" style="font-family:sans-serif;font-size:10px;">
varDecl
</text>
<rect x="524.5" y="186.0" width="24.0" height="14.0" style="fill:orange; stroke:rgb(0,0,0);" rx="1"/>
<text x="526" y="195" style="font-family:sans-serif;font-size:10px;">
exp
</text>
<rect x="714.5" y="310.0" width="8.0" height="14.0" style="fill:orange; stroke:rgb(0,0,0);" rx="1"/>
<text x="716" y="319" style="font-family:sans-serif;font-size:10px;">
;
</text>
<rect x="715.5" y="217.0" width="11.0" height="14.0" style="fill:orange; stroke:rgb(0,0,0);" rx="1"/>
<text x="717" y="226" style="font-family:sans-serif;font-size:10px;">
}
</text>
<rect x="1004.0" y="248.0" width="11.0" height="14.0" style="fill:orange; stroke:rgb(0,0,0);" rx="1"/>
<text x="1006" y="257" style="font-family:sans-serif;font-size:10px;">
2
</text>
<rect x="35.0" y="155.0" width="46.0" height="14.0" style="fill:orange; stroke:rgb(0,0,0);" rx="1"/>
<text x="37" y="164" style="font-family:sans-serif;font-size:10px;">
varDecl
</text>
<rect x="1124.0" y="155.0" width="28.0" height="14.0" style="fill:orange; stroke:rgb(0,0,0);" rx="1"/>
<text x="1126" y="164" style="font-family:sans-serif;font-size:10px;">
else
</text>
<rect x="426.0" y="217.0" width="11.0" height="14.0" style="fill:orange; stroke:rgb(0,0,0);" rx="1"/>
<text x="428" y="226" style="font-family:sans-serif;font-size:10px;">
{
</text>
<rect x="826.5" y="155.0" width="30.0" height="14.0" style="fill:orange; stroke:rgb(0,0,0);" rx="1"/>
<text x="828" y="164" style="font-family:sans-serif;font-size:10px;">
stmt
</text>
<rect x="1040.5" y="217.0" width="11.0" height="14.0" style="fill:orange; stroke:rgb(0,0,0);" rx="1"/>
<text x="1042" y="226" style="font-family:sans-serif;font-size:10px;">
{
</text>
<rect x="1039.25" y="279.0" width="23.0" height="14.0" style="fill:orange; stroke:rgb(0,0,0);" rx="1"/>
<text x="1041" y="288" style="font-family:sans-serif;font-size:10px;">
lval
</text>
<rect x="947.0" y="217.0" width="23.0" height="14.0" style="fill:orange; stroke:rgb(0,0,0);" rx="1"/>
<text x="949" y="226" style="font-family:sans-serif;font-size:10px;">
lval
</text>
<rect x="660.0" y="341.0" width="10.0" height="14.0" style="fill:orange; stroke:rgb(0,0,0);" rx="1"/>
<text x="662" y="350" style="font-family:sans-serif;font-size:10px;">
x
</text>
<rect x="462.5" y="155.0" width="11.0" height="14.0" style="fill:orange; stroke:rgb(0,0,0);" rx="1"/>
<text x="464" y="164" style="font-family:sans-serif;font-size:10px;">
if
</text>
<rect x="354.5" y="93.0" width="58.0" height="14.0" style="fill:orange; stroke:rgb(0,0,0);" rx="1"/>
<text x="356" y="102" style="font-family:sans-serif;font-size:10px;">
blockItem
</text>
<rect x="445.875" y="62.0" width="27.0" height="14.0" style="fill:orange; stroke:rgb(0,0,0);" rx="1"/>
<text x="447" y="71" style="font-family:sans-serif;font-size:10px;">
void
</text>
<rect x="321.0" y="155.0" width="11.0" height="14.0" style="fill:orange; stroke:rgb(0,0,0);" rx="1"/>
<text x="323" y="164" style="font-family:sans-serif;font-size:10px;">
if
</text>
<rect x="0.0" y="186.0" width="38.0" height="14.0" style="fill:orange; stroke:rgb(0,0,0);" rx="1"/>
<text x="2" y="195" style="font-family:sans-serif;font-size:10px;">
bType
</text>
<rect x="863.5" y="155.0" width="28.0" height="14.0" style="fill:orange; stroke:rgb(0,0,0);" rx="1"/>
<text x="865" y="164" style="font-family:sans-serif;font-size:10px;">
else
</text>
<rect x="1123.5" y="217.0" width="11.0" height="14.0" style="fill:orange; stroke:rgb(0,0,0);" rx="1"/>
<text x="1125" y="226" style="font-family:sans-serif;font-size:10px;">
}
</text>
<rect x="209.5" y="217.0" width="23.0" height="14.0" style="fill:orange; stroke:rgb(0,0,0);" rx="1"/>
<text x="211" y="226" style="font-family:sans-serif;font-size:10px;">
lval
</text>
<rect x="599.5" y="248.0" width="30.0" height="14.0" style="fill:orange; stroke:rgb(0,0,0);" rx="1"/>
<text x="601" y="257" style="font-family:sans-serif;font-size:10px;">
stmt
</text>
<rect x="899.0" y="217.0" width="11.0" height="14.0" style="fill:orange; stroke:rgb(0,0,0);" rx="1"/>
<text x="901" y="226" style="font-family:sans-serif;font-size:10px;">
{
</text>
<rect x="1045.25" y="310.0" width="11.0" height="14.0" style="fill:orange; stroke:rgb(0,0,0);" rx="1"/>
<text x="1047" y="319" style="font-family:sans-serif;font-size:10px;">
a
</text>
<rect x="1216.25" y="341.0" width="23.0" height="14.0" style="fill:orange; stroke:rgb(0,0,0);" rx="1"/>
<text x="1218" y="350" style="font-family:sans-serif;font-size:10px;">
lval
</text>
<rect x="1141.5" y="217.0" width="11.0" height="14.0" style="fill:orange; stroke:rgb(0,0,0);" rx="1"/>
<text x="1143" y="226" style="font-family:sans-serif;font-size:10px;">
{
</text>
<rect x="1173.5" y="155.0" width="30.0" height="14.0" style="fill:orange; stroke:rgb(0,0,0);" rx="1"/>
<text x="1175" y="164" style="font-family:sans-serif;font-size:10px;">
stmt
</text>
<rect x="528.5" y="93.0" width="58.0" height="14.0" style="fill:orange; stroke:rgb(0,0,0);" rx="1"/>
<text x="530" y="102" style="font-family:sans-serif;font-size:10px;">
blockItem
</text>
<rect x="610.5" y="279.0" width="8.0" height="14.0" style="fill:orange; stroke:rgb(0,0,0);" rx="1"/>
<text x="612" y="288" style="font-family:sans-serif;font-size:10px;">
;
</text>
<rect x="764.0" y="186.0" width="13.0" height="14.0" style="fill:orange; stroke:rgb(0,0,0);" rx="1"/>
<text x="766" y="195" style="font-family:sans-serif;font-size:10px;">
&gt;
</text>
<rect x="480.5" y="155.0" width="8.0" height="14.0" style="fill:orange; stroke:rgb(0,0,0);" rx="1"/>
<text x="482" y="164" style="font-family:sans-serif;font-size:10px;">
(
</text>
<rect x="236.25" y="124.0" width="30.0" height="14.0" style="fill:orange; stroke:rgb(0,0,0);" rx="1"/>
<text x="238" y="133" style="font-family:sans-serif;font-size:10px;">
stmt
</text>
<rect x="542.5" y="124.0" width="30.0" height="14.0" style="fill:orange; stroke:rgb(0,0,0);" rx="1"/>
<text x="544" y="133" style="font-family:sans-serif;font-size:10px;">
stmt
</text>
<rect x="514.875" y="62.0" width="8.0" height="14.0" style="fill:orange; stroke:rgb(0,0,0);" rx="1"/>
<text x="516" y="71" style="font-family:sans-serif;font-size:10px;">
(
</text>
<rect x="248.0" y="217.0" width="48.0" height="14.0" style="fill:orange; stroke:rgb(0,0,0);" rx="1"/>
<text x="250" y="226" style="font-family:sans-serif;font-size:10px;">
number
</text>
<rect x="152.0" y="155.0" width="24.0" height="14.0" style="fill:orange; stroke:rgb(0,0,0);" rx="1"/>
<text x="154" y="164" style="font-family:sans-serif;font-size:10px;">
exp
</text>
<rect x="473.5" y="186.0" width="24.0" height="14.0" style="fill:orange; stroke:rgb(0,0,0);" rx="1"/>
<text x="475" y="195" style="font-family:sans-serif;font-size:10px;">
exp
</text>
<rect x="585.5" y="217.0" width="58.0" height="14.0" style="fill:orange; stroke:rgb(0,0,0);" rx="1"/>
<text x="587" y="226" style="font-family:sans-serif;font-size:10px;">
blockItem
</text>
<rect x="666.5" y="310.0" width="41.0" height="14.0" style="fill:orange; stroke:rgb(0,0,0);" rx="1"/>
<text x="668" y="319" style="font-family:sans-serif;font-size:10px;">
varDef
</text>
<rect x="897.0" y="186.0" width="33.0" height="14.0" style="fill:orange; stroke:rgb(0,0,0);" rx="1"/>
<text x="899" y="195" style="font-family:sans-serif;font-size:10px;">
block
</text>
<rect x="1069.25" y="279.0" width="13.0" height="14.0" style="fill:orange; stroke:rgb(0,0,0);" rx="1"/>
<text x="1071" y="288" style="font-family:sans-serif;font-size:10px;">
=
</text>
<rect x="1118.75" y="372.0" width="11.0" height="14.0" style="fill:orange; stroke:rgb(0,0,0);" rx="1"/>
<text x="1120" y="381" style="font-family:sans-serif;font-size:10px;">
a
</text>
<rect x="1140.25" y="279.0" width="23.0" height="14.0" style="fill:orange; stroke:rgb(0,0,0);" rx="1"/>
<text x="1142" y="288" style="font-family:sans-serif;font-size:10px;">
lval
</text>
<rect x="295.0" y="186.0" width="8.0" height="14.0" style="fill:orange; stroke:rgb(0,0,0);" rx="1"/>
<text x="297" y="195" style="font-family:sans-serif;font-size:10px;">
;
</text>
<rect x="339.0" y="155.0" width="8.0" height="14.0" style="fill:orange; stroke:rgb(0,0,0);" rx="1"/>
<text x="341" y="164" style="font-family:sans-serif;font-size:10px;">
(
</text>
<rect x="733.5" y="217.0" width="23.0" height="14.0" style="fill:orange; stroke:rgb(0,0,0);" rx="1"/>
<text x="735" y="226" style="font-family:sans-serif;font-size:10px;">
lval
</text>
<rect x="1072.75" y="372.0" width="11.0" height="14.0" style="fill:orange; stroke:rgb(0,0,0);" rx="1"/>
<text x="1074" y="381" style="font-family:sans-serif;font-size:10px;">
2
</text>
<rect x="540.875" y="31.0" width="44.0" height="14.0" style="fill:orange; stroke:rgb(0,0,0);" rx="1"/>
<text x="542" y="40" style="font-family:sans-serif;font-size:10px;">
&lt;EOF&gt;
</text>
<rect x="1035.75" y="93.0" width="58.0" height="14.0" style="fill:orange; stroke:rgb(0,0,0);" rx="1"/>
<text x="1037" y="102" style="font-family:sans-serif;font-size:10px;">
blockItem
</text>
<rect x="1071.0" y="186.0" width="33.0" height="14.0" style="fill:orange; stroke:rgb(0,0,0);" rx="1"/>
<text x="1073" y="195" style="font-family:sans-serif;font-size:10px;">
block
</text>
<rect x="1170.25" y="279.0" width="13.0" height="14.0" style="fill:orange; stroke:rgb(0,0,0);" rx="1"/>
<text x="1172" y="288" style="font-family:sans-serif;font-size:10px;">
=
</text>
<rect x="1049.75" y="124.0" width="30.0" height="14.0" style="fill:orange; stroke:rgb(0,0,0);" rx="1"/>
<text x="1051" y="133" style="font-family:sans-serif;font-size:10px;">
stmt
</text>
<rect x="845.0" y="217.0" width="11.0" height="14.0" style="fill:orange; stroke:rgb(0,0,0);" rx="1"/>
<text x="847" y="226" style="font-family:sans-serif;font-size:10px;">
}
</text>
<rect x="722.0" y="155.0" width="11.0" height="14.0" style="fill:orange; stroke:rgb(0,0,0);" rx="1"/>
<text x="724" y="164" style="font-family:sans-serif;font-size:10px;">
if
</text>
<rect x="140.0" y="186.0" width="48.0" height="14.0" style="fill:orange; stroke:rgb(0,0,0);" rx="1"/>
<text x="142" y="195" style="font-family:sans-serif;font-size:10px;">
number
</text>
<rect x="733.0" y="186.0" width="24.0" height="14.0" style="fill:orange; stroke:rgb(0,0,0);" rx="1"/>
<text x="735" y="195" style="font-family:sans-serif;font-size:10px;">
exp
</text>
<rect x="1159.5" y="217.0" width="58.0" height="14.0" style="fill:orange; stroke:rgb(0,0,0);" rx="1"/>
<text x="1161" y="226" style="font-family:sans-serif;font-size:10px;">
blockItem
</text>
<rect x="1171.25" y="372.0" width="11.0" height="14.0" style="fill:orange; stroke:rgb(0,0,0);" rx="1"/>
<text x="1173" y="381" style="font-family:sans-serif;font-size:10px;">
2
</text>
<rect x="216.0" y="155.0" width="8.0" height="14.0" style="fill:orange; stroke:rgb(0,0,0);" rx="1"/>
<text x="218" y="164" style="font-family:sans-serif;font-size:10px;">
(
</text>
<rect x="183.0" y="155.0" width="8.0" height="14.0" style="fill:orange; stroke:rgb(0,0,0);" rx="1"/>
<text x="185" y="164" style="font-family:sans-serif;font-size:10px;">
;
</text>
<rect x="802.25" y="155.0" width="8.0" height="14.0" style="fill:orange; stroke:rgb(0,0,0);" rx="1"/>
<text x="804" y="164" style="font-family:sans-serif;font-size:10px;">
)
</text>
<rect x="1032.0" y="155.0" width="8.0" height="14.0" style="fill:orange; stroke:rgb(0,0,0);" rx="1"/>
<text x="1034" y="164" style="font-family:sans-serif;font-size:10px;">
)
</text>
<rect x="1172.0" y="186.0" width="33.0" height="14.0" style="fill:orange; stroke:rgb(0,0,0);" rx="1"/>
<text x="1174" y="195" style="font-family:sans-serif;font-size:10px;">
block
</text>
<rect x="383.0" y="186.0" width="24.0" height="14.0" style="fill:orange; stroke:rgb(0,0,0);" rx="1"/>
<text x="385" y="195" style="font-family:sans-serif;font-size:10px;">
exp
</text>
<rect x="632.0" y="155.0" width="30.0" height="14.0" style="fill:orange; stroke:rgb(0,0,0);" rx="1"/>
<text x="634" y="164" style="font-family:sans-serif;font-size:10px;">
stmt
</text>
<rect x="631.5" y="341.0" width="18.0" height="14.0" style="fill:orange; stroke:rgb(0,0,0);" rx="1"/>
<text x="633" y="350" style="font-family:sans-serif;font-size:10px;">
int
</text>
<rect x="10.0" y="217.0" width="18.0" height="14.0" style="fill:orange; stroke:rgb(0,0,0);" rx="1"/>
<text x="12" y="226" style="font-family:sans-serif;font-size:10px;">
int
</text>
<rect x="531.0" y="248.0" width="11.0" height="14.0" style="fill:orange; stroke:rgb(0,0,0);" rx="1"/>
<text x="533" y="257" style="font-family:sans-serif;font-size:10px;">
1
</text>
<rect x="1222.25" y="372.0" width="11.0" height="14.0" style="fill:orange; stroke:rgb(0,0,0);" rx="1"/>
<text x="1224" y="381" style="font-family:sans-serif;font-size:10px;">
a
</text>
<rect x="332.5" y="217.0" width="23.0" height="14.0" style="fill:orange; stroke:rgb(0,0,0);" rx="1"/>
<text x="334" y="226" style="font-family:sans-serif;font-size:10px;">
lval
</text>
<rect x="240.0" y="186.0" width="13.0" height="14.0" style="fill:orange; stroke:rgb(0,0,0);" rx="1"/>
<text x="242" y="195" style="font-family:sans-serif;font-size:10px;">
&gt;
</text>
<rect x="354.0" y="155.0" width="31.0" height="14.0" style="fill:orange; stroke:rgb(0,0,0);" rx="1"/>
<text x="356" y="164" style="font-family:sans-serif;font-size:10px;">
cond
</text>
<rect x="946.5" y="186.0" width="24.0" height="14.0" style="fill:orange; stroke:rgb(0,0,0);" rx="1"/>
<text x="948" y="195" style="font-family:sans-serif;font-size:10px;">
exp
</text>
<rect x="1190.25" y="279.0" width="24.0" height="14.0" style="fill:orange; stroke:rgb(0,0,0);" rx="1"/>
<text x="1192" y="288" style="font-family:sans-serif;font-size:10px;">
exp
</text>
<rect x="1072.5" y="155.0" width="30.0" height="14.0" style="fill:orange; stroke:rgb(0,0,0);" rx="1"/>
<text x="1074" y="164" style="font-family:sans-serif;font-size:10px;">
stmt
</text>
<rect x="977.5" y="186.0" width="13.0" height="14.0" style="fill:orange; stroke:rgb(0,0,0);" rx="1"/>
<text x="979" y="195" style="font-family:sans-serif;font-size:10px;">
&lt;
</text>
<rect x="486.875" y="31.0" width="47.0" height="14.0" style="fill:orange; stroke:rgb(0,0,0);" rx="1"/>
<text x="488" y="40" style="font-family:sans-serif;font-size:10px;">
funcDef
</text>
<rect x="1072.5" y="248.0" width="30.0" height="14.0" style="fill:orange; stroke:rgb(0,0,0);" rx="1"/>
<text x="1074" y="257" style="font-family:sans-serif;font-size:10px;">
stmt
</text>
<rect x="1112.75" y="341.0" width="23.0" height="14.0" style="fill:orange; stroke:rgb(0,0,0);" rx="1"/>
<text x="1114" y="350" style="font-family:sans-serif;font-size:10px;">
lval
</text>
<rect x="474.0" y="217.0" width="23.0" height="14.0" style="fill:orange; stroke:rgb(0,0,0);" rx="1"/>
<text x="476" y="226" style="font-family:sans-serif;font-size:10px;">
lval
</text>
<rect x="60.0" y="217.0" width="11.0" height="14.0" style="fill:orange; stroke:rgb(0,0,0);" rx="1"/>
<text x="62" y="226" style="font-family:sans-serif;font-size:10px;">
a
</text>
<rect x="260.0" y="186.0" width="24.0" height="14.0" style="fill:orange; stroke:rgb(0,0,0);" rx="1"/>
<text x="262" y="195" style="font-family:sans-serif;font-size:10px;">
exp
</text>
<rect x="512.5" y="217.0" width="48.0" height="14.0" style="fill:orange; stroke:rgb(0,0,0);" rx="1"/>
<text x="514" y="226" style="font-family:sans-serif;font-size:10px;">
number
</text>
<rect x="1195.75" y="310.0" width="13.0" height="14.0" style="fill:orange; stroke:rgb(0,0,0);" rx="1"/>
<text x="1197" y="319" style="font-family:sans-serif;font-size:10px;">
+
</text>
<rect x="132.0" y="155.0" width="13.0" height="14.0" style="fill:orange; stroke:rgb(0,0,0);" rx="1"/>
<text x="134" y="164" style="font-family:sans-serif;font-size:10px;">
=
</text>
<rect x="508.125" y="0.0" width="57.0" height="14.0" style="fill:orange; stroke:rgb(0,0,0);" rx="1"/>
<text x="510" y="9" style="font-family:sans-serif;font-size:10px;">
compUnit
</text>
<rect x="158.5" y="217.0" width="11.0" height="14.0" style="fill:orange; stroke:rgb(0,0,0);" rx="1"/>
<text x="160" y="226" style="font-family:sans-serif;font-size:10px;">
3
</text>
<rect x="1089.25" y="279.0" width="24.0" height="14.0" style="fill:orange; stroke:rgb(0,0,0);" rx="1"/>
<text x="1091" y="288" style="font-family:sans-serif;font-size:10px;">
exp
</text>
<rect x="231.0" y="155.0" width="31.0" height="14.0" style="fill:orange; stroke:rgb(0,0,0);" rx="1"/>
<text x="233" y="164" style="font-family:sans-serif;font-size:10px;">
cond
</text>
</svg>